<?xml version="1.0" encoding="UTF-8"?><svg id="Layer_1" xmlns="http://www.w3.org/2000/svg" viewBox="0 0 510.24 510.24"><defs><style>.cls-1{fill:#004fff;}.cls-2{fill:#ffbc00;}.cls-3{fill:#ff1200;}</style></defs><rect class="cls-1" width="510.24" height="510.24"/><path d="M506.24,4V506.24H4V4H506.24M510.24,0H0V510.24H510.24V0h0Z"/><g><path d="M124.96,74.07l.02,.05s-.02-.05-.02-.07h0s-.08,.09-.1,.14c.04-.02,.08-.04,.11-.07,0,0-.01-.03-.02-.05h0Z"/><path d="M366.7,168.54c-.58-.46-1.09,.05-1.5,.46-1.1,1.07-2.27,2.1-3.72,2.61-3.44,1.21-7.05,1.19-10.62,1.04-3.35-.14-6.56-1.14-9.82-1.9,.36-.37,.83-.31,1.26-.38,6.26-1.06,12.36-2.65,18-5.68,1.6-.86,3.02-1.97,4.1-3.43,.38-.51,.89-1.26,.13-1.91-.63-.54-1.15-.03-1.66,.32-1.05,.72-1.8,1.74-2.63,2.69-1.72,1.94-3.86,3.27-6.4,3.7-4.44,.76-8.93,.99-13.43,.73-3.03-.17-6.07-.71-8.62-2.29-1.91-1.19-3.78-1.74-5.93-1.74h0c-3.34-.74-6.76-.76-10.15-1-6.4-.44-12.81-.73-19.21-1.28-5.68-.49-11.31-.46-16.83,1.03-7.78,2.11-15.52,4.4-23.27,6.62-.23-.17-.46-.33-.71-.49-3.95-2.9-8.26-4.37-12.83-4.37-1.36,0-2.78,.13-4.2,.39-6.22,1.13-13.47,2.86-18.75,5.9-1.47,.85-3.46,.81-4.5-.6-2.05-2.07-3.35-4.62-4.69-7.18-8.01-15.27-15.07-30.95-20.72-47.27-1.25-3.63-3.13-6.95-6.23-9.4-.13-.54-.41-.98-.75-1.4-3.2-3.88-6.35-7.8-9.59-11.65-1.07-1.27-2.36-2.31-3.9-3.03-.88-.41-1.45-.35-1.7,.69-.06,.25-.22,.48-.34,.73-.56-.64-1.1-1.31-1.68-1.92-3.87-4.08-7.3-8.5-10.39-13.2-3.62-5.51-7.35-10.95-11.3-16.24-2.15-2.88-4.12-5.88-6.42-8.65-.73-.88-1.67-1.57-2.78-1.18-1.1,.38-1.03,1.55-.98,2.55,.15,2.75,1.15,5.35,2.54,7.57,4.32,6.95,8.65,13.93,14.17,20.04,0,.01-5.18-2.21-6.31-2.94-8.32-5.41-16.28-11.36-24.39-17.07-6.6-4.65-13.09-9.49-20.51-12.83-1.6-.72-3.27-1.3-5.06-.84-.9,.23-1.32,.67-.3,1.37,.08,.4,.16,.79,.45,1.1,4.06,4.47,7.78,9.3,13.09,12.47h0c.2,.18,.36,.43,.69,.4,.06,.28,.23,.38,.51,.32h0c.08,.09,.16,.19,.23,.28,.5,.44,.99,.92,1.7,.99,2.48,.27,4.94,.55,7.44,.55,.64,.14,1.29,.27,2.09,.43-2.71,.88-5.39,1-8.07,1.33,.24,.58,.7,.71,1.05,.96,3.6,2.44,7.22,4.87,10.82,7.33,.33,.22,.81,.32,.93,.79,.32-.05,.27,.24,.36,.4-.17,.13-.29,.05-.41-.09-.06-.07-.06-.11-.05-.16-.39,.21-.66-.19-.93-.33-14.35-7.59-29.09-14.36-43.77-21.26-1.57-.74-3.23-1.02-4.87-1.47-.68-.19-1.32-.01-1.58,.65-.35,.88,.7,.56,.95,.96,1.46,3.12,3.29,6.16,5.96,8.2,4.33,3.31,8.98,6.26,13.73,8.94,4.16,2.35,8.5,4.44,12.69,6.75,2.62,1.45,5.28,2.8,7.7,4.59-4.45-.83-8.78-2.1-13.13-3.3-10.65-2.94-21.17-6.43-32.25-7.56-1.11-.11-2.2-.46-3.33-.23-.88,.18-1.33,.55-.68,1.45,.45,.98,.98,1.88,1.69,2.72,2.34,2.78,5.64,4,8.84,5.12,5.71,1.98,11.45,3.9,17.14,5.94,3.36,1.21,6.75,2.34,10.12,3.5-3.66-.32-7.33-.64-10.99-.95-8.09-.68-16.18-1.38-24.27-1.99-2.59-.19-5.2-.11-7.76,.5-1.48,.35-2.39,1.53-1.7,2.34,.84,.98,1.68,2.17,3.29,1.99,.36,.17,.72,.35,1.09,.5,5.46,2.27,11.25,3.4,16.99,4.6,5.83,1.21,11.77,1.93,17.6,3.21-.44,.09-.87,.23-1.32,.28-6.2,.69-12.42,1.14-18.57,2.22-4.41,.77-8.9,1.07-13.23,2.31-.97,.28-1.77,.69-1.61,1.77,.16,1.12,.95,1.67,2.13,1.5,1.2,.18,2.26,.79,3.49,.92,3.21,.34,6.4,.84,9.6,1.18,3.47,.36,6.89,1.21,10.43,.85,3.4-.35,6.81-.3,10.21-.16,.36,1.83-.82,2.79-2.06,3.74-2.26,1.74-2.29,3.95-.11,5.8,.28,.23,.69,.36,.45,.95-1.25,3.2-.16,6,2.87,7.6,1.32,.69,2.78,.66,4.16,1,1.55,.38,1.88,.83,1.39,2.3-.56,1.67-.17,2.79,1.4,3.56,.69,.33,.8,.68,.59,1.36-.37,1.2-.71,2.41-.99,3.63-.21,.9,.04,1.74,1.12,1.66,1.23-.09,1.36,.5,1.23,1.44-.07,.53-.19,1.06-.22,1.6-.18,2.53-.84,5.23,2.39,6.53,.73,.3,.59,1,.58,1.64-.05,2.11,.71,3.87,2.5,5.05,1.17,.77,2.59,.64,3.91,.69,1.55,.06,2.51,.74,2.97,2.19,.02,.18,.05,.35,.07,.53-.02,.65,.41,1.03,.81,1.47,1.37,1.45,3.28,2.12,4.75,3.42,.02,.45,0,.92,.57,1.08,.17,2,1.46,3.28,2.95,4.35,.75,.54,1.4,1.07,1.61,2,.34,.15,.68,.29,1.01,.43,.33,1.67,1.17,3.02,2.69,3.8,1.76,.9,3.29,1.96,3.86,3.98,.07,.24,.3,.44,.47,.64,2.65,3.29,6.28,4.55,10.3,5.03,.07,.67,.62,.56,1.05,.65,1.86,2.72,3.55,5.58,5.59,8.17-1.27,1.16-2.26,2.77-4.28,2.79-1.31-.29-2.61-.64-3.93-.85-7.8-1.23-15.62-2.41-23.38-3.88-3.42-.65-6.83-1.41-10.35-1.13-1.16,.09-2.28,.31-3.28,.94-1.35,.31-2.63,.73-3.47,1.93-.88,.99-.34,1.91,.19,2.78,.49,.8,1.08,1.54,1.66,2.28,.38,.5,.38,.87-.22,1.15-1.35,.62-.96,1.69-.54,2.62,.46,1.01,1.07,1.98,1.91,2.74,.64,.58,.71,1.2,.37,1.93-.27,.57-.48,1.17-.83,1.68-.46,.69-.34,1.27-.01,1.99,.9,1.96,2.42,3.29,4.17,4.42-.34,.64,.27,.62,.58,.82,.21,.51,.29,1.01,.07,1.55-.6,1.55-.17,2.84,1.01,3.95,.32,.3,.6,.66,.89,.99,.16,.67,.66,.81,1.24,.81,1.11,.78,2.39,1.18,3.68,1.52,.37,.1,.83,.08,.94,.6,.43,1.95,1.92,2.91,3.51,3.76,1.09,.58,2.23,1.07,3.19,1.86h0c.09,.03,.19,.05,.29,.08,.73,1.09,1.56,2.1,2.71,2.72,1.88,1.02,3.86,1.86,5.95,2.35,.77,.18,1.4,.45,1.83,1.13-.32,.5-.3,.83,.31,1.15,.92,.48,1.85,.86,2.86,1.05,2.84,1.15,5.79,1.46,8.83,1.18,1.48-.14,3.08-.83,4.36,.65,.17,.2,.58,.21,.89,.25,5.28,.73,10.31,.46,14.42-3.56,.58-.57,1.25-1.03,1.83-1.59,2.93-2.82,6.54-4.96,8.67-8.58,1.19-2.03,2.77-3.3,4.55-4.86,.69-.61,3.08,.57,3.48-.33,1.09-.71,.16-1.26,.4,.04,.24,1.34,.04,1.33,.09,2.67,.04,.79,.34,1.22,1.12,1.41,4.09,1.03,8.21,.51,12.31,.18,1.13-.09,2.34-.53,3.35-1.23h0c.54-.32,1.08-.63,1.62-.95,2.66-.68,5.19-1.97,8.06-1.67,.23,.03,.57-.1,.73-.28,.84-.9,1.85-.75,2.88-.53,.78,.17,1.59,.19,2.11-.43,.6-.71-.14-1.42-.32-2.1-.09-.34-.6-.6-.97-.82-.11-.07-.22-.14-.33-.21,.02-.02,.04-.02,.06-.03,1.47-1.11,1.74-2.43,2.84-3.76-.86,.06,.43,.46,.47,.42,.53,1.3,2.08,1.45,3.71,1.71,1.05,.17,2.05,.63,3.09,.95,1.18,.36,2.59,.75,3.54,.11,1.64-1.1,3.34-1.1,5.13-1.14,.35-.01,.82,0,1.04-.2,1.86-1.66,3.92-1.52,6.24-1.21,2.94,.4,5.7-.9,8.44-1.93,1.87-.7,3.76-1.19,5.76-.46,.65,.24,1.31,.08,1.97-.16,2.11-.78,4.22-1.52,6.35-2.25,1.72-.58,3.43-.92,5.26-.36,.97,.3,2.07,.14,3.06,.42,1.34,.37,2.64-.6,3.82-.18,3.43,1.23,6.71,.71,9.99-.43,.57-.2,1.13-.34,1.72-.2,2.86,.67,5.52,.22,7.95-1.46,1.21,.95,2.15,2.11,2.9,3.46,3.47,6.24,7.12,12.4,10.89,18.47,2,3.54,4.99,5.4,9.09,5.44,1.16,.01,1.23-.65,1.02-1.5-1.85-7.63-4-15.16-6.86-22.47-.41-1.04-.57-2.18-.84-3.28,.64-.13,.62,.31,.73,.55,.51,1.1,.99,2.2,1.48,3.32,2.76,6.35,7.12,11.25,13.13,14.69,1.75,1,3.64,1.48,5.57,1.88,.96,.2,1.44-.38,1.68-1.16,.21-.65,.12-1.32-.08-1.99-1.77-5.89-3.97-11.62-6.76-17.09-2.38-4.67-5.21-9.12-7.48-13.85-.23-.49-.66-.95-.36-1.6,.66,.12,.88,.67,1.19,1.07,2.76,3.5,5.62,6.91,9.05,9.78,3.03,2.53,6.35,4.54,10.22,5.51,1.87,.47,3.81,.69,5.75,.48,1.38-.15,1.98-1,1.39-1.93-1.62-2.58-2.99-5.34-4.96-7.69-3.15-3.75-6.39-7.44-9.59-11.13-1.18-1.36-2.35-2.72-3.13-4.37-.23-.49-.48-.97-.2-1.54,.43-.02,.73,.21,1.05,.47,5.29,4.35,11.23,6.42,18.12,5.07,1.85-.36,3.68-.8,5.33-1.77,.54-.32,.99-.69,1.02-1.31,.04-.67-.66-.66-1.05-.85-1.56-.79-3.17-1.48-4.74-2.25-4.02-1.99-8.22-3.6-12.09-5.87-.35-.21-.99-.34-.81-.9,.15-.47,.71-.2,1.09-.21,3.35-.1,6.6-.62,9.67-2.03,3.4-1.57,6.58-3.64,10.4-4.24,1.13-.18,2.13-.94,2.8-1.96,.36-.55,.66-1.2,.04-1.69v-.04ZM108.26,60.55c-.13-.04-.25-.08-.38-.11h0c.13,.04,.25,.08,.38,.11h0Z"/></g><g><g><path d="M80.09,384.41c-.41-.34-1.01-.27-1.44,.15-.03,.03-.09,.09-.16,.17-2.19,2.39-6.78,6.3-12.84,5.58-2.35-.28-4.05-1.53-5.06-3.72-2.22-4.84-.53-13.51,3.94-20.17,7.49-11.16,17.26-16.16,23.63-16.16,1.9,0,3.18,.59,3.81,1.76,.97,1.81,.21,4.69-1.03,6.57-.26,.35-.26,.79,0,1.1,.27,.32,.73,.4,1.13,.21,.58-.25,3.61-1.9,4.25-4.04,.24-.82,.54-3.39-1-5.46-1.34-1.8-3.63-2.71-6.82-2.71-11.38,0-20.13,4.91-27.55,15.47-4.73,6.69-7.71,18.08-4.27,24.81,1.75,3.41,4.98,5.24,9.35,5.28,.04,0,.09,0,.13,0,8.95,0,13.82-7.05,14.02-7.36,.42-.64,.26-1.21-.1-1.5Z"/><path d="M100.08,380.98c.13-.07,3.31-1.68,3.72-4.85,.2-1.47-.41-2.24-.95-2.64-1.23-.89-3.35-.65-4.81,.05-1.72,.86-3.14,1.95-5.87,4.24-.63,.51-1.24,1.03-1.81,1.54,.5-.77,.93-1.48,1.17-2.02,.6-1.35,.13-2.93-1.32-4.36-.34-.34-.85-.42-1.22-.19-.26,.16-.5,.54-.32,1.08,.27,.73-2.06,4.14-3.92,6.89-1.77,2.6-3.78,5.56-5.39,8.51-.26,.39-.28,.97-.04,1.45,.35,.7,1.12,1.71,1.64,2.15,.13,.1,.37,.28,.67,.28,.09,0,.19-.02,.29-.06,.45-.19,.51-.7,.54-.93,.12-1.05,1.75-3.4,2.53-4.53h0c1.01-1.48,8.59-8.43,12.28-10.64,1.11-.66,2.28-.9,2.64-.7,.03,.02,.07,.03,.07,.17,.06,1.32-.44,2.33-1.01,3.37-.23,.35-.2,.79,.09,1.08,.29,.29,.73,.32,1.01,.13Z"/><path d="M113.29,385.94c-.37-.11-.79,.06-1.04,.44-.92,1.42-5.04,4.37-7.65,4.43-.74,0-1.3-.21-1.64-.68-1.23-1.75,1.22-6.11,3.27-8.51,3.79-4.47,9.21-6.62,10.25-5.79,.03,.03,.07,.06,.07,.18-.03,.65-1.15,2.12-2.94,3.34-2.12,1.5-5.1,2.28-6.27,1.95-.45-.11-.93,.15-1.07,.6-.15,.45,.08,.91,.49,1.08,2.21,1.1,6.1,1.26,8.97-.63,2.05-1.35,3.49-3.54,3.57-5.45,.05-1.18-.39-2.17-1.28-2.87-2.68-2.09-9.87-1.29-15.03,4.71-3.9,4.5-4.89,9.61-2.46,12.72,.85,1.07,2.17,1.68,3.82,1.76,.14,0,.27,.01,.41,.01,3.07,0,6.58-1.67,8.16-3.3,.54-.54,.8-2.17,.92-3.17,0-.38-.22-.69-.55-.79Z"/><path d="M150.02,385.46c-.41-.15-.87,.04-1.12,.46-1.4,2.14-5.31,5.06-7.41,5.11-.54,.02-.73-.17-.83-.31-.43-.59,.29-2.55,1.21-4.09,.54-.86,1.71-2.49,3.06-4.38,1.34-1.88,2.86-4,4.14-5.89h5.14c1.51,0,2.86-.99,3.46-2.56,.15-.46-.03-.79-.25-.95-.14-.1-.52-.29-1.02,.09-.19,.14-.86,.47-2.85,.47h-2.62c.24-.39,.45-.75,.55-.96,1-1.93,.16-4.1-1.14-5.41-.23-.29-.67-.4-1.03-.24-.36,.16-.61,.59-.38,1.15,.22,.44-.16,1.79-1.08,3.11l-1.59,2.35c-.44,0-.79-.01-1.09-.02-.6-.01-.99-.02-1.27,.02-.25,0-.5,.07-1.22,.93-.74,.88-.74,1.17-.74,1.32l.05,.7h2.31c-.65,.93-1.32,1.88-1.97,2.8-1.89,2.68-3.51,4.99-4.02,5.86-.28,.46-.54,1.02-.75,1.62-1.77,1.54-3.75,3.03-5.02,3.44-.27,.08-.55,.05-.62-.02,0,0-.23-.28,.28-1.47,1.02-2.37,2.74-5.58,4.85-9.04,.38-.63,.02-1.19-.96-2.66l-.45-.68c-.2-.29-.53-.45-.86-.42-.36,.04-.66,.29-.83,.7-.11,.29-1.25,2.02-3.17,4.2l-.3,.33c-1.32,1.45-3.3,3.64-5.78,5.81-3.61,3.23-4.53,2.98-4.68,2.9-.15-.08-.34-.55-.14-1.83,.43-2.81,2.9-6.22,5.02-8.21,4.19-3.92,9.66-5.36,12.27-3.17,.32,.21,.71,.2,1.01-.02,.3-.23,.42-.63,.31-.96-.25-.87-2.55-2.18-4.18-2.38-4.51-.55-8.02,.56-12.11,3.84-5.54,4.39-6.9,10.48-6.45,13.3,.4,2.4,1.64,2.74,2.01,2.79,2.99,.39,6.34-2.39,11.59-7.5-.24,.5-.47,.97-.74,1.56-.91,1.97-.99,3.83-.2,4.99,.48,.71,1.26,1.09,2.22,1.09,.07,0,.13,0,.2,0,1.71-.1,4.12-1.62,6.3-3.33,.13,.88,.49,1.7,1.23,2.32,.84,.71,1.88,1,2.99,1,2.92,0,6.36-1.98,8.03-3.65,.63-.55,1-2.29,1.14-3.02,.09-.56-.2-.93-.53-1.05Z"/><path d="M170.59,374c-2.68-2.09-9.87-1.29-15.03,4.71-3.9,4.5-4.89,9.61-2.46,12.72,.85,1.07,2.17,1.68,3.82,1.76,.14,0,.27,.01,.41,.01,3.07,0,6.58-1.67,8.16-3.3,.54-.54,.8-2.17,.92-3.17,0-.38-.22-.69-.55-.79-.37-.11-.79,.06-1.04,.44-.92,1.42-5.04,4.37-7.65,4.43-.75,0-1.3-.21-1.64-.68-1.23-1.75,1.22-6.11,3.27-8.51,3.79-4.47,9.21-6.62,10.25-5.79,.03,.03,.07,.06,.07,.18-.03,.65-1.15,2.12-2.94,3.34-2.12,1.5-5.1,2.28-6.27,1.95-.45-.11-.93,.15-1.07,.6-.15,.45,.08,.91,.49,1.08,2.21,1.1,6.1,1.26,8.97-.63,2.05-1.35,3.49-3.54,3.57-5.45,.05-1.18-.39-2.17-1.28-2.87Z"/><path d="M210.94,372.17l-.2-.16c-.39-.29-.89-.25-1.2,.1-.27,.31-.29,.76-.05,1.07,.7,1.11,.38,2.59-.04,4.14-.78,2.96-4.99,7.91-8.35,10.52,1.23-3.2,2.47-6.71,2.76-10.05,0-.1,.16-2.44-.65-3.05-.24-.18-.54-.22-.8-.12-.21,.07-.64,.21-1.04,.42-2,.89-2.34,1.22-2.61,2.05-.03,.08-.06,.18-.1,.28-1.25,2.96-5.24,7.18-8.15,9.81,1.37-3.14,2.68-6.95,3-9.95,.32-2.89-3.28-4.31-3.99-4.47-.44-.11-.86,.09-1.03,.47-.16,.37-.03,.8,.32,1.03,.34,.23,.69,1.02,.57,2.52-.17,2.83-1.02,5.95-2.66,9.83-.66,1.58-1.05,2.19-1.28,2.56-.21,.33-.36,.58-.36,1.06,0,.77,1.13,2.26,1.68,2.65,.21,.14,.41,.21,.61,.21,.07,0,.14,0,.21-.03,.23-.06,.41-.21,.51-.41,.21-.32,1.82-1.81,3.13-3,.95-.87,1.93-1.78,2.7-2.52l1.07-1.02c1.92-1.83,3.36-3.2,4.65-4.91-.32,1.54-.95,3.36-1.87,5.37-.47,.99-.84,1.62-1.11,2.08-.36,.62-.6,1.02-.6,1.56,0,.77,1.13,2.26,1.68,2.66,.28,.19,.56,.25,.82,.18,.23-.06,.41-.22,.5-.41,.22-.34,2.17-2.05,5.91-5.02,2.5-1.99,6.88-5.85,8.2-9.4,1.24-3.36-.67-4.86-2.2-6.07Z"/><path d="M224.04,370.57c.1,.03,.2,.04,.3,.04,.21,0,.43-.07,.62-.21,.72-.59,1.14-1.5,1.39-2.04l.1-.22c.62-1.25-.95-2.96-1.44-3.46-.42-.42-.79-.35-.97-.28-.14,.06-.47,.26-.47,.8,0,.62-.35,1.16-.7,1.67-.37,.56-.75,1.14-.51,1.81,.23,.55,.87,1.65,1.68,1.88Zm.83-5.36h-.26s0,0,0,0h.26s0,0,0,0Z"/><path d="M233.11,385.46c-.41-.15-.87,.04-1.12,.46-1.4,2.14-5.31,5.06-7.41,5.11-.54,.02-.73-.17-.83-.31-.43-.59,.29-2.55,1.21-4.09,.54-.86,1.71-2.49,3.06-4.38,1.34-1.88,2.86-4,4.14-5.89h5.14c1.51,0,2.86-.99,3.46-2.56,.15-.46-.03-.79-.25-.95-.14-.1-.51-.29-1.02,.09-.19,.14-.86,.47-2.85,.47h-2.62c.24-.39,.45-.75,.55-.96,1-1.93,.16-4.1-1.14-5.41-.23-.29-.67-.4-1.03-.24-.35,.16-.61,.59-.38,1.15,.22,.44-.16,1.79-1.08,3.11l-1.59,2.35c-.44,0-.79-.01-1.09-.02-.59-.01-.99-.02-1.27,.02-.25,0-.5,.07-1.22,.93-.74,.88-.74,1.17-.74,1.32l.05,.7h2.31c-.65,.93-1.32,1.88-1.97,2.8-.8,1.14-1.55,2.2-2.19,3.12-.14,.09-.27,.22-.36,.41-.38,.8-6.25,6.5-8.96,7.39-.25,.07-.59,.04-.67-.06-.08-.1-.12-.51,.33-1.41,.87-1.79,2.4-3.92,3.88-5.99,1.25-1.75,2.43-3.39,3.11-4.7,.83-1.6,.4-3.26-1.27-4.95-.23-.29-.67-.4-1.03-.23-.35,.16-.6,.59-.38,1.15,.23,.46-.61,1.92-1.16,2.89l-.07,.12c-.81,1.36-1.86,2.86-2.88,4.31-1.44,2.05-2.92,4.17-3.75,5.91-.93,1.9-1.02,3.8-.25,4.96,.49,.73,1.28,1.13,2.26,1.13,.07,0,.13,0,.2,0,2.18-.13,5.48-2.54,8-4.73-.15,1.39,.13,2.79,1.25,3.72,.84,.71,1.88,1,2.99,1,2.92,0,6.36-1.98,8.03-3.65,.63-.55,1-2.29,1.14-3.02,.09-.56-.2-.93-.53-1.05Z"/><path d="M268.95,348.52l-.15-.05c-.65-.22-4.01-1.24-5.86,.01-4.64,3.16-12.81,15.2-19.37,24.88l-.08,.12c-5.27,7.61-9.8,14.54-10.32,15.82l-.03,.09c-.08,.22-.22,.59-.11,1.03,.25,.83,1.41,2.22,1.98,2.51,.34,.17,.64,.18,.89,.02,.39-.24,.39-.7,.38-.81,.02-.21,.24-1.14,2.33-4.17,1.02-1.45,3.98-4.21,8.84-8.24,.36-.36,4.28-3.59,6.04-4.06,.26-.07,.5-.05,.58,.05,.03,.04,.3,.4-.23,1.72-.28,.73-1.11,2.07-2.08,3.62-1.19,1.91-2.54,4.08-3.45,6.05-.91,1.97-.99,3.83-.2,4.99,.48,.71,1.26,1.09,2.22,1.09,.07,0,.13,0,.2,0,3.76-.22,10.88-7.27,11.55-8.15,.6-.7,.62-2.06,.62-2.07,0-.5-.32-.75-.59-.81-.35-.08-.74,.11-.94,.53-.37,.79-6.24,6.5-8.96,7.39-.27,.08-.55,.05-.61-.02,0,0-.23-.28,.28-1.47,.44-.99,1.48-2.66,2.58-4.43,1.35-2.15,2.74-4.38,3.36-5.89,.69-1.63,.54-3.21-.38-4.23-.92-1.02-2.46-1.32-4.12-.8-1.72,.55-3.97,1.97-7.08,4.48-.7,.57-1.42,1.19-2.11,1.78,.31-.43,.62-.87,.93-1.31,1.02-1.43,2.02-2.84,2.78-3.96l.71-1.03c6.87-9.99,14.65-21.31,18.91-22.83,.49-.16,.81-.16,.98-.16,.59,0,.8-.39,.85-.52,.16-.39-.01-.81-.26-1.06l-.11-.11Z"/><path d="M288.88,374.29l.88-1.29c6.8-9.96,14.52-21.26,18.87-22.77,.49-.16,.81-.16,.98-.16,.44,0,.79-.31,.84-.75,.06-.46-.24-.89-.64-.99-.9-.3-3.96-1.18-5.72,.08-4.16,2.83-11.1,12.96-17.23,21.9-.76,1.1-1.5,2.19-2.23,3.24l-.1,.15c-6.07,8.85-9.82,14.35-10.35,15.93-.13,.39-.09,.83,.09,1.2,.42,.92,1.3,1.67,1.79,2.03l.03,.02c.16,.11,.33,.16,.5,.16,.13,0,.25-.03,.37-.09,.32-.17,.48-.51,.48-1.01,0-1.24,4.43-7.59,8.33-13.19,1.03-1.48,2.08-2.99,3.11-4.48Z"/><path d="M302.68,377.96c-.43-1-2.81-1.91-2.82-1.91h0c-.1-.05-.21-.09-.31-.1h.03c.94,0,1.89,.15,2.17,.32,.48,.29,1,.26,1.3-.06,.11-.12,.43-.55-.06-1.23-.87-1.1-2.05-1.75-3.71-2.02-2.46-.41-7.68,.77-11.89,5.69-1.98,2.25-3.88,6.09-3.66,9.59,.11,1.7,.78,3.05,1.91,3.92,.93,.71,2.18,1.08,3.57,1.08,.55,0,1.12-.06,1.7-.18h0c2.75-.59,6.64-2.27,9.6-6.97,2.16-3.48,2.92-6.37,2.16-8.13Zm-15.4,10.58c.05-1.85,1.18-4.26,3.09-6.61,3.58-4.49,6.35-5.37,7.68-5.79,.32-.1,.73-.16,1.15-.18-.16,.04-.3,.12-.4,.25-.16,.19-.36,.61,.1,1.27,.33,.48,.12,3.51-1.22,5.77-2.46,4.21-4.78,6.51-7.51,7.44-.89,.31-1.66,.27-2.17-.1-.5-.37-.76-1.07-.73-2.03Z"/><path d="M319.86,378.13c1.3-3.18-.61-4.68-2.15-5.88l-.31-.24c-.4-.3-.8-.22-1.03-.05-.31,.22-.44,.65-.28,1.12,.63,1.31,.39,2.52-.22,4.18-1.21,3.29-5.66,7.62-9.63,10.23,2.04-4.33,3.13-7.79,3.23-10.32,.08-2.9-3.34-4.27-4-4.42-.44-.11-.86,.09-1.03,.47-.16,.37-.04,.8,.32,1.03,.34,.23,.69,1.02,.57,2.52-.19,3.1-1.3,6.16-2.73,9.84-.65,1.66-1.03,2.28-1.24,2.61-.18,.29-.33,.53-.33,1,0,.75,1.03,2.34,1.68,2.65,.21,.14,.41,.21,.61,.21,.07,0,.14,0,.21-.03,.22-.06,.4-.2,.51-.41,.38-.53,4.01-3.47,6.33-5.06,5.26-3.57,8.36-6.67,9.48-9.47Zm-16.69,14.27s0,0,0,0h0s0,0,0,0Z"/><path d="M335.24,374c-2.68-2.09-9.87-1.29-15.03,4.71-3.9,4.5-4.89,9.61-2.46,12.72,.85,1.07,2.17,1.68,3.82,1.76,.14,0,.27,.01,.41,.01,3.07,0,6.58-1.67,8.16-3.3,.54-.54,.8-2.17,.92-3.17,0-.38-.22-.69-.55-.79-.37-.11-.79,.06-1.04,.44-.92,1.42-5.04,4.37-7.65,4.43-.75,0-1.3-.21-1.64-.68-1.23-1.75,1.22-6.11,3.27-8.51,3.79-4.47,9.21-6.62,10.25-5.79,.03,.03,.07,.06,.07,.18-.03,.65-1.15,2.12-2.94,3.34-2.12,1.5-5.1,2.28-6.27,1.95-.45-.11-.93,.15-1.07,.6-.15,.45,.08,.91,.49,1.08,2.21,1.1,6.1,1.26,8.97-.63,2.05-1.35,3.49-3.54,3.57-5.45,.05-1.18-.39-2.17-1.28-2.87Z"/></g><g><path d="M208.1,439.17c-.17-.12-.78-.45-1.58,.35-1.98,1.86-4.02,1.68-6.38,1.47l-.48-.04c-1.74-.15-3.4-.41-6.41-.89-1.36-.21-3-.47-5.07-.79-6.73-1.01-9.12,2.87-9.91,4.15-.05,.09-.1,.16-.13,.21-.48,.72-.35,1.33,0,1.62,.1,.08,.28,.19,.53,.19,.27,0,.63-.13,1.05-.55,1.52-1.52,4.08-2.24,6.83-1.93,2.45,.27,5.05,.67,8.06,1.13,1.83,.28,3.85,.59,6.14,.91,2.5,.36,5.83-.06,7.46-4.12,.03-.07,.05-.12,.07-.17,.39-.77,.16-1.31-.18-1.56Z"/><path d="M268.3,437.82c5.32-7.56,8.66-19.56,5.03-26.55-1.88-3.62-5.44-5.53-10.31-5.53-11.83,0-22.3,6.17-30.28,17.85-5.09,7.42-8.29,19.77-4.59,26.79,1.87,3.56,5.36,5.44,10.09,5.44,11.52,0,21.63-6.05,30.06-17.99h0Zm-29.69,15.3c-2.58,0-4.49-1.13-5.67-3.35-2.83-5.3-.96-15.84,4.17-23.48,7.9-11.78,18.8-17.94,25.48-17.94,2.7,0,4.7,1.19,5.93,3.54,2.85,5.43,.97,15.63-4.28,23.22h0c-8.13,11.83-19.05,18.02-25.64,18.02Z"/><path d="M274.77,434.3c-6.07,8.84-10.87,15.83-11.48,17.66-.14,.41-.1,.89,.1,1.28,.45,1,1.42,1.82,1.95,2.22l.03,.02c.16,.11,.34,.16,.51,.16,.13,0,.26-.03,.38-.09,.33-.17,.49-.53,.49-1.05,0-1.39,4.89-8.41,9.21-14.59,1.14-1.63,2.3-3.3,3.43-4.94l.97-1.42c7.52-11.01,16.04-23.48,20.86-25.16,.56-.19,.91-.19,1.11-.19,.45,0,.81-.32,.86-.77,.06-.47-.25-.91-.67-1.02-.98-.33-4.34-1.3-6.25,.08-4.58,3.12-12.24,14.29-19,24.15-.84,1.22-1.66,2.42-2.46,3.58l-.05,.07Z"/><path d="M290.29,440.63c-2.36,1.66-5.68,2.53-6.98,2.16-.47-.12-.95,.15-1.1,.62s.08,.94,.51,1.11c2.42,1.21,6.69,1.38,9.84-.69,2.25-1.48,3.82-3.88,3.91-5.96,.05-1.28-.42-2.36-1.39-3.11-2.94-2.28-10.82-1.4-16.49,5.19-4.28,4.94-5.37,10.55-2.72,13.95,.92,1.17,2.36,1.83,4.17,1.92,.15,0,.3,.01,.45,.01,3.37,0,7.22-1.83,8.97-3.63,.6-.61,.89-2.56,.99-3.45,0-.39-.22-.71-.57-.81-.38-.11-.82,.07-1.07,.46-1.05,1.62-5.54,4.85-8.51,4.92-.85,.02-1.47-.24-1.86-.78-1.38-1.96,1.34-6.82,3.61-9.48,4.21-4.96,10.24-7.34,11.41-6.4,.05,.04,.1,.1,.1,.25-.03,.75-1.26,2.36-3.27,3.74Z"/><path d="M311.44,433.73c-4.55,0-8.83,1.61-12.04,4.55-6.44,6-7.13,11.51-7.13,13.6,0,2.61,1.53,3.79,2.62,3.79,2.94,0,6.96-2.3,12.21-7.01-3.76,5.7-8.95,13.31-13.18,19.18-5.19,7.32-9.81,10.44-15.43,10.44-6.34,0-9.73-3.74-11.18-5.95-.51-.85-2.94-1.37-3.39-1.46-.65-.16-1,.06-1.17,.27-.18,.22-.32,.61,0,1.24,2.6,5.04,8.47,8.3,14.94,8.3,11.05,0,16.49-6.04,20.72-11.71,5.04-6.72,13.2-19.56,16.69-25.04,.94-1.48,1.57-2.47,1.79-2.79,.36-.59,.25-.98,.1-1.28-.14-.28-.36-.62-.69-1.14-.24-.37-.53-.83-.87-1.39-.31-.51-.74-.54-.91-.52-.39,.03-.73,.32-.9,.75-.19,.47-.87,1.8-2.94,4.04-1.76,1.92-4.87,4.98-7.53,7.16-2.75,2.39-5.23,3.77-6.03,3.37-.28-.14-.4-.69-.33-1.51,.21-2.77,2.4-6.4,5.85-9.71,3-2.85,6.46-4.43,10-4.56,1.52-.07,3.42,.46,4.64,1.28,.4,.26,.93,.19,1.23-.17,.24-.29,.3-.78-.08-1.16-1.06-1.23-3.69-2.56-6.98-2.56Z"/><path d="M383.71,420.86c.95-3.38,.49-6.71-1.3-9.37-5.07-7.57-21.06-6.66-28.5-4.49-11.24,3.27-19,11.45-19.79,20.84-.35,4.13,1.19,9.51,5.39,11.57,.59,.3,1.09,.1,1.32-.22,.22-.31,.25-.82-.2-1.26l-.07-.06c-2.76-2.09-3.44-6.32-2.89-9.57,1.15-6.13,7.16-13.92,18.01-17.51,3.59-1.21,8.84-2.27,13.53-1.94-1.05,.32-2.1,.78-2.8,1.41-4.92,4.38-8.98,8.8-16.29,19.66-5.73,8.52-10.65,19.61-11.11,21.81l-.02,.23c-.02,.47-.04,1,.15,1.36,.31,.62,1.07,1.36,2.23,2.2,.22,.17,.46,.25,.69,.25,.14,0,.28-.03,.4-.09,.16-.08,.53-.33,.53-.97,0-3.26,5.52-14.76,10.75-22.38,8.17-11.82,15.2-19.85,19.36-22.06,.13-.09,.66-.33,.99-.44,1.46,.59,2.72,1.54,3.75,2.85,1.5,1.91,1.37,4.37,1,6.09-.87,4.05-3.89,8.03-7.49,9.92-4.44,2.29-11.75,3.22-15.05,2.5-.63-.18-1.06,.14-1.19,.52-.16,.48,.11,1.01,.67,1.23,5.16,1.64,14.17,.45,18.77-1.71,4.48-2.07,7.9-5.96,9.14-10.4Z"/><path d="M401.3,434.97l.97-1.42c7.52-11.01,16.04-23.48,20.86-25.16,.56-.19,.91-.19,1.11-.19,.45,0,.81-.32,.86-.77,.06-.47-.25-.91-.67-1.02-.98-.33-4.34-1.3-6.25,.08-4.58,3.12-12.24,14.29-19,24.15-.84,1.22-1.66,2.42-2.46,3.58l-.05,.07c-3.19,4.65-6.02,8.78-8.09,11.92-2.25,2.23-6.14,5.6-8.21,6.27-.31,.09-.65,.07-.76-.04-.11-.12-.17-.62,.3-1.7,1.13-2.62,3.03-6.17,5.36-9.98,.4-.66,0-1.27-1.06-2.87l-.49-.74c-.2-.3-.54-.48-.89-.44-.38,.04-.68,.29-.86,.73-.12,.32-1.38,2.23-3.51,4.66l-.33,.36c-1.45,1.6-3.65,4.02-6.37,6.41-4.01,3.59-5.07,3.31-5.25,3.22-.22-.12-.4-.74-.19-2.09,.47-3.12,3.22-6.9,5.56-9.1,4.65-4.35,10.73-5.95,13.63-3.51,.33,.22,.73,.21,1.04-.02,.31-.24,.43-.64,.32-.99-.27-.94-2.78-2.36-4.56-2.58-4.96-.6-8.82,.62-13.31,4.22-6.09,4.83-7.58,11.52-7.09,14.61,.43,2.6,1.77,2.97,2.16,3.02,3.32,.43,7.08-2.74,13.02-8.53-.34,.69-.63,1.28-.99,2.07-1,2.15-1.08,4.19-.23,5.44,.52,.76,1.36,1.18,2.39,1.18,.07,0,.15,0,.22,0,1.81-.1,4.32-1.65,6.64-3.43-.02,.3,.04,.6,.17,.86,.45,1,1.42,1.82,1.95,2.22l.03,.02c.16,.11,.34,.16,.51,.16,.13,0,.26-.03,.38-.09,.33-.17,.49-.53,.49-1.05,0-1.39,4.89-8.41,9.21-14.59,1.14-1.63,2.3-3.3,3.43-4.94Z"/><path d="M453.65,434.74c-2.94-2.28-10.82-1.4-16.49,5.19-2.09,2.41-3.41,4.98-3.92,7.37-2.26,2.11-5.32,4.61-7.09,5.19-.31,.09-.65,.07-.75-.05-.11-.12-.17-.62,.29-1.68,.76-1.63,2.1-3.65,3.39-5.6,1.44-2.18,2.81-4.24,3.54-5.93,.88-1.98,.88-3.49,0-4.51-1.11-1.28-3.23-1.25-4.7-.83-2.17,.59-4.44,2.13-7.14,4.83-.65,.65-1.27,1.29-1.84,1.88,.25-.44,.49-.87,.7-1.28,1.34-2.69,.84-4.12,.18-4.85-.9-1.01-2.64-1.23-4.42-.57-1.9,.71-3.56,1.65-6.84,4.57-.61,.55-1.23,1.14-1.84,1.73,.46-.73,.84-1.39,1.05-1.85,.66-1.48,.08-3.2-1.67-4.88-.47-.47-.9-.29-1.02-.23-.16,.08-.51,.35-.38,1.03,.25,1.23-2.01,4.52-4.4,7.99-1.89,2.75-4.03,5.87-5.8,9.11-.32,.53-.35,1.13-.11,1.63,.4,.88,1.25,1.9,1.88,2.44,.44,.33,.82,.2,.96,.13,.19-.1,.52-.36,.51-1.07-.06-.72,1.8-3.27,2.5-4.23,1.28-1.75,5.82-6.34,9.47-9.75,2.23-2.08,4.47-3.62,5.7-3.93,.38-.1,.54-.08,.57-.1,.07,.24-.1,.96-1.23,2.98l-.14,.25c-.44,.79-.87,1.55-1.29,2.29-1.86,3.27-3.61,6.37-4.94,9.74-.26,.64-.07,1.15,.1,1.48,.43,.85,1.39,1.81,1.87,2.13,.14,.11,.53,.4,.97,.21,.47-.19,.54-.73,.57-.95,.13-1.14,.84-2.74,2.09-4.77,.9-1.45,3.47-4.36,7.64-8.64,2.01-2.08,4.95-4.44,6.42-4.69,.47-.08,.64,0,.66,.03,.09,.14,.09,.98-1.1,2.92l-.99,1.6c-1.64,2.65-3.69,5.94-4.73,8.08-1.01,2.08-1.12,4.15-.28,5.41,.53,.79,1.38,1.22,2.43,1.22,.07,0,.15,0,.22,0,2.4-.14,6.04-2.81,8.82-5.23,.17,1.23,.61,2.35,1.35,3.3,.92,1.17,2.36,1.83,4.17,1.92,.15,0,.3,.01,.45,.01,3.37,0,7.22-1.83,8.97-3.63,.6-.61,.89-2.56,.99-3.45,0-.39-.22-.71-.57-.81-.38-.11-.82,.07-1.07,.46-1.05,1.62-5.54,4.85-8.51,4.92-.86,.02-1.47-.24-1.86-.78-1.38-1.96,1.34-6.82,3.61-9.48,4.21-4.96,10.23-7.34,11.41-6.4,.05,.04,.1,.1,.1,.25-.03,.75-1.26,2.36-3.27,3.74-2.36,1.66-5.68,2.53-6.98,2.16-.47-.12-.95,.15-1.1,.62s.08,.94,.51,1.11c2.42,1.21,6.69,1.38,9.84-.69,2.25-1.48,3.82-3.88,3.91-5.96,.05-1.28-.42-2.36-1.39-3.11Z"/></g></g><g><path class="cls-2" d="M365.87,168.86l-.12-.1c-.3-.14-.56,.05-1.03,.5-1.05,1.03-2.28,2.14-3.82,2.68-3.51,1.24-7.19,1.2-10.67,1.05-2.63-.11-5.22-.76-7.72-1.38-.7-.18-1.41-.35-2.11-.52l-.41-.1,.29-.3c.33-.34,.74-.38,1.1-.42,.1,0,.2-.02,.29-.03,7.45-1.26,12.96-3,17.86-5.63,1.7-.92,3.01-2.02,4-3.35,.49-.67,.68-1.14,.17-1.58-.39-.33-.69-.15-1.18,.2l-.19,.13c-.8,.55-1.42,1.28-2.06,2.04-.17,.2-.34,.4-.51,.6-1.83,2.07-4.02,3.34-6.51,3.77-4.33,.75-8.85,.99-13.43,.73-3.73-.21-6.49-.95-8.7-2.32-1.86-1.15-3.7-1.69-5.78-1.7-5.8,.21-11.69,0-17.39-.19-1.85-.06-3.69-.13-5.54-.18-1.36-.04-2.74-.11-4.08-.17-4.66-.23-9.48-.47-14.16,.61-2.44,.56-4.81,1.49-7.1,2.4-.49,.19-.98,.38-1.46,.57-5.28,2.04-13.16,5.22-15.83,6.34v.04s.16,4.66,1.24,7.55c1.23,3.28,.73,6.27-1.45,8.64-.3,.33-.56,.69-.85,1.07l-.29,.39c-.07,.09-.13,.18-.2,.27l-.07,.08-1.77,.14-.49-.57c-.67-.76-.34-1.57-.17-2,.04-.09,.07-.17,.09-.24,.16-.51,.09-.79-.28-1.12l-.12-.15-1.4-2.3c-.09-.15-.24-.33-.42-.29-1.41,.32-2.72-.01-3.76-.28-.15-.04-.19-.02-.19-.02,0,0-.01,.03-.03,.06-.08,.14-.21,.37-.66,.47-2.54,.56-3.54,2.58-4.6,4.72-.04,.09-.09,.18-.14,.27-.12,.24-.24,.48-.37,.72l-.05,.08-.24,.33c-.7,.95-1.39,1.89-2.09,2.84-2.74,3.72-11.11,16.28-10.48,18.19,.03,.08,.06,.1,.1,.12,.39,.13,2.03-1.27,3.11-2.19,.75-.64,1.53-1.3,2.16-1.74,3.39-2.34,7.31-5.09,11.06-7.98,.18-.14,.43-.33,.72-.46,.49-.22,.95-.15,1.27,.19,.37,.4,.11,.77-.03,.97-.03,.05-.07,.09-.09,.14l-.24,.39c-2.35,3.83-4.71,7.66-7.05,11.49-.66,1.08-1.26,2.09-1.83,3.11-.3,.54-.12,.79,.05,.93,.15,.13,.24,.1,.53-.07,.1-.06,.2-.11,.31-.16,1.71-.65,3.01-1.91,4.27-3.13,.38-.36,.75-.73,1.14-1.07,.93-.84,1.86-1.67,2.79-2.5,2.59-2.31,5.27-4.69,7.76-7.19,.03-.03,.06-.07,.09-.1,.13-.15,.3-.36,.56-.37,.16,0,.3,.06,.44,.19,.37,.36,.12,.77-.03,1.02l-.07,.12c-1.6,3.02-2.72,6.29-3.8,9.46l-.42,1.22c-.09,.25-.17,.49-.24,.74-.11,.39-.1,.49,.05,.56,.14,.08,.22,.03,.44-.18l.1-.09c1.3-1.14,2.36-2.53,3.38-3.88,.22-.29,.44-.59,.67-.88,.69-.9,1.37-1.81,2.05-2.72,1.8-2.42,3.65-4.92,5.83-7.11,.07-.07,.15-.17,.22-.26,.26-.34,.7-.9,1.33-.51,.64,.4,.39,1.06,.22,1.49-.05,.12-.09,.24-.12,.35l-.25,.93c-.57,2.11-1.15,4.29-1.76,6.43-.12,.41-.12,.83-.12,1.28,0,.36,0,.73-.07,1.1-.01,.07-.03,.14-.04,.21-.1,.43-.09,.54,.2,.63,.42,.13,.69,.02,.95-.41,.63-1.02,1.27-2.02,1.91-3.03,.88-1.38,1.79-2.81,2.64-4.24,1.55-2.6,3.39-5.04,5.18-7.4,.42-.56,.85-1.12,1.26-1.68l.08-.1c.28-.38,.7-.95,1.34-.76,.69,.21,.59,.87,.53,1.26-.01,.1-.03,.19-.03,.28-.08,2.08-.46,4.15-.82,6.16-.13,.73-.26,1.46-.38,2.19l-.09,.51c-.2,1.2-.41,2.44-.33,3.69v.08c.03,.46,.06,.68,.41,.77,.35,.09,.57-.03,.81-.45,1.24-2.13,2.79-3.99,4.28-5.7,.06-.07,.13-.16,.19-.25,.29-.39,.74-.99,1.43-.71,.78,.31,1.27,1.12,1.19,1.97-.23,2.6,.51,4.99,1.28,7.23l.09,.26c.21,.66,.36,1.04,.95,1.16,.74,.16,1.25-.3,1.74-.83,.54-.58,1.07-1.25,1.71-2.18,.19-.27,.45-.59,.78-.59,0,0,.01,0,.02,0,.35,.01,.6,.38,.8,.73,.9,1.55,1.46,1.8,2.99,1.32,.26-.08,.43-.19,.65-.42,.87-.91,1.56-1.31,2.24-1.31h.04c.7,.02,1.39,.46,2.25,1.44,1.15,.9,2.12,2.05,2.92,3.49,3.32,5.98,6.87,11.99,10.84,18.39,2,3.53,4.89,5.27,8.85,5.31,.37,0,.64-.07,.76-.22,.14-.17,.14-.48,.02-.98-2.13-8.79-4.3-15.89-6.83-22.36-.28-.73-.45-1.5-.61-2.25-.08-.35-.15-.7-.24-1.04l-.06-.24,.24-.05c.73-.15,.88,.33,.95,.56,.01,.04,.03,.09,.04,.12,.5,1.08,.98,2.18,1.47,3.31,2.72,6.26,7.08,11.15,12.98,14.52,1.8,1.03,3.77,1.5,5.48,1.85,.7,.14,1.14-.17,1.4-1,.17-.53,.14-1.11-.08-1.84-1.88-6.24-4.08-11.8-6.72-16.99-1.05-2.06-2.21-4.12-3.33-6.11-1.41-2.49-2.86-5.07-4.12-7.7-.05-.1-.1-.19-.15-.29-.22-.39-.5-.89-.21-1.51l.08-.17,.18,.03c.62,.11,.91,.55,1.15,.9,.06,.09,.12,.17,.18,.25,3.05,3.87,5.75,7,8.98,9.7,3.36,2.81,6.66,4.58,10.08,5.44,2.01,.5,3.91,.66,5.64,.48,.67-.07,1.15-.32,1.32-.68,.16-.33,.02-.66-.12-.88-.48-.77-.95-1.56-1.4-2.33-1.06-1.81-2.16-3.67-3.52-5.3-2.48-2.95-5.04-5.9-7.53-8.76l-2.02-2.33c-1.09-1.26-2.33-2.68-3.15-4.41l-.03-.05c-.23-.49-.5-1.04-.17-1.69l.06-.13h.14c.51-.02,.88,.25,1.21,.52,5.62,4.62,11.45,6.25,17.85,5,1.73-.34,3.57-.76,5.24-1.74,.52-.31,.87-.62,.9-1.11,.02-.28-.14-.36-.55-.49-.13-.04-.26-.08-.37-.14-.83-.42-1.69-.82-2.52-1.2-.73-.34-1.47-.68-2.2-1.04-1.45-.72-2.95-1.39-4.39-2.05-2.55-1.16-5.19-2.35-7.67-3.8-.07-.04-.15-.07-.22-.11-.34-.16-.9-.42-.69-1.06,.17-.53,.7-.45,1.01-.41,.1,.02,.2,.03,.29,.03,3.79-.11,6.82-.75,9.54-2,.87-.4,1.74-.84,2.58-1.27,2.45-1.24,4.98-2.53,7.85-2.98,1-.16,1.96-.83,2.63-1.84,.44-.67,.47-1.07,.09-1.37Z"/><path class="cls-2" d="M242.51,188.8c1.33-2.55,2.3-5.39,5.63-6.13,.81-.18,1.63-.31,2.4-.11,1.14,.29,2.24,.54,3.42,.27,.51-.11,.95,.17,1.23,.63,.46,.76,.92,1.52,1.38,2.28,.6,.53,.75,1.13,.5,1.93-.15,.47-.53,.99-.07,1.52,.46-.6,.87-1.24,1.38-1.79,2.16-2.36,2.33-5.14,1.3-7.89-.95-2.52-1.57-5.01-1.31-7.69-1.06-1.49-2.21-2.88-3.79-3.84-4.87-3.59-10.25-4.19-16.26-3.1-5.36,.97-10.59,2.29-15.63,4.36-.46,.35-.89,.73-1.37,1.06-1.78,1.22-5.05,2.12-5.97,.94-.46-.59-.86-1.23-1.29-1.84-2.05-2.07-3.35-4.62-4.69-7.18-8.01-15.27-15.07-30.95-20.72-47.27-1.25-3.63-3.13-6.95-6.23-9.4-2-1.13-2.45-3.16-4.09-4.73-3.65-3.48-8.28-6.6-11.76-10.25-.56-.64-1.1-1.31-1.68-1.92-3.87-4.08-7.3-8.5-10.39-13.2-3.62-5.51-7.35-10.95-11.3-16.24-2.15-2.88-4.12-5.88-6.42-8.65-.73-.88-1.67-1.57-2.78-1.18-1.1,.38-.29,1.43-.23,2.42,.15,2.75,1.37,5.22,2.54,7.57,3.83,7.72,14.17,20.04,14.17,20.04,1.45,1.33,1.46,2.71,.32,1.97-12.28-8.04-24.84-15.64-37.26-23.46-5.62-3.54-11.25-7.07-16.86-10.63-.94-.6-1.81-.68-2.78-.18,.08,.4,.16,.79,.45,1.1,4.06,4.47,7.78,9.3,13.09,12.47,.1-.08,.19-.16,.29-.24,.14,.04,.27,.08,.41,.12l-.03-.02c3.22,1.15,6.79,1.06,9.89,2.68,.64,.14,1.29,.27,2.09,.43-2.71,.88-5.39,1-8.07,1.33,.24,.58,.7,.71,1.05,.96,3.6,2.44,7.22,4.87,10.82,7.33,.33,.22,.81,.32,.93,.79,.32-.05,.27,.24,.36,.4,3.99,2.4,8.5,3.2,12.95,4.18,.59,.13,1.18,.27,2.11,.48-.88,.43-1.37,.11-1.85,.07-5.53-.51-10.71-2.13-15.54-4.87-8.02-4.55-16.59-7.95-24.94-11.82-6.47-3.01-12.99-5.9-19.49-8.86-1.24-.57-2.52-.93-3.89-.88,1.46,3.12,3.29,6.16,5.96,8.2,4.33,3.31,8.98,6.26,13.73,8.94,4.16,2.35,8.5,4.44,12.69,6.75,2.62,1.45,5.28,2.8,7.7,4.59,1.26,.24,2.52,.49,4.12,.8-2.6,.35-4.71-.35-6.83-.83-14.26-3.21-28.51-6.47-42.77-9.67-1.28-.29-2.63-.68-3.93,.07,.45,.98,.98,1.88,1.69,2.72,2.34,2.78,5.64,4,8.84,5.12,5.71,1.98,11.45,3.9,17.14,5.94,3.36,1.21,6.75,2.34,10.12,3.5,4.31,.46,8.63,.92,12.94,1.37-1.29,.28-2.56,.11-3.84,.04-4.21-.23-8.42-.4-12.64-.57-9.51-.4-19.01-.72-28.5-1.22-2.36-.12-4.65,.08-6.96,.37-1.18,.15-2.16,.58-2.43,1.9,.36,.17,.72,.35,1.09,.5,5.46,2.27,11.25,3.4,16.99,4.6,5.83,1.21,11.77,1.93,17.6,3.21,2.96-.04,5.87-.64,8.81-.85,1.64-.11,3.26-.55,5.23-.34-14.33,2.07-28.35,4.1-42.37,6.13-.84,.12-1.68,.25-2.52,.41-2.16,.4-2.62,.68-1.75,2.74,1.2,.18,2.26,.79,3.49,.92,3.21,.34,6.4,.84,9.6,1.18,3.47,.36,6.89,1.21,10.43,.85,3.4-.35,6.81-.3,10.21-.16,2.41,.3,4.81,.37,7.24,.01-1.33,.4-2.65,.72-3.86,1.38-.92,.5-1.16,1.01-.27,1.83,.66,.61,1.38,.9,2.24,1.09,3.56,.76,7.15,.43,10.73,.51,.76,.02,1.52,0,2.28,.1-3.55,.56-7.11,1.02-10.62,1.79-1.71,.37-3.4,.77-5.03,1.41-.29,.11-.59,.25-.82,.45-.33,.28-.84,.55-.71,1.06,.15,.58,.74,.55,1.23,.6,3.31,.35,6.58-.22,9.86-.49,2.58-.21,5.17-.4,7.76-.57,1.6-.11,3.21-.19,4.86-.08-1.98,.63-3.94,1.38-5.95,1.88-4.11,1.02-7.89,2.62-11.01,5.58-.29,.28-.74,.5-.52,.97,.2,.43,.61,.21,.95,.15,5.49-1.02,10.98-2.04,16.47-3.05,.37-.07,.77-.01,1.53-.01-2.36,1.63-4.7,2.51-6.89,3.69-2.11,1.13-4,2.55-5.54,4.4-.23,.28-.59,.66-.2,1.07,.34,.36,.68,.05,.98-.1,6.2-3.07,12.89-4.55,19.57-6.07,.95-.21,1.94-.21,2.91-.31,.11,.19,0,.26-.11,.3-6.3,2.42-11.71,6.35-17.17,10.19-2.67,1.88-5.29,3.86-7.59,6.2-.3,.3-.83,.57-.59,1.1,.24,.51,.83,.32,1.22,.25,1.91-.36,3.57-1.4,5.35-2.12,5.53-2.24,10.76-5.14,16.36-7.21,.48-.18,.97-.5,1.63-.28-.54,1.03-1.59,1.42-2.44,1.98-4.47,2.91-8.99,5.75-13.46,8.66-2.04,1.33-3.59,3.24-5.48,4.76-.3,.24-.53,.6-.45,1.13,2.97-.81,5.67-2.2,8.39-3.51,4.28-2.07,8.53-4.21,13.07-5.7,.93-.31,2.32-.92,2.72-.15,.43,.83-1.05,1.27-1.75,1.78-2.1,1.52-4.4,2.75-6.39,4.44h.01c1.13-.05,1.99-.76,2.94-1.24,1.85-.92,3.66-1.89,5.49-2.83,.39-.2,.88-.48,1.19,.03,.32,.53-.2,.78-.54,1.06-3.99,3.23-7.99,6.46-11.98,9.69-1.9,1.54-3.97,2.9-5.45,4.9,.02,.18,.05,.35,.07,.53,2.22,.19,3.71-1.44,5.48-2.31,2.93-1.45,5.71-3.19,8.6-4.73,1.47-.79,2.88-1.64,4.14-2.73,.17-.15,.34-.32,.54-.4,.34-.12,.76-.21,1,.1,.29,.36-.03,.67-.3,.91-1,.89-2.03,1.76-3.03,2.66-3.41,3.09-7.1,5.89-9.86,9.66-.41,.55-.54,1.22-.99,1.72,.02,.45,0,.92,.57,1.08,3.37-1.37,6.46-3.29,9.57-5.14,1.14-.68,2.29-1.36,3.62-1.85-1.14,1.26-2.25,2.55-3.42,3.78-1.69,1.78-3.56,3.39-4.5,5.79-.49,1.25-.79,2.46-.7,3.78,.34,.15,.68,.29,1.01,.43,5.21-2.76,10.68-5.01,15.74-8.12-1,2.05-2.41,3.76-3.8,5.45-2.05,2.49-3.56,5.27-4.9,8.16-.26,.56-.62,1.31,0,1.81,.64,.52,1.25,.01,1.83-.35,4.21-2.58,7.79-6.01,11.9-8.74,.34-.22,.68-.43,1.03-.63,.41-.24,.83-.38,1.24-.02,.4,.34,.12,.72,.1,1.11-.16,3.86-2.22,6.9-4.31,9.92-1.02,1.48-1.75,3.02-1.53,4.88,.07,.67,.62,.56,1.05,.65,.11-.38,.4-.6,.74-.73,2.88-1.09,4.49-3.64,6.48-5.73,1.22-1.27,2.33-2.52,4.18-2.93,.98-.22,1.86-.88,2.82-1.25,1.09-.43,1.46-.14,1.18,.99-.45,1.79-.96,3.64-2.01,5.11-2.9,4.06-5.07,8.56-7.79,12.72-1.27,1.16-2.39,2.41-4.4,2.43-1.31-.29-2.57-.65-3.89-.86-7.8-1.23-15.38-2.41-23.14-3.89-3.42-.65-6.99-1.04-10.51-.76-1.16,.09-2.28,.31-3.28,.94-1.35,.31-2.63,.73-3.47,1.93,1.69,4.23,2.38,4.61,6.49,5.09,4.49,.51,9.02,.65,13.53,.89,3.24,.18,6.45,.87,9.72,1.54-1.61,.45-3.2,.92-4.81,1.34-4.02,1.04-8.03,2.22-12.16,2.77-2.69,.36-5.42,.73-8.15,.36-.27-.04-.55-.19-.74,.07-.16,.23-.11,.53,.02,.77,.18,.33,.48,.34,.82,.28,3.24-.57,6.52-.53,9.79-.43,3.8,.12,7.59,.35,11.34,1.06,.53,.1,1.22,.17,1.26,.79,.04,.67-.71,.68-1.2,.85-2.54,.9-5.29,1.03-7.81,1.9-3.84,1.33-7.76,2.47-11.41,4.29-.34,.64,.27,.62,.58,.82,3.9-1.56,8.08-1.8,12.15-2.58,.27-.05,.53-.13,.79-.12,3.86,.11,7.71-.56,11.56-.24,2.93,.24,5.89,.43,8.68,1.52,.39,.15,.81,.29,.94,.69,.17,.54-.43,.61-.7,.84-1.89,1.62-4.38,1.72-6.6,2.48-4.6,1.58-9.43,1.93-14.21,2.55-3.54,.46-7.06,1.07-10.63,1.35,.16,.67,.66,.81,1.24,.81,6.21-.72,12.41-1.62,18.64-2.13,6.3-.51,12.38-1.81,18.33-3.86,1.19-.41,2.44-.59,3.7-.5,.75,.05,1.52,.31,1.64,1.12,.11,.75-.66,1-1.22,1.25-4.02,1.81-8.31,2.81-12.54,3.96-4.13,1.12-7.96,3.01-11.89,4.64-1.41,.59-2.76,1.29-4.15,1.92-.61,.28-1.08,.64-1.19,1.34,.09,.03,.19,.05,.29,.08,2.18-.37,4.22-1.25,6.21-2.12,6.18-2.71,12.72-3.89,19.31-4.93,3.17-.5,6.34-1.07,9.52-1.52,1.33-.19,2.69-.21,4.02,.04,1.26,.23,1.38,.57,.49,1.48-1.53,1.58-3.16,3.05-5.02,4.24-3.73,2.39-7.28,5.13-11.4,6.83-3.47,1.43-7.07,2.55-10.95,1.92-.58-.09-1.17-.07-1.7,.27-.32,.5-.3,.83,.31,1.15,.92,.48,1.85,.86,2.86,1.05,1.82,.06,3.62,.14,5.46,.04,3.48-.19,6.59-1.6,9.9-2.34,2.52-.57,4.44-2.25,6.58-3.52,6.47-3.83,12.72-8.01,19.06-12.06,.22-.14,.48-.22,.73-.34,1.29,.05,2.44-.57,3.67-.81,1.09-.71,1.55-.43,1.78,.87,.24,1.34,.28,2.67,.34,4.01,.04,.79,.34,1.22,1.12,1.41,4.09,1.03,8.21,.51,12.31,.18,1.13-.09,2.34-.53,3.35-1.23,.08-.05,.16-.09,.23-.14h.24v-.14c.38-.22,.77-.45,1.15-.67,2.66-.68,5.19-1.97,8.06-1.67,.23,.03,.57-.1,.73-.28,.84-.9,1.85-.75,2.88-.53,.78,.17,1.59,.19,2.11-.43,.6-.71-.14-1.42-.32-2.1-.09-.34-.6-.6-.97-.82-.44-.26-.83-.52-.89-1.07-.15-.02-.3-.04-.45-.06-1.27,.83-2.43,.17-3.61-.26-.07-.02-.14-.02-.2,.01-1.21-.89-2.38-.76-3.7-.14-.83,.4-1.61,.92-2.49,1.22-1.01-.67-1.54-1.51-1.52-2.74,.85,.87,2.99,1.31,3.64,1,1.32-.62,2.5-.75,3.7,.14,.07-.03,.14-.03,.2-.01,1.9-.83,2.8-.76,3.61,.26,.15,.02,.3,.04,.45,.06,1.61-1.22,2.83-2.82,4.12-4.35,.8-2.63,1.33-5.36,3.28-7.5,1.2-1.32,5.17-6.25,5.8-7.14,2.87-4.06,5.85-8.04,8.79-12.06Zm8.3-14.49c-.55-.08-.78,.44-1.18,.73-1.76,1.29-3.96,.86-4.45-1.16-.39-1.6-1.14-2.21-2.53-2.16,3.32-1.25,5.95,0,8.15,2.59Zm-11.4,10.63c.4-.38,.98-.9,1.59-.75-.35,.36-.47,.94-.66,1.37-.55,1.46-1.96,3.37-3.77,2.89,1.22-1.04,1.72-2.41,2.84-3.52Zm-5.88-1.56c.7-.55,1.54-1.09,2.48-1.14-.69,.6-1.15,1.26-1.68,1.92-1.31,1.71-2.6,3.56-4.47,4.74-.41,.2-.89,.48-1.37,.31,.43-.16,.65-.53,.91-.84,1.25-1.76,2.4-3.62,4.13-5Zm-4,10.23c-1.17,.79-2.9,1.59-3.65,2.89-.1-3.8,4.85-4.23,6.45-7.02,.32,1.82-1.48,3.26-2.8,4.13Zm-6.14-12.18c-.16-.11-.33-.28-.34-.48,.3,.19,.63,.09,.96,.07,2.32-.4,4.56-.59,6.9-.98-1.46,2.09-5.37,2.63-7.52,1.39Zm-2.31-5.34c1.33-.19,3.06-.05,4.39-.03,.71,0,1.41-.01,2.21-.07-1.09,1.18-2.87,1.48-4.38,1.45-1.43,.1-3-.7-4.3-.2,.25-.82,1.34-1.04,2.08-1.15Zm-.64,9.46c2.91-.75,5.82-.71,8.66-1.69-2.28,2-5.53,2.32-8.32,3.08-2.87,.66-5.47,1.68-8.02,3.2,1.83-2.44,4.77-3.88,7.68-4.59Zm-3.05,14.53c-2.74,2.39-6.56,3.44-8.45,6.68-.05-1.31,.78-2.52,1.65-3.43,2.56-2.81,6.41-3.69,9.1-6.25-.27,1.27-1.36,2.21-2.31,2.99Zm11.2-.38c-2.27,1.73-4.95,2.45-7.68,2.72-.48,.18-.99,.25-1.54,.12,0,0-.01,0-.02,0,0,0,0,0-.01,0,0,0,0,0,0,0-.13-.04-.2-.1-.32,.06-.11-.21,.1-.42,.28-.49,.4-.2,.72-.42,1.03-.72,1.06-.96,2.13-2.11,3.39-2.9,.27-.16,.64-.38,.99-.26-.5,.38-.62,1.02-.99,1.52-.33,.5-.73,1.05-1.19,1.55,1.47-.6,2.92-1.23,4.29-2.01,2.48-1.98,5.12-3.68,7.87-5.22,.33-.22,.71-.38,.95-.68-.76,1.4-2.21,2.35-3.37,3.41-1.21,1.02-2.5,1.96-3.67,2.94Z"/></g><g><polygon class="cls-3" points="330.87 255.47 333.36 255.47 333.36 241.94 335.95 241.94 335.95 239.69 328.29 239.69 328.29 241.94 330.87 241.94 330.87 255.47"/><path class="cls-3" d="M344.02,249.04h.86c1.13,0,1.62,.54,1.62,2.01v2.48c0,1.28,.09,1.53,.22,1.94h2.53c-.25-.59-.27-1.15-.27-1.91v-2.43c0-1.64-.41-2.82-1.65-3.34v-.05c1.11-.52,1.62-1.55,1.62-3.18v-1.24c0-2.43-1.1-3.63-3.68-3.63h-3.74v15.78h2.48v-6.43h0Zm0-7.11h1.2c.88,0,1.26,.49,1.26,1.62v1.55c0,1.26-.56,1.67-1.49,1.67h-.97v-4.85h0Z"/><polygon class="cls-3" points="361.88 253.21 357.6 253.21 357.6 248.59 361 248.59 361 246.34 357.6 246.34 357.6 241.94 361.88 241.94 361.88 239.69 355.12 239.69 355.12 255.47 361.88 255.47 361.88 253.21"/><polygon class="cls-3" points="310.13 253.21 305.85 253.21 305.85 248.59 309.25 248.59 309.25 246.34 305.85 246.34 305.85 241.94 310.13 241.94 310.13 239.69 303.37 239.69 303.37 255.47 310.13 255.47 310.13 253.21"/><polygon class="cls-3" points="278.56 255.47 281.04 255.47 281.04 241.94 283.64 241.94 283.64 239.69 275.97 239.69 275.97 241.94 278.56 241.94 278.56 255.47"/><polygon class="cls-3" points="291.71 248.71 294.53 248.71 294.53 255.47 297.05 255.47 297.05 239.69 294.53 239.69 294.53 246.45 291.71 246.45 291.71 239.69 289.23 239.69 289.23 255.47 291.71 255.47 291.71 248.71"/><path class="cls-3" d="M318.23,252.61h3.04l.43,2.87h2.5l-2.53-15.78h-3.63l-2.52,15.78h2.28l.43-2.87h0Zm1.49-10.12h.05l1.17,7.98h-2.39l1.18-7.98Z"/><path class="cls-3" d="M232.47,242.42c.9-25.02-16.04-38.37-36.58-38.37-4.5,0-9.17,.64-13.87,1.94-13.27,3.67-23.64,12.09-30.7,25.52-5.23,9.94-7.77,21.52-7.58,34.41,.14,9.25,1.85,17.11,5.23,24.02,3.36,6.88,8.54,11.81,14.56,13.88,2.12,.73,4.28,1.09,6.45,1.09,3.13,0,6.27-.75,9.3-2.24,5.61-2.75,10.06-7.72,13.63-15.22,4.35-9.14,6.46-19.92,6.47-32.98,.03-5.26-.24-9.85-.83-14.06-.61-4.3-1.32-8.46-3.35-12.15-.68-1.23-2.22-4.03-4.96-4.03-.11,0-.23,0-.34,.02-4.52,.38-8.27,2.37-11.15,5.92-1,1.23-1.45,2.64-1.36,4.28,.16,2.93,.9,5.66,1.61,7.93,2.84,9.18,4.05,18.85,3.68,29.58-.17,5.05-.88,8.93-2.24,12.19-2.06,4.97-5.06,8.18-8.47,9.07-.65,.17-1.32,.25-2,.25-2.38,0-4.91-1.02-7.44-3.03-3.67-2.9-6.2-7.24-7.76-13.28-2.43-9.4-2.11-19.47,.98-30.77,4.88-17.85,17.42-28.82,32.16-28.82,1.81,0,3.66,.17,5.53,.5,12.5,2.28,21.02,14.79,20.26,29.76-.23,4.55-3.98,12.06-9.09,12.99-.56,.1-2.37,.66-2.06,3.58,.34,3.23,2.09,4.54,3.49,5.08,1.02,.39,2.06,.59,3.11,.59,.38,0,.76-.03,1.14-.08,3.77-.53,7.28-2.09,10.43-4.65,7.39-6.03,11.4-13.73,11.73-22.93h-.01Z"/><path class="cls-3" d="M366.18,285.83c-.17-.06-.33-.08-.47-.08-.92,0-1.38,1.02-1.7,1.74-.07,.16-5.14,9.12-11.96,9.12-.78,0-1.58-.12-2.4-.38-2.79-.89-4.8-3.48-5.58-6.87-.72-3.07-.64-6.39,.24-10.45,.5-2.31,1.23-4.71,3.11-6.53,.74-.72,1.55-1.1,2.32-1.1,.12,0,.24,.01,.36,.03,.87,.14,1.62,.77,2.16,1.83,1.17,2.25,1.29,4.69,1.32,7.21,.01,.94-.16,1.53-.52,1.88-.3,.28-.76,.42-1.44,.42-.16,0-.33,0-.52-.02-1.51-.12-2.83-.28-4.06-.46-.23-.04-.44-.05-.64-.05-1.13,0-1.9,.55-2.33,1.65-.62,1.6,.56,2.23,1.41,2.7,2.82,1.52,5.96,2.29,9.38,2.29,.2,0,.4,0,.59,0,2.62-.07,4.61-1.27,5.91-3.57,2.53-4.47,1.08-12.42-2.87-15.76-2.48-2.1-5.74-3.16-9.05-3.16-3,0-6.04,.87-8.56,2.64-4.94,3.45-7.88,8.15-8.99,14.39-.54,3.05-.39,4.89-.31,5.87,.03,.32,.06,.66,.03,.72l-.12,.17c-1.25,1.67-2.43,3.24-4.38,3.97-.36,.14-.67,.2-.92,.2-.18,0-.34-.04-.48-.1-.32-.17-.55-.55-.72-1.18-.34-1.29-.43-2.7-.28-4.3,.32-3.36,.28-6.67,.19-9.75-.09-3.01-.59-5.57-1.53-7.82-1.03-2.46-2.82-4.21-5.04-4.89-.7-.22-1.42-.33-2.16-.33-1.6,0-3.24,.51-4.78,1.5-1.83,1.18-4.44,3.82-5.95,6.38-.7-4.12-3.1-6.97-6.46-7.66-.62-.12-1.23-.19-1.83-.19-2.36,0-4.57,.98-6.71,2.97-.97,.9-1.74,1.98-2.55,3.13-.19,.26-.37,.53-.57,.8,.01-.22,.02-.44,.03-.66,.06-1.15,.11-2.17,.19-3.18,.14-1.81-.38-3.3-1.47-4.2-.7-.58-1.61-.87-2.63-.87-.55,0-1.12,.08-1.72,.25-4.13,1.16-6.39,4.05-6.54,8.34-.12,3.49-.19,7.04-.26,10.47-.03,1.62-.06,3.23-.1,4.85v.35c0,.46,.01,.85-.24,1.21-1.15,1.6-2.41,3.27-4.16,4.45-.61,.41-1.21,.62-1.75,.62-.23,0-.45-.04-.66-.12-.67-.27-1.17-.98-1.4-2.01-.53-2.37-.6-4.85-.6-6.96,0-14.01,.57-28.92,1.84-48.34,.03-.48,.07-.97,.1-1.45,.16-2.13,.33-4.33,0-6.5-.33-2.23-1.82-3.57-3.84-3.57-.22,0-.45,.02-.69,.05-1.76,.24-3.28,.67-4.66,1.29-2.27,1.02-3.6,2.87-3.97,5.48-.2,1.39-.3,2.91-.32,4.8l-.04,3.36c-.13,11.18-.43,37.37-.13,44.66,.06,1.55,.12,3.01-.83,4.27-.22,.29-.43,.58-.64,.87-1.06,1.45-2.06,2.81-3.6,3.67-.32,.17-.61,.25-.88,.25-.2,0-.4-.05-.57-.15-1.13-.65-1.54-3.24-1.61-4.67-.17-3.73-.02-7.52,.13-11.18,.07-1.77,.15-3.61,.18-5.42,.05-2.66-.37-4.18-1.38-4.93-.49-.37-1.12-.56-1.94-.56-.86,0-1.93,.21-3.27,.63-.87,.27-1.63,.48-2.37,.48s-1.45-.22-2.18-.81c-.7-.57-1.73-.78-2.45-.89-.8-.12-1.59-.19-2.37-.19-4.33,0-8.22,1.96-11.58,5.85-4.09,4.74-5.91,10.52-5.41,17.19,.39,5.14,2.59,9.16,6.56,11.94,2.67,1.87,5.45,2.81,8.18,2.81,2.87,0,5.67-1.03,8.21-3.1,.26-.21,.38-.24,.42-.24h.02c.06,.01,.19,.21,.27,.34l.11,.17c1.21,1.79,2.79,2.67,4.78,2.67,.44,0,.89-.04,1.37-.12,2.96-.52,5.46-1.98,8.12-4.73,1.34-1.39,2.31-3,3.35-4.7,.07-.11,.14-.22,.2-.33,.4,2.2,.82,4.27,1.89,6.17,1.36,2.39,3.26,3.55,5.8,3.55h.07c2.71-.02,5.19-.97,8.03-3.06,1.38-1.02,2.48-2.3,3.64-3.66,.18-.21,.36-.43,.55-.64,.2,1.96,.53,3.51,1.05,4.94,.76,2.13,2.03,2.59,2.96,2.61,.17,0,.34,0,.5,0,2.61,0,4.27-.46,5.31-1.48,.98-.96,1.44-2.41,1.45-4.58,.02-4.27,.23-8.02,.68-11.45,.36-2.81,.92-5.78,2.52-8.45,.71-1.19,1.54-1.75,2.6-1.75,.08,0,.16,0,.24,.01,2.32,.18,2.1,9.8,1.99,14.42-.02,.95-.04,1.8-.05,2.51,0,.51-.01,1.02-.02,1.53-.04,1.99-.07,4.05,.26,6.08,.13,.81,.45,1.97,1.72,2.62,.71,.37,1.71,.54,2.77,.54,1.86,0,3.91-.52,4.97-1.42,.88-.75,1.35-1.74,1.49-3.11,.19-1.84,.21-3.7,.24-5.5,.02-1.02,.03-2.05,.07-3.07,.14-3.36,.43-6.94,1.59-10.42,.45-1.35,1.03-2.72,2.25-3.66,.35-.16,.66-.24,.94-.24,.25,0,.48,.07,.69,.2,1.94,1.28,1.65,8.01,1.5,11.63-.04,.88-.07,1.64-.07,2.17,.02,2.97,.34,5.38,1.03,7.57,1.18,3.73,3.49,5.65,6.75,5.65,.74,0,1.53-.1,2.36-.3,5.93-1.4,8.8-5.82,10.53-8.64l.03,.04c.2,.32,.36,.6,.54,.87,3.27,5.18,9.22,8.3,15.05,8.3,.72,0,1.43-.05,2.14-.14,12.22-1.65,15.71-15.17,15.76-15.32,.27-.96,.67-2.41-.75-2.9v-.03Zm-132.56,10.77c-.4,.3-.89,.44-1.46,.44-.38,0-.81-.07-1.25-.2-1.9-.58-3.22-1.97-4.18-4.36-1.39-3.5-1.75-7.42-.77-12.25,1.63-8.02,4.79-8.78,5.89-8.78,.21,0,.34,.03,.37,.04,.59,.19,1.08,.67,1.41,1.39,.49,1.04,.73,2.16,.73,3.35,0,1.62,.3,16.41,.3,17.76,0,1.2-.35,2.11-1.04,2.61h0Z"/></g></svg>