<?xml version="1.0" encoding="utf-8"?>
<!-- Generator: Adobe Illustrator 26.4.1, SVG Export Plug-In . SVG Version: 6.00 Build 0)  -->
<svg version="1.1" id="Layer_1" xmlns="http://www.w3.org/2000/svg" xmlns:xlink="http://www.w3.org/1999/xlink" x="0px" y="0px"
	 viewBox="0 0 612 792" style="enable-background:new 0 0 612 792;" xml:space="preserve">
<style type="text/css">
	.st0{fill:#DF6126;}
	.st1{fill:#3C180E;}
	.st2{fill:#AC9C9B;}
	.st3{fill:#F8A22B;}
	.st4{fill:#FFFFFF;}
	.st5{fill:#778184;}
	.st6{fill:#E82425;}
</style>
<g>
	<g>
		<path class="st0" d="M146.7,302c-0.7-0.2-0.7-0.8-0.7-1.3c0.6-0.6,0.7-1.5,1.2-2.2c3.5-4.7,8.1-8.2,12.4-12.1
			c1.2-1.1,2.5-2.2,3.8-3.3c0.3-0.3,0.7-0.7,0.4-1.1c-0.3-0.4-0.8-0.3-1.3-0.1c-0.3,0.1-0.5,0.3-0.7,0.5c-1.6,1.4-3.3,2.4-5.2,3.4
			c-3.6,1.9-7.1,4.1-10.8,5.9c-2.2,1.1-4.1,3.1-6.9,2.9c0-0.2-0.1-0.4-0.1-0.7c1.9-2.5,4.5-4.2,6.8-6.2c5-4.1,10-8.1,15-12.2
			c0.4-0.3,1.1-0.7,0.7-1.3c-0.4-0.6-1-0.3-1.5,0c-2.3,1.2-4.6,2.4-6.9,3.6c-1.2,0.6-2.3,1.5-3.7,1.6l0,0c2.5-2.1,5.4-3.7,8-5.6
			c0.9-0.6,2.7-1.2,2.2-2.2c-0.5-1-2.2-0.2-3.4,0.2c-5.7,1.9-11,4.6-16.4,7.2c-3.4,1.6-6.8,3.4-10.5,4.4c-0.1-0.7,0.2-1.1,0.6-1.4
			c2.4-1.9,4.3-4.3,6.9-6c5.6-3.7,11.3-7.2,16.9-10.9c1.1-0.7,2.4-1.2,3.1-2.5c-0.8-0.3-1.4,0.1-2,0.3c-7,2.6-13.6,6.2-20.5,9
			c-2.2,0.9-4.3,2.2-6.7,2.7c-0.5,0.1-1.2,0.3-1.5-0.3c-0.3-0.7,0.4-1,0.7-1.4c2.9-2.9,6.2-5.4,9.5-7.8c6.8-4.8,13.6-9.7,21.5-12.8
			c0.1-0.1,0.3-0.1,0.1-0.4c-1.2,0.1-2.5,0.1-3.6,0.4c-8.4,1.9-16.8,3.8-24.5,7.6c-0.4,0.2-0.8,0.6-1.2,0.1c-0.5-0.5,0-1,0.3-1.3
			c1.9-2.3,4.3-4.1,6.9-5.5c2.7-1.5,5.7-2.6,8.6-4.6c-1,0-1.5-0.1-1.9,0c-6.9,1.3-13.8,2.5-20.7,3.8c-0.4,0.1-0.9,0.4-1.2-0.2
			c-0.3-0.6,0.3-0.9,0.6-1.2c3.9-3.7,8.7-5.7,13.8-7c2.5-0.6,5-1.6,7.5-2.4c-2.1-0.1-4.1,0-6.1,0.1c-3.2,0.2-6.5,0.5-9.7,0.7
			c-4.1,0.3-8.2,1.1-12.4,0.6c-0.6-0.1-1.4,0-1.5-0.8c-0.2-0.6,0.5-1,0.9-1.3c0.3-0.2,0.7-0.4,1-0.6c2-0.8,4.2-1.3,6.3-1.8
			c4.4-1,8.9-1.6,13.3-2.3c-1-0.1-1.9-0.1-2.9-0.1c-4.5-0.1-9,0.3-13.5-0.6c-1.1-0.2-2-0.6-2.8-1.4c-1.1-1-0.8-1.7,0.3-2.3
			c1.5-0.8,3.2-1.2,4.8-1.7c-3,0.4-6.1,0.4-9.1,0c-4.3-0.2-8.6-0.2-12.8,0.2c-4.4,0.5-8.7-0.6-13.1-1.1c-4-0.4-8-1.1-12-1.5
			c-1.5-0.2-2.9-0.9-4.4-1.2c-1.1-2.6-0.5-2.9,2.2-3.4c1.1-0.2,2.1-0.4,3.2-0.5c17.6-2.5,35.2-5.1,53.2-7.7
			c-2.5-0.3-4.5,0.3-6.6,0.4c-3.7,0.3-7.3,1-11.1,1.1c-7.3-1.6-14.8-2.5-22.1-4c-7.2-1.5-14.5-2.9-21.3-5.8
			c-0.5-0.2-0.9-0.4-1.4-0.6c0.3-1.7,1.6-2.2,3.1-2.4c2.9-0.4,5.8-0.6,8.7-0.5c11.9,0.6,23.8,1,35.8,1.5c5.3,0.2,10.6,0.4,15.9,0.7
			c1.6,0.1,3.2,0.3,4.8,0c-5.4-0.6-10.8-1.1-16.2-1.7c-4.2-1.5-8.5-2.9-12.7-4.4c-7.1-2.6-14.3-5-21.5-7.5c-4-1.4-8.2-2.9-11.1-6.4
			c-0.9-1.1-1.6-2.2-2.1-3.4c1.6-0.9,3.3-0.5,4.9-0.1c17.9,4,35.8,8.1,53.7,12.1c2.7,0.6,5.3,1.5,8.6,1c-2-0.4-3.6-0.7-5.2-1
			c-3-2.2-6.4-3.9-9.7-5.8c-5.3-2.9-10.7-5.5-15.9-8.5c-6-3.4-11.8-7.1-17.2-11.2c-3.3-2.6-5.6-6.4-7.5-10.3
			c1.7-0.1,3.3,0.4,4.9,1.1c8.1,3.7,16.3,7.3,24.5,11.1c10.5,4.9,21.2,9.1,31.3,14.8c6.1,3.4,12.6,5.5,19.5,6.1
			c0.6,0.1,1.2,0.5,2.3-0.1c-1.2-0.3-1.9-0.4-2.6-0.6c-5.6-1.2-11.2-2.2-16.2-5.2c-0.1-0.2,0-0.6-0.5-0.5l0,0.1
			c-0.1-0.7-0.8-0.8-1.2-1.1c-4.5-3.1-9.1-6.1-13.6-9.2c-0.4-0.3-1-0.5-1.3-1.2c3.4-0.4,6.7-0.6,10.1-1.7c-1-0.2-1.8-0.4-2.6-0.5
			c-3.9-2-8.4-1.9-12.4-3.4l0,0c-0.2-0.1-0.3-0.1-0.5-0.2c-0.1,0.1-0.2,0.2-0.4,0.3c-6.7-4-11.3-10-16.4-15.6
			c-0.4-0.4-0.5-0.9-0.6-1.4c1.2-0.6,2.3-0.5,3.5,0.2c7,4.5,14.1,8.9,21.1,13.3c15.6,9.8,31.2,19.6,46.7,29.4
			c0.4,0.3,0.8,0.8,1.6,0.3c-1.8-1.5-4-2.3-5.5-3.9c1.3,0.1,2.2,1.2,3.6,1.2c0,0,0,0,0,0c0,0.3,0.2,0.3,0.4,0.4
			c1.3,0.9,2.3,2.1,3.6,3c6.2,4.5,12.6,8.8,17.1,15.2c0.8,1.2,1.9,2.2,2.5,3.6c0.2,0.6,0.7,1.2,0.2,1.7c-0.5,0.5-1.1,0-1.6-0.1
			c-0.8-0.3-1.6-0.5-2.4-0.9c-2.6-1.4-2.7,2.4-4.7,2.2c-0.4,0-0.6,0.3-0.6,0.7c0,0.2,0,0.5,0,0.7c0.1,1.1-0.4,1.4-1.5,1.4
			c-1.5-0.1-2.9-0.3-4.4,0.2c-0.8,0.3-1.7,0.4-1.7,1.6c0,1.1,0.5,1.8,1.5,2.2c0.6,0.2,1.3,0.5,1.9,0.6c0.6,0.2,1,0.4,1,1.1
			c0,0.8-0.5,1.1-1.2,1.2c-0.3,0-0.7,0.1-1,0.1c-1,0-1.3,0.6-1.1,1.4c0.5,2,1.4,3.8,3.3,4.9c1,0.6,2,1.2,3,2c1.1,0.9,1,2.1-0.2,2.6
			c-0.8,0.3-1.9,0.6-1.7,1.8c0.2,1.1,1.3,1.3,2.3,1.2c1.4,0,2.8,0.3,4.1,0.7c1.1,0.4,1.9,1.2,1.9,2.3c0,1.1-0.8,1.5-1.7,1.9
			c-0.9,0.3-1.7,1-1.2,2c0.6,1.3-0.2,1.6-1.1,1.8c-2.7,0.7-5.5,1.3-8.2,1.9c-5.8,1.5-11.5,3.4-17.2,5.5c-1.8,0.7-3.5,1.4-4.9,2.6
			c-0.8,0.7-2.7,1.2-2,2.4c0.7,1.2,2.2,0.1,3.3-0.3c2.5-0.9,4.9-2.2,7.5-3.1c4.1-1.3,8.5-1.7,12.7-2.8c0.4-0.1,0.8-0.1,1.2,0
			c0.5,0.1,1,0.3,1.3,0.8c0.3,0.7-0.5,0.8-0.8,1.1c-0.6,0.7-1.4,1-2.2,1.3c-3.5,1.2-6.4,3.4-9.2,5.8c-0.4,0.3-1.1,0.7-0.7,1.3
			c0.3,0.6,1,0.2,1.5,0.2c2.2-0.3,4.1-1.5,6.1-2.4c1.1-0.5,2.2-1.1,3.5-1.3c0.7-0.1,1.5,0.1,1.8,0.7c0.4,0.7-0.2,1.3-0.8,1.6
			c-1.4,0.9-2.7,1.8-4.2,2.6c-1,0.6-1.9,1.5-1.5,2.5c0.4,1.1,1.8,0.6,2.7,0.3c2.5-0.8,5-1.3,7.6-1.5c0.8-0.1,2.1-0.4,2.4,0.6
			c0.3,1-0.5,2-1.4,2.7c-0.5,0.3-1,0.6-1.4,0.9c-0.4,0.3-0.8,0.6-1.1,1.1c-0.8,1.3-0.3,2.2,1.2,2.2c1.2,0,2.4,0,3.6-0.1
			c1.7-0.1,2.5,1,2.4,2.7c-0.1,1.4-1.1,2.1-2,2.8c-1,0.8-1.6,1.8-1.2,2.9c0.4,1.1,1.7,1.3,2.9,1.3c1.1-0.1,2.3,0,3.2,0.8
			c0.9,0.8,1.2,1.4,0,2.3c-0.8,0.6-1.7,1.1-2.2,2c-0.6,1-0.2,1.7,0.6,2.1c0.9,0.4,1.9,0.7,2.9,0.6c0.5-0.1,1-0.5,1.3,0.1
			c0.3,0.6-0.2,0.9-0.5,1.3c-1.6,2.3-2.9,4.7-4,7.2c-0.3,0.7-0.5,1.3,0,2.1c1.3,2.3,3,2.7,5.1,1.2c1.5-1.1,3-2.2,4.5-3.3
			c1-0.8,1.6-0.7,2,0.7c0.4,1.6-0.4,3-0.8,4.4c-0.7,2.7-1.9,4.9-5.1,5.2c-0.7,0.1-1.3,0.5-1.2,1.4c0.2,0.8,0.9,0.7,1.5,0.7
			c0.4,0,0.8-0.1,1.2-0.2c3.3-1,6.7-1.6,9.2-4.4c0.3-0.3,0.7-0.8,1.2-0.5c0.6,0.4,0,0.9-0.1,1.3c-0.6,1.8-2.2,3-2.9,4.7
			c-0.4,0.8-1.1,1.8-0.2,2.5c0.8,0.6,2,0.6,2.9-0.1c3.3-2.7,7.4-4.4,9.1-8.8c0.5-1.2,1.7-1.7,3-1.2c1.2,0.5,1.6,2,1.3,3
			c-1.2,3-2.1,6.2-4,8.9c-3.7,5.4-8.2,10.2-11.6,15.8c-2.3,3.8-5.5,6.2-10,7c-2.4,0.4-4.7,1.3-7,1.9c-0.8,0.2-1.6,0.4-2.5,0.4
			c-5-0.2-9.8-1.6-14.7-3c2.5,0,3.8-2,5.4-3.5c3.4-5.2,6.1-10.9,9.8-16c1.3-1.8,2-4.2,2.5-6.4c0.4-1.4-0.1-1.8-1.5-1.2
			c-1.2,0.5-2.3,1.3-3.5,1.6c-2.3,0.5-3.7,2.1-5.2,3.7c-2.5,2.6-4.5,5.8-8.1,7.2c-0.4,0.2-0.8,0.4-0.9,0.9c-0.5-0.1-1.2,0-1.3-0.8
			c-0.3-2.3,0.6-4.3,1.9-6.1c2.6-3.8,5.2-7.6,5.4-12.4c0-0.5,0.4-1-0.1-1.4c-0.5-0.4-1-0.3-1.6,0c-0.4,0.3-0.9,0.5-1.3,0.8
			c-5.1,3.4-9.6,7.7-14.9,11c-0.7,0.4-1.5,1.1-2.3,0.4c-0.8-0.6-0.3-1.6,0-2.3c1.7-3.6,3.6-7.1,6.1-10.2c1.7-2.1,3.5-4.3,4.8-6.8
			c-6.4,3.9-13.2,6.7-19.8,10.2c-0.4-0.2-0.8-0.4-1.3-0.5c-0.1-1.7,0.3-3.2,0.9-4.7c1.2-3,3.5-5,5.6-7.3c1.5-1.5,2.9-3.2,4.3-4.7
			c-1.7,0.6-3.1,1.5-4.5,2.3C154.8,297.8,150.9,300.3,146.7,302z"/>
		<path class="st1" d="M178.4,342c4.8,1.3,9.6,2.8,14.7,3c0.9,0,1.7-0.1,2.5-0.4c2.3-0.7,4.6-1.5,7-1.9c4.5-0.8,7.7-3.3,10-7
			c3.5-5.6,7.9-10.4,11.6-15.8c1.9-2.7,2.8-5.9,4-8.9c0.4-1,0-2.5-1.3-3c-1.2-0.5-2.5,0-3,1.2c-1.7,4.4-5.8,6.1-9.1,8.8
			c-0.8,0.7-2.1,0.7-2.9,0.1c-0.9-0.7-0.2-1.7,0.2-2.5c0.8-1.7,2.3-2.9,2.9-4.7c0.1-0.4,0.7-0.9,0.1-1.3c-0.5-0.3-0.9,0.1-1.2,0.5
			c-2.4,2.8-5.9,3.4-9.2,4.4c-0.4,0.1-0.8,0.2-1.2,0.2c-0.6,0.1-1.3,0.1-1.5-0.7c-0.2-0.9,0.5-1.3,1.2-1.4c3.2-0.3,4.4-2.5,5.1-5.2
			c0.3-1.5,1.2-2.8,0.8-4.4c-0.3-1.4-1-1.5-2-0.7c-1.5,1.1-3,2.2-4.5,3.3c-2.2,1.6-3.9,1.1-5.1-1.2c-0.4-0.8-0.3-1.4,0-2.1
			c1.1-2.5,2.4-5,4-7.2c0.3-0.4,0.8-0.8,0.5-1.3c-0.4-0.6-0.9-0.2-1.3-0.1c-1,0.1-2-0.1-2.9-0.6c-0.8-0.4-1.2-1.1-0.6-2.1
			c0.6-0.9,1.4-1.4,2.2-2c1.1-0.8,0.9-1.5,0-2.3c-1-0.8-2.1-0.9-3.2-0.8c-1.2,0.1-2.5-0.1-2.9-1.3c-0.3-1,0.2-2.1,1.2-2.9
			c0.9-0.7,1.9-1.3,2-2.8c0.1-1.7-0.8-2.7-2.4-2.7c-1.2,0.1-2.4,0.1-3.6,0.1c-1.5,0-2-0.9-1.2-2.2c0.3-0.4,0.6-0.8,1.1-1.1
			c0.5-0.3,1-0.6,1.4-0.9c0.9-0.6,1.7-1.6,1.4-2.7c-0.3-1-1.6-0.7-2.4-0.6c-2.6,0.3-5.1,0.7-7.6,1.5c-0.9,0.3-2.2,0.7-2.7-0.3
			c-0.4-1,0.5-1.9,1.5-2.5c1.4-0.8,2.8-1.7,4.2-2.6c0.6-0.4,1.2-1,0.8-1.6c-0.3-0.6-1.1-0.8-1.8-0.7c-1.2,0.2-2.3,0.8-3.5,1.3
			c-2,0.9-3.9,2.1-6.1,2.4c-0.5,0.1-1.2,0.4-1.5-0.2c-0.4-0.6,0.3-1,0.7-1.3c2.8-2.4,5.7-4.6,9.2-5.8c0.8-0.3,1.6-0.6,2.2-1.3
			c0.3-0.4,1.1-0.5,0.8-1.1c-0.2-0.5-0.7-0.6-1.3-0.8c-0.4-0.1-0.7-0.1-1.2,0c-4.2,1.1-8.5,1.4-12.7,2.8c-2.6,0.8-5,2.1-7.5,3.1
			c-1.1,0.4-2.6,1.6-3.3,0.3c-0.7-1.2,1.1-1.7,2-2.4c1.4-1.2,3.1-1.9,4.9-2.6c5.6-2.2,11.3-4.1,17.2-5.5c2.7-0.7,5.5-1.3,8.2-1.9
			c0.9-0.2,1.7-0.5,1.1-1.8c-0.5-1.1,0.3-1.7,1.2-2c0.9-0.3,1.7-0.8,1.7-1.9c0-1.2-0.8-2-1.9-2.3c-1.3-0.4-2.7-0.8-4.1-0.7
			c-1,0-2.1-0.1-2.3-1.2c-0.2-1.2,0.8-1.4,1.7-1.8c1.2-0.5,1.3-1.8,0.2-2.6c-0.9-0.7-2-1.3-3-2c-1.9-1.1-2.8-2.9-3.3-4.9
			c-0.2-0.9,0.1-1.4,1.1-1.4c0.3,0,0.7,0,1-0.1c0.7-0.1,1.2-0.4,1.2-1.2c0-0.7-0.4-1-1-1.1c-0.7-0.2-1.3-0.4-1.9-0.6
			c-1-0.4-1.5-1-1.5-2.2c0-1.2,0.9-1.3,1.7-1.6c1.4-0.5,2.9-0.3,4.4-0.2c1.1,0,1.6-0.3,1.5-1.4c0-0.2,0-0.5,0-0.7
			c0-0.4,0.2-0.7,0.6-0.7c2,0.1,2.1-3.6,4.7-2.2c0.7,0.4,1.6,0.6,2.4,0.9c0.5,0.2,1.1,0.7,1.6,0.1c0.5-0.6,0.1-1.2-0.2-1.7
			c-0.6-1.4-1.7-2.4-2.5-3.6c-4.5-6.4-10.9-10.7-17.1-15.2c-1.3-0.9-2.3-2.1-3.6-3c-0.1-0.1-0.3-0.2-0.4-0.4c0,0,0,0,0,0
			c-6.9-7.7-12.4-16.4-17.8-25.2c-1.7-2.8-3-6-3.2-9.5c-0.1-1.3-0.2-2.7,1.2-3.2c1.4-0.5,2.6,0.4,3.5,1.5c2.9,3.5,5.4,7.2,8,10.8
			c5,6.6,9.6,13.5,14.2,20.4c3.9,5.9,8.2,11.4,13,16.6c0.7,0.8,1.4,1.6,2.1,2.4c4.4,4.6,9.2,8.7,13.8,13c2.1,2,4.1,4,6.6,5.4
			c3.9,3.1,6.2,7.2,7.8,11.8c7.1,20.5,15.9,40.1,26,59.3c1.7,3.2,3.3,6.4,5.9,9c0.5,0.8,1,1.6,1.6,2.3c1.3,1.7,2.4,3.4,2.8,5.6
			c-1.1,0-1.8-0.8-2.7-1.3c-0.8-0.5-1.6-0.5-2.4-0.1c-1.8,1-3.3,2.4-3.1,4.5c0.2,2.2-0.8,2.9-2.6,3.3c-0.6,0.2-1.2,0.4-1.8,0.5
			c-3.4,0.4-5.5,2.2-6.2,5.6c-0.6,2.8-2.2,5.1-4.3,7.1c-3,2.9-5.8,6-8.4,9.2c-2,2.5-4.1,4.9-6.2,7.4c-0.4-0.8-0.6-1.6-0.5-2.4
			c0-0.5,0.6-1.2-0.3-1.4c-0.9-0.2-1.2,0.5-1.4,1.3c-0.4,1.4-0.6,2.8-1.6,4c-0.8-1.1-0.2-2.1,0-3c0.1-0.4,0.4-0.8-0.1-1.1
			c-0.4-0.2-0.7,0.2-0.9,0.5c-1.4,1.7-2.1,3.7-2.9,5.7c-0.4,1.1-0.8,2.1-1.2,3.2c-0.5-2.6-0.6-5,0.3-7.4c0.4-1.1,1.1-2.1,1.6-3.2
			c0.6-1.5,0.3-1.7-1.3-1.6c-3.8,0.2-7.3,1.6-10.6,3.1c-2.3,1.1-4.8,2.1-6.6,4c-1.8,1.9-1.6,3.5,0.7,4.6c2,1,4,1.8,6,2.7
			c0.9,0.4,1.2,0.8,0.2,1.4c-1.1,0.7-2.1,1.4-3.2,2.2c1,1.4,2.2,2,3.9,1.9c2.8-0.2,5.6-0.2,8.4-0.3c0.6,0,1.7-0.3,1.8,0.4
			c0.1,0.9-0.4,1.9-1.4,2.3c-0.4,0.2-0.8,0.3-1.3,0.5c-0.3,0.1-0.5,0.2-0.8,0.3c-0.2,0.1-0.6,0.1-0.5,0.6c2.7-0.7,5.8-0.2,7.9-2.8
			c1.7-2.3,3-4.8,3.5-7.6c0.7-3.5,1.3-6.7,4.6-8.9c2.5-1.7,6.5-1.6,8.4,0.8c1.3,1.7,2.2,3.7,2.2,5.9c0,0.5-0.1,1.2,0.5,1.5
			c1.5,0.6,1.7,2,2,3.3c0.6,2,1.9,2.8,3.9,3c1.7,0.2,2.6-1,4-1.8c0,2.1,0.1,3.9,0,5.7c-0.2,1.8,0.5,2.9,1.9,3.8
			c-1.8,1.4-3.5,3-4.3,5.3c-0.5,1.4-0.3,2.6,0.8,3.6c-1.3,0.9-2.8,1.4-4.2,1.5c-5.1,0.4-10.3,1.1-15.4-0.2c-1-0.2-1.4-0.8-1.4-1.8
			c-0.1-1.7-0.1-3.4-0.4-5c-0.3-1.6-0.9-2-2.2-1.1c-1.5,0.3-3,1.1-4.6,1c-2.3-0.5-4.7,0-7-0.6c-7.7-1.8-14.9-4.4-20-11.2
			c-3.5-4.7-7.3-5.5-12.7-3.5c-4.5,1.6-9,2.4-13.7,2.5c-1.9,0.1-3.6-0.5-5.4-1.1c-1-0.4-1.1-1.2-1.2-2c0-0.9,0.9-0.7,1.4-0.9
			c1.6-0.5,3.3-0.5,4.9-1.6c-1.9-0.2-3.6-0.2-5.1-1c-0.4-0.2-0.8-0.5-0.8-1c0.1-0.5,0.6-0.4,0.9-0.5c3.7-0.9,7.3-1.8,11-2.7
			c2.5-0.6,5.1-1.1,7.5-1.9c0.6-0.2,1.3-0.4,1.4-1.1c0-0.7-0.8-0.9-1.3-1.1c-1.3-0.4-2.7-0.7-4.1-1c-16.2-2.8-32.4-5.7-48.7-8.5
			c1.3-0.8,2.7-1.1,4.1-1.2c4.4-0.4,8.7,0.6,13,1.4c9.7,1.9,19.5,3.3,29.3,4.9C175.1,341.1,176.8,341.6,178.4,342z"/>
		<path class="st1" d="M396.3,296.5c2.7,0,5,0.7,7.4,2.2c3.2,2,7,2.7,10.8,2.9c5.6,0.3,11.3,0,16.9-0.9c3.2-0.5,5.9-2.2,8-4.6
			c1-1.2,2-2.5,3.3-3.4c0.6-0.4,1.3-1.1,2.1-0.4c1,0.8,0.3,1.7-0.2,2.4c-1.4,1.8-3.1,3.2-5.1,4.3c-7.1,3.8-14.7,5.8-22.6,7.1
			c-0.5,0.1-1.1,0-1.6,0.5c4.1,1,8.1,2.2,12.3,2.4c4.5,0.2,9,0.2,13.3-1.3c1.8-0.6,3.3-1.9,4.7-3.3c0.5-0.5,1.2-1.2,1.9-0.6
			c0.8,0.6,0.4,1.4,0,2.1c-0.8,1.3-2.1,2.2-3.5,2.5c-4.8,0.8-8.8,3.4-13,5.3c-3.9,1.8-7.9,2.4-12.1,2.5c-0.5,0-1.2-0.3-1.4,0.3
			c-0.2,0.7,0.6,0.9,1,1.1c4.9,2.8,10.1,4.9,15.2,7.4c2,1,4,1.8,5.9,2.8c0.5,0.2,1.4,0.2,1.3,1.1c0,0.8-0.6,1.3-1.3,1.6
			c-2.1,1.2-4.4,1.8-6.7,2.2c-8.6,1.7-16.1-0.9-22.7-6.4c-0.4-0.3-0.8-0.6-1.3-0.6c-0.4,0.7,0,1.3,0.2,1.9c1,2.1,2.4,3.8,3.9,5.5
			c4,4.6,8.1,9.3,12,14c2.5,2.9,4.2,6.4,6.2,9.6c0.7,1.2,0,2.2-1.7,2.4c-2.4,0.3-4.9,0-7.2-0.6c-4.8-1.2-9-3.7-12.8-6.9
			c-4.3-3.6-7.9-7.9-11.4-12.3c-0.4-0.5-0.7-1.2-1.5-1.3c-0.4,0.8,0.2,1.4,0.5,2c2.8,5.9,6.4,11.5,9.4,17.4
			c3.5,6.9,6.3,14.1,8.5,21.4c0.3,0.8,0.4,1.7,0.1,2.5c-0.3,1-0.9,1.7-2.1,1.5c-2.4-0.5-4.8-1.1-7-2.4c-7.6-4.3-13-10.5-16.5-18.4
			c-0.6-1.4-1.2-2.8-1.8-4.2c-0.1-0.3-0.1-0.9-0.9-0.7c0.3,1.4,0.5,2.8,1.1,4.1c3.6,9.2,6.3,18.6,8.6,28.2c0.3,1.1,0.2,1.9-1.3,1.9
			c-5.1-0.1-8.9-2.4-11.4-6.8c-0.5-3.8,0.5-7.4,1.4-11c0.6-2.5,0.6-4.7-0.4-7c-1.7-4.1-3.3-8.3-4.8-12.5c-0.9-2.5-0.4-4.5,1.8-5.7
			c2.7-1.5,3.7-3.9,4.3-6.7c0.5-2.4,0.5-4.8-0.3-7.1c-0.1-0.4-0.5-0.9,0-1.3c0.5-0.4,1-0.1,1.4,0.1c2.3,1.6,4.8,3,7.8,2.4
			c0.1,0,0.3,0.1,0.5,0.1c1.6,0.3,2.1-0.1,2-1.8c-0.1-2.5-1.1-4.7-1.7-7c-0.1-0.5-0.7-1-0.2-1.4c0.6-0.5,1,0.1,1.5,0.4
			c1.7,1,3.4,2,5.5,1.8c1.8-0.1,3-1.7,2.7-3.5c-0.1-0.7-0.3-1.4-0.4-2.2c-0.4-3.3,0.6-4.5,4-4.5c1.1,0,2.2,0,3.3-0.4
			c2.1-0.8,2.3-1.7,1-3.4c-1.4-1.8-2.8-3.5-3.8-5.6c-0.2-0.4-0.6-0.8-0.3-1.2c1.2-1.9-0.4-2.1-1.5-2.5c-3.5-1.6-7.3-2-10.9-3
			c-2.9-0.8-5.3,0-7.7,1.3c-1.4,0.8-2.5,1.9-3.6,3c-0.5,0.5-1.1,0.9-1.9,1c-2.4,0.4-4.8,0.9-6.4,2.9c-0.8,1-1.9,1.5-3.2,1.8
			c-1.1,0.3-2.3,0.5-2.9,1.6c-0.9,1.7-2.4,1.6-3.9,1.4c-0.6-0.1-1.1-0.2-1.7-0.3c-2.2-0.3-3.4,0.8-3.6,3c-0.2,2.5-0.2,5.1-0.5,7.6
			c-0.9,7.1-0.7,14.1,0.8,21.2c0.4,2.1,0.8,4.2,1.3,6.3c0.3,1.2-0.2,1.3-1.2,1.3c-1.5-0.1-2.4-1.1-3.2-2.2c-1.5-2-1.7-4.2-1.5-6.6
			c-1,3.9-2.4,7.6-4.3,11.1c-0.3,0.6-0.3,1.7-1.4,1.7c-1.2,0-1.3-1.1-1.7-1.9c-0.2-0.3-0.2-0.6-0.3-1c-0.6-3.3-0.8-6.7-0.7-10.1
			c0.1-5.6,0.4-11.3,0.3-16.9c0-2.7-0.6-5.5-1-8.5c-1.2,1.3-1.9,2.6-3,3.4c-1.5,1.1-2.7,0.6-3-1.2c-0.1-0.6-0.1-1.4,0-2
			c0.3-1.5,0.7-3.1,1.1-4.6c0.2-0.8,0.4-1.6-0.4-2.1c-0.7-0.4-1.4-0.1-2,0.4c-0.8,0.5-1.3,1.4-1.9,2.2c-2.1,2.7-4,5.6-5.8,8.5
			c-0.3,0.5-0.6,1.4-1.4,0.9c-0.6-0.4-0.1-1,0.1-1.5c0.3-0.6,0.5-1.3,0.8-1.9c0.3-0.6,0-1-0.3-1.4c-0.4-0.5-0.9-0.5-1.4-0.3
			c-1.2,0.4-2.1,1.1-2.8,2.1c-2.1,2.8-4.4,5.6-7,8c-0.5,0.4-1.1,0.9-1.6,0.5c-0.6-0.5,0-1,0.3-1.5c0.8-1.4,1.6-2.8,2.4-4.3
			c0.2-0.4,0.6-0.8,0.2-1.2c-0.4-0.4-0.9-0.3-1.4-0.2c-2.4,0.4-4.1,1.6-5.4,3.6c-1.1,1.7-2.3,3.2-4.2,4.1c-0.6,0.3-0.8,0.2-0.8-0.5
			c0.6-0.8,1.1-1.6,1.7-2.2c2.7-3,2.9-6.4,1.6-9.9c-1.2-3.2-2-6.3-1.6-9.7c7.1-2.7,14.2-5.5,21.2-8.2c3.6-1.4,7.1-2.9,10.8-3.8
			c7.6-1.8,15.4-0.8,23-0.6C377,296.3,386.7,296.8,396.3,296.5z"/>
		<path class="st0" d="M310.6,330.3c0,0.7,0.2,0.7,0.8,0.5c1.9-0.9,3.1-2.4,4.2-4.1c1.3-2,3.1-3.2,5.4-3.6c0.5-0.1,1-0.3,1.4,0.2
			c0.4,0.4,0,0.9-0.2,1.2c-0.8,1.4-1.6,2.8-2.4,4.3c-0.2,0.5-0.8,1-0.3,1.5c0.6,0.4,1.2,0,1.6-0.5c2.6-2.4,4.9-5.1,7-8
			c0.7-1,1.6-1.7,2.8-2.1c0.5-0.2,1-0.2,1.4,0.3c0.3,0.4,0.5,0.8,0.3,1.4c-0.3,0.6-0.5,1.3-0.8,1.9c-0.2,0.5-0.7,1.2-0.1,1.5
			c0.8,0.5,1.1-0.4,1.4-0.9c1.8-2.9,3.8-5.8,5.8-8.5c0.6-0.8,1-1.6,1.9-2.2c0.7-0.4,1.4-0.8,2-0.4c0.8,0.5,0.6,1.3,0.4,2.1
			c-0.4,1.5-0.8,3-1.1,4.6c-0.1,0.6-0.2,1.4,0,2c0.3,1.8,1.5,2.3,3,1.2c1.1-0.8,1.9-2.1,3-3.4c0.4,3.1,0.9,5.8,1,8.5
			c0.1,5.6-0.2,11.3-0.3,16.9c-0.1,3.4,0.1,6.8,0.7,10.1c0.1,0.3,0.1,0.7,0.3,1c0.4,0.8,0.5,1.8,1.7,1.9c1.1,0,1.1-1,1.4-1.7
			c1.9-3.5,3.3-7.2,4.3-11.1c-0.2,2.4,0,4.6,1.5,6.6c0.8,1.1,1.7,2.1,3.2,2.2c1,0.1,1.5,0,1.2-1.3c-0.5-2.1-0.8-4.2-1.3-6.3
			c-1.5-7-1.6-14.1-0.8-21.2c0.3-2.5,0.4-5.1,0.5-7.6c0.1-2.2,1.3-3.2,3.6-3c0.6,0.1,1.1,0.2,1.7,0.3c1.5,0.2,3,0.3,3.9-1.4
			c0.6-1.1,1.8-1.3,2.9-1.6c1.3-0.3,2.3-0.9,3.2-1.8c1.7-2,4-2.6,6.4-2.9c0.8-0.1,1.4-0.4,1.9-1c1.1-1.1,2.2-2.3,3.6-3
			c2.4-1.3,4.9-2.1,7.7-1.3c3.6,1,7.4,1.5,10.9,3c1,0.5,2.7,0.7,1.5,2.5c-0.3,0.4,0.1,0.9,0.3,1.2c1,2.1,2.3,3.8,3.8,5.6
			c1.4,1.7,1.1,2.6-1,3.4c-1.1,0.4-2.2,0.4-3.3,0.4c-3.3,0-4.4,1.2-4,4.5c0.1,0.7,0.3,1.4,0.4,2.2c0.3,1.8-0.9,3.3-2.7,3.5
			c-2.1,0.2-3.8-0.8-5.5-1.8c-0.5-0.3-0.9-0.9-1.5-0.4c-0.5,0.4,0.1,0.9,0.2,1.4c0.7,2.3,1.6,4.6,1.7,7c0.1,1.6-0.4,2.1-2,1.8
			c-0.2,0-0.3-0.2-0.5-0.1c-3,0.5-5.4-0.8-7.8-2.4c-0.4-0.3-0.9-0.5-1.4-0.1c-0.5,0.4-0.1,0.9,0,1.3c0.9,2.4,0.9,4.7,0.3,7.1
			c-0.6,2.8-1.6,5.2-4.3,6.7c-2.1,1.2-2.7,3.2-1.8,5.7c1.5,4.2,3.1,8.4,4.8,12.5c1,2.4,1,4.6,0.4,7c-0.9,3.6-1.9,7.2-1.4,11
			c-4.7-7.6-9.3-15.3-13.7-23.2c-0.9-1.7-2.1-3.2-3.6-4.3c-2-2.2-3.2-2.3-5.3-0.2c-0.3,0.3-0.5,0.5-1,0.6c-2,0.6-2.9,0.3-4.1-1.8
			c-0.5-0.9-0.9-1.1-1.5-0.2c-0.7,1-1.4,1.9-2.2,2.8c-0.6,0.7-1.4,1.4-2.5,1.1c-1.1-0.2-1.2-1.1-1.5-2c-1-3-1.9-6-1.6-9.2
			c0.1-0.9-0.5-1.8-1.3-2.2c-0.8-0.3-1.3,0.6-1.7,1.1c-1.9,2.3-3.9,4.5-5.4,7.1c-0.3,0.5-0.7,0.9-1.4,0.7c-0.7-0.2-0.7-0.8-0.7-1.3
			c-0.1-1.8,0.2-3.6,0.5-5.4c0.6-3.5,1.4-6.9,1.5-10.5c0-0.6,0.4-1.4-0.4-1.6c-0.7-0.2-1.1,0.5-1.5,1c-2.8,3.7-5.7,7.4-8.1,11.4
			c-1.8,3.1-3.8,6.1-5.7,9.2c-0.4,0.7-0.9,0.8-1.5,0.6c-0.8-0.3-0.5-0.8-0.4-1.4c0.2-1,0-2,0.2-3c0.9-3.1,1.7-6.2,2.5-9.3
			c0.2-0.7,0.8-1.5,0-2c-0.7-0.5-1.1,0.5-1.6,0.9c-3.7,3.8-6.7,8.2-9.9,12.4c-1.6,2.1-3.1,4.3-5.1,6c-0.3,0.3-0.6,0.6-1,0.4
			c-0.4-0.2-0.3-0.7-0.2-1.1c0.1-0.4,0.3-0.9,0.4-1.3c1.5-4.5,3-9,5.2-13.2c0.2-0.3,0.5-0.7,0.2-1.1c-0.4-0.4-0.7,0.1-0.9,0.4
			c-4.3,4.3-8.8,8.2-13.3,12.2c-2.1,1.9-4.1,4.3-6.9,5.3c-0.5,0.2-0.9,0.7-1.4,0.2c-0.5-0.4-0.4-1-0.1-1.5c0.7-1.3,1.5-2.6,2.3-3.9
			c3.1-5,6.1-10,9.2-15c0.2-0.3,0.6-0.6,0.2-1c-0.4-0.4-0.8-0.4-1.2-0.2c-0.3,0.1-0.6,0.3-0.9,0.5c-4.5,3.5-9.2,6.8-13.9,10.1
			c-2.2,1.5-4.3,3.1-6.9,5c0.9-3,2.3-5.1,3.7-7.2c0.5-0.7,1-1.4,1.4-2.1c0.2-0.4,0.2-0.9-0.1-1.3c-0.4-0.5-0.8-0.2-1.2,0
			c-0.8,0.3-1.4,0.9-2.3,0.9c0.1-1.6,1.6-2.3,2.3-3.4c3.6-5.1,7.3-10.1,11-15.1c0.8,0.4,1.3-0.2,1.8-0.6c1.5-1.1,3-2.2,4.4-3.4
			c0.7-0.5,1.4-0.7,2.2-0.6c0.6,0,1.3,0.1,1.5,0.8c0.2,0.6-0.3,1-0.6,1.5c-1,1.2-2.1,2.2-3.5,2.9c-0.5,0.3-1.1,0.6-0.8,1.3
			c0.3,0.6,1,0.7,1.6,0.7c0.3,0,0.6-0.3,0.9-0.4c2-0.9,3.6-2.3,5-4c1.3-1.6,2.9-2.4,5-2c0.8,0.7,0.9,1.4,0.6,2.4
			C310.5,329,310,329.6,310.6,330.3z"/>
		<path class="st2" d="M292.4,329.8c-3.7,5-7.4,10-11,15.1c-0.8,1.1-2.2,1.8-2.3,3.4c0,0,0,0,0,0c-0.4-0.1-0.5,0.1-0.7,0.4
			c-1.4,1.7-2.8,3.5-4.3,5.1c-2.5,2.7-3.1,6.1-4.1,9.4c-1.6,1.9-3.1,3.9-5.2,5.5c-0.2,0-0.4,0-0.6-0.1c-1-1.3-2.1-1.4-4.5-0.3
			c-0.1,0-0.2,0-0.3,0c-1.5-1.1-3-1-4.6-0.2c-1,0.5-2,1.2-3.1,1.5c-1.4-0.9-2.1-2.1-1.9-3.8c0.2-1.8,0-3.7,0-5.7
			c-1.4,0.8-2.3,2-4,1.8c-2-0.2-3.3-0.9-3.9-3c-0.4-1.3-0.6-2.6-2-3.3c-0.6-0.3-0.5-1-0.5-1.5c-0.1-2.2-0.9-4.2-2.2-5.9
			c-1.9-2.4-5.9-2.5-8.4-0.8c-3.3,2.2-3.9,5.4-4.6,8.9c-0.6,2.7-1.8,5.3-3.5,7.6c-2,2.6-5.1,2.1-7.9,2.8c-0.1-0.6,0.3-0.5,0.5-0.6
			c0.2-0.1,0.5-0.2,0.8-0.3c0.4-0.2,0.8-0.3,1.3-0.5c1-0.5,1.5-1.5,1.4-2.3c-0.1-0.7-1.2-0.4-1.8-0.4c-2.8,0-5.6,0-8.4,0.3
			c-1.7,0.1-2.9-0.5-3.9-1.9c1.1-0.7,2.1-1.5,3.2-2.2c1-0.6,0.7-1-0.2-1.4c-2-0.9-4.1-1.7-6-2.7c-2.3-1.2-2.6-2.8-0.7-4.6
			c1.9-1.9,4.3-3,6.6-4c3.4-1.5,6.9-2.9,10.6-3.1c1.6-0.1,1.9,0.1,1.3,1.6c-0.4,1.1-1.2,2.1-1.6,3.2c-0.9,2.4-0.8,4.8-0.3,7.4
			c0.4-1.1,0.8-2.1,1.2-3.2c0.7-2,1.5-4,2.9-5.7c0.2-0.3,0.5-0.8,0.9-0.5c0.4,0.2,0.2,0.7,0.1,1.1c-0.3,0.9-0.8,1.9,0,3
			c1-1.2,1.2-2.6,1.6-4c0.2-0.8,0.5-1.5,1.4-1.3c0.9,0.2,0.4,0.9,0.3,1.4c0,0.8,0.1,1.5,0.5,2.4c2.1-2.5,4.2-5,6.2-7.4
			c2.6-3.2,5.4-6.4,8.4-9.2c2.1-2,3.7-4.3,4.3-7.1c0.8-3.4,2.8-5.2,6.2-5.6c0.6-0.1,1.2-0.3,1.8-0.5c1.7-0.4,2.8-1.1,2.6-3.3
			c-0.2-2.1,1.3-3.5,3.1-4.5c0.8-0.4,1.5-0.4,2.4,0.1c0.9,0.5,1.6,1.3,2.7,1.3c0,0,0,0,0,0c0,0.1,0.1,0.2,0.1,0.3
			c0.1-0.1,0.1-0.2,0.2-0.3c0.1-2.7,1.1-4.8,3.4-6.3c0.6-0.4,1.1-0.9,1.7-1.3c6.3-2.6,12.9-4.2,19.6-5.5c7.5-1.4,14.3,0.3,20.4,4.8
			c2,1.2,3.4,3,4.7,4.8c-0.3,3.4,0.5,6.5,1.6,9.7c1.3,3.5,1.1,6.9-1.6,9.9c-0.6,0.7-1.2,1.5-1.7,2.2c-0.6-0.7-0.1-1.3,0.1-1.9
			c0.3-1,0.1-1.8-0.6-2.4c-0.6-1-1.2-1.9-1.7-2.9c-0.4-0.6-0.9-0.9-1.5-0.8c-1.5,0.3-2.9,0-4.3-0.3c-1-0.2-2-0.1-3,0.1
			C295.3,323,294,326.6,292.4,329.8z M274.7,331.8c-0.1,0.1-0.1,0.1-0.2,0.2c0.1,0,0.1,0,0.2,0C274.6,331.9,274.6,331.8,274.7,331.8
			c0.1,0,0.2,0,0.2,0c0-0.1,0-0.1-0.1-0.2C274.8,331.6,274.7,331.7,274.7,331.8z M277.7,332.8c-0.1,0.1-0.2,0.2-0.3,0.3
			c-3.1,1.6-4.5,4.6-5.7,7.8c0.9,0,1.1-0.6,1.3-1.1c0.7-2.2,2.2-3.9,3.7-5.6c0.3-0.3,0.8-0.5,0.6-1.1
			C277.6,333.1,277.7,333,277.7,332.8c0.2,0,0.3,0,0.2-0.2C277.8,332.6,277.8,332.7,277.7,332.8z M269.2,345.3c0,0,0.1,0,0.1-0.1
			c0,0,0-0.1,0-0.1C269.3,345.2,269.3,345.2,269.2,345.3c-0.1,0.1-0.3,0.1-0.5,0.2c-2,1.3-3.3,3.4-5.6,4.3c0.7,0.4,1.1,0.1,1.6-0.1
			c2.3-1,4.7-1.9,7-2.9c2.2-0.9,4.4-1.8,6-3.5c1.8-1.9,3.9-3.3,5-5.8c0.3,0,0.3-0.1,0.3-0.3c0.1,0,0.1-0.1,0.2-0.1c0,0-0.1,0-0.1,0
			c0,0-0.1,0.1-0.1,0.1c-0.1,0.1-0.2,0.2-0.3,0.3c-2.6,2.6-5,5.3-8.3,7.1c-2.1,1.2-4.2,2.1-6.7,2.9c0.5-0.8,0.8-1.4,1.2-1.9
			C269,345.5,269.1,345.4,269.2,345.3z M260.5,348c-0.6-0.1-1,0-1,0.7c-2,0.5-3.5,2-5.2,2.9c-2.2,1.1-3.3,2.8-3.4,5.5
			c1.1-2.2,2.3-4.1,4.2-5.4c1.5-1,3.2-1.7,4.4-3C259.9,348.6,260.2,348.4,260.5,348c0.3,0,0.5-0.2,0.6-0.4c0,0-0.1-0.2-0.1-0.2
			C260.7,347.5,260.3,347.6,260.5,348z M262.8,346.3c-0.7-0.1-1,0.3-1.5,0.9C262.1,347.1,262.5,346.8,262.8,346.3
			c0-0.1,0.3-0.1,0.1-0.3C262.9,346.2,262.9,346.2,262.8,346.3z M288.9,325.7c-1.3,1.4-2.9,2.5-4,4.2
			C286.8,328.9,288.3,327.7,288.9,325.7c0.2,0,0.3,0,0.1-0.3C289,325.5,288.9,325.6,288.9,325.7z M274,326c-2.8,0.5-5.4,1.5-8,2.5
			C268.7,327.7,271.5,327.5,274,326c0.1-0.1,0.2-0.1,0.3-0.1c0,0-0.1-0.1-0.1-0.1C274.1,325.9,274,325.9,274,326z M276,320.9
			c-3.2,0.8-6.4,1.2-9.6,1.5c2.3,0.4,4.6,0.2,6.8-0.2C274.2,322,275.3,321.9,276,320.9c0,0,0.1-0.1,0.1-0.1c0,0,0.1-0.1,0.1-0.1
			C276.2,320.8,276.1,320.9,276,320.9z M282.1,323.6c-3,1.7-4.6,4.7-6.4,7.4c-0.1,0-0.2,0-0.3,0.1c0,0.1,0.1,0.1,0.1,0.2
			c0.1-0.1,0.1-0.2,0.2-0.2C278.4,329.1,280,326.2,282.1,323.6L282.1,323.6L282.1,323.6z M292.6,308.4c1.7-0.1,2.7,0.7,3.2,2.7
			c0.6,2.5,3.4,3.1,5.6,1.5c0.5-0.4,0.8-1,1.5-0.9C300,308.4,296.7,306.8,292.6,308.4z M264.7,329.1c-3.5,1.7-6.8,3.7-10.4,4.9
			C258.2,333.5,261.6,331.5,264.7,329.1z M270.7,316c-3.2,0.9-6.4,1.8-9.7,2.3C264.5,318.6,267.7,317.8,270.7,316z M265.5,328.9
			c0,0-0.1-0.1-0.1-0.1c0,0-0.1,0.1-0.1,0.1c0,0,0.1,0.1,0.1,0.1C265.4,329,265.4,328.9,265.5,328.9z"/>
		<path class="st0" d="M127,335.8c16.2,2.8,32.4,5.7,48.7,8.5c1.4,0.2,2.8,0.6,4.1,1c0.5,0.2,1.4,0.4,1.3,1.1c0,0.7-0.8,0.9-1.4,1.1
			c-2.5,0.8-5,1.3-7.5,1.9c-3.7,0.9-7.3,1.8-11,2.7c-0.4,0.1-0.9,0-0.9,0.5c0,0.5,0.4,0.8,0.8,1c1.5,0.8,3.2,0.8,5.1,1
			c-1.6,1.2-3.3,1.1-4.9,1.6c-0.5,0.2-1.4,0-1.4,0.9c0,0.8,0.1,1.7,1.2,2c1.7,0.6,3.4,1.2,5.4,1.1c4.7-0.2,9.2-0.9,13.7-2.5
			c5.5-2,9.3-1.1,12.7,3.5c5.1,6.8,12.2,9.4,20,11.2c2.3,0.5,4.7,0,7,0.6c-0.3,0.1-0.6,0.2-0.9,0.4c-8,5.1-15.8,10.3-23.9,15.1
			c-2.7,1.6-5.1,3.7-8.3,4.4c-4.1,0.9-8,2.7-12.4,2.9c-2.3,0.1-4.6,0-6.9-0.1c-1.3-0.2-2.4-0.7-3.6-1.3c-0.8-0.4-0.8-0.8-0.4-1.4
			c0.7-0.4,1.4-0.4,2.1-0.3c4.9,0.8,9.4-0.6,13.7-2.4c5.2-2.1,9.6-5.6,14.3-8.6c2.3-1.5,4.4-3.3,6.3-5.3c1.1-1.1,1-1.6-0.6-1.9
			c-1.7-0.3-3.4-0.3-5,0c-4,0.6-8,1.3-11.9,1.9c-8.3,1.3-16.5,2.8-24.2,6.2c-2.5,1.1-5.1,2.2-7.8,2.7c-0.1,0-0.2-0.1-0.4-0.1
			c0.1-0.9,0.7-1.3,1.5-1.7c1.7-0.8,3.4-1.7,5.2-2.4c4.9-2,9.7-4.4,14.9-5.8c5.3-1.4,10.7-2.7,15.7-5c0.7-0.3,1.7-0.6,1.5-1.6
			c-0.2-1-1.1-1.3-2.1-1.4c-1.6-0.1-3.2,0.1-4.6,0.6c-7.5,2.6-15.1,4.2-23,4.8c-7.8,0.6-15.6,1.8-23.4,2.7c-0.7,0-1.4-0.2-1.6-1
			c4.5-0.3,8.9-1.1,13.3-1.7c6-0.8,12.1-1.2,17.8-3.2c2.8-1,5.9-1.1,8.3-3.1c0.3-0.3,1.1-0.4,0.9-1.1c-0.2-0.5-0.7-0.7-1.2-0.9
			c-3.5-1.4-7.2-1.6-10.9-1.9c-4.8-0.4-9.7,0.4-14.5,0.3c-0.3,0-0.7,0.1-1,0.2c-5.1,1-10.3,1.3-15.2,3.2c-0.4-0.2-1.1-0.2-0.7-1
			c4.6-2.3,9.5-3.7,14.3-5.4c3.2-1.1,6.6-1.3,9.8-2.4c0.6-0.2,1.6-0.2,1.5-1.1c0-0.8-0.9-0.9-1.6-1c-4.7-0.9-9.5-1.2-14.2-1.3
			c-4.1-0.1-8.2-0.2-12.3,0.5c-0.4,0.1-0.8,0.1-1-0.4c-0.2-0.3-0.2-0.7,0-1c0.2-0.3,0.6-0.1,0.9-0.1c3.4,0.5,6.9,0,10.2-0.5
			c5.2-0.7,10.2-2.2,15.2-3.5c2-0.5,4-1.1,6-1.7c-4.1-0.9-8.1-1.7-12.2-1.9c-5.7-0.3-11.3-0.5-17-1.1c-5.2-0.6-6-1.1-8.1-6.4
			C123.7,336.7,125.3,336.2,127,335.8z"/>
		<path class="st3" d="M149.4,279.3c1.4-0.1,2.5-1,3.7-1.6c2.3-1.2,4.6-2.4,6.9-3.6c0.5-0.3,1.1-0.6,1.5,0c0.4,0.7-0.2,1-0.7,1.3
			c-5,4.1-10,8.1-15,12.2c-2.4,1.9-5,3.6-6.8,6.2c-0.6-1.8-1.8-2.7-3.7-2.7c-1.7-0.1-3.4,0.1-4.9-0.9c-2.2-1.5-3.2-3.7-3.1-6.3
			c0-0.8,0.2-1.7-0.7-2.1c-4-1.6-3.2-5-3-8.2c0-0.7,0.2-1.3,0.3-2c0.2-1.2,0-1.9-1.5-1.8c-1.4,0.1-1.7-1-1.4-2.1
			c0.4-1.5,0.8-3.1,1.2-4.6c0.3-0.8,0.1-1.3-0.7-1.7c-2-1-2.5-2.4-1.8-4.5c0.6-1.8,0.2-2.4-1.7-2.9c-1.7-0.4-3.6-0.4-5.2-1.3
			c-3.8-2-5.2-5.5-3.6-9.5c0.3-0.7-0.2-0.9-0.6-1.2c-2.7-2.3-2.7-5.1,0.1-7.3c1.6-1.2,3-2.4,2.6-4.7c3,0.4,6,0.5,9.1,0
			c-1.7,0.5-3.3,0.9-4.8,1.7c-1.2,0.6-1.5,1.3-0.3,2.3c0.8,0.8,1.7,1.1,2.8,1.4c4.5,1,9,0.5,13.5,0.6c1,0,1.9,0,2.9,0.1
			c-4.5,0.7-8.9,1.3-13.3,2.3c-2.1,0.5-4.3,1-6.3,1.8c-0.4,0.1-0.7,0.3-1,0.6c-0.4,0.4-1.1,0.7-0.9,1.3c0.2,0.7,0.9,0.7,1.5,0.8
			c4.2,0.4,8.3-0.3,12.4-0.6c3.2-0.3,6.5-0.5,9.7-0.7c2-0.1,4-0.2,6.1-0.1c-2.5,0.8-4.9,1.7-7.5,2.4c-5.2,1.3-9.9,3.3-13.8,7
			c-0.4,0.3-0.9,0.6-0.6,1.2c0.2,0.5,0.8,0.3,1.2,0.2c6.9-1.3,13.8-2.6,20.7-3.8c0.5-0.1,1,0,1.9,0c-3,2-5.9,3.2-8.6,4.6
			c-2.6,1.4-5,3.2-6.9,5.5c-0.3,0.3-0.7,0.8-0.3,1.3c0.4,0.5,0.9,0.1,1.2-0.1c7.8-3.9,16.2-5.7,24.5-7.6c1.2-0.3,2.4-0.3,3.6-0.4
			c0.1,0.2,0,0.3-0.1,0.4c-7.9,3-14.7,8-21.5,12.8c-3.4,2.4-6.6,4.8-9.5,7.8c-0.4,0.4-1,0.7-0.7,1.4c0.3,0.6,1,0.4,1.5,0.3
			c2.4-0.5,4.5-1.8,6.7-2.7c6.9-2.8,13.5-6.4,20.5-9c0.6-0.2,1.2-0.6,2-0.3c-0.7,1.3-2,1.8-3.1,2.5c-5.6,3.7-11.3,7.2-16.9,10.9
			c-2.6,1.7-4.5,4.1-6.9,6c-0.4,0.3-0.7,0.8-0.6,1.4c3.7-1,7.1-2.8,10.5-4.4c5.4-2.6,10.7-5.3,16.4-7.2c1.2-0.4,2.9-1.1,3.4-0.2
			c0.5,1-1.3,1.6-2.2,2.2C154.8,275.6,151.9,277.2,149.4,279.3c-0.1,0-0.1,0.1-0.2,0.1C149.3,279.4,149.4,279.3,149.4,279.3z"/>
		<path class="st3" d="M270,363.2c1-3.3,1.7-6.7,4.1-9.4c1.5-1.7,2.9-3.4,4.3-5.1c0.3,0,0.5-0.1,0.7-0.4c0,0,0,0,0,0
			c0.9,0,1.5-0.6,2.3-0.9c0.4-0.2,0.8-0.5,1.2,0c0.3,0.4,0.3,0.9,0.1,1.3c-0.4,0.7-0.9,1.4-1.4,2.1c-1.4,2.1-2.8,4.3-3.7,7.2
			c2.6-1.9,4.7-3.5,6.9-5c4.7-3.3,9.4-6.6,13.9-10.1c0.3-0.2,0.5-0.4,0.9-0.5c0.4-0.2,0.9-0.2,1.2,0.2c0.4,0.4,0,0.7-0.2,1
			c-3.1,5-6.1,10-9.2,15c-0.8,1.3-1.6,2.6-2.3,3.9c-0.3,0.5-0.4,1.1,0.1,1.5c0.5,0.4,0.9,0,1.4-0.2c2.8-1.1,4.7-3.4,6.9-5.3
			c4.5-4,9-7.9,13.3-12.2c0.2-0.2,0.5-0.8,0.9-0.4c0.3,0.3,0,0.7-0.2,1.1c-2.2,4.2-3.7,8.7-5.2,13.2c-0.1,0.4-0.3,0.8-0.4,1.3
			c-0.1,0.4-0.2,0.8,0.2,1.1c0.4,0.2,0.7-0.1,1-0.4c2-1.8,3.5-3.9,5.1-6c3.2-4.2,6.2-8.6,9.9-12.4c0.4-0.4,0.9-1.4,1.6-0.9
			c0.8,0.5,0.2,1.3,0,2c-0.8,3.1-1.7,6.2-2.5,9.3c-0.3,1-0.1,2-0.2,3c-0.1,0.6-0.4,1.1,0.4,1.4c0.7,0.2,1.1,0,1.5-0.6
			c1.9-3.1,3.9-6.1,5.7-9.2c2.4-4,5.3-7.7,8.1-11.4c0.4-0.5,0.8-1.2,1.5-1c0.8,0.2,0.4,1.1,0.4,1.6c-0.1,3.5-0.9,7-1.5,10.5
			c-0.3,1.8-0.6,3.5-0.5,5.4c0,0.6,0,1.2,0.7,1.3c0.7,0.2,1-0.2,1.4-0.7c1.5-2.6,3.4-4.9,5.4-7.1c0.4-0.5,0.9-1.5,1.7-1.1
			c0.8,0.3,1.4,1.2,1.3,2.2c-0.3,3.2,0.6,6.2,1.6,9.2c0.3,0.9,0.4,1.8,1.5,2c1.1,0.2,1.8-0.4,2.5-1.1c0.8-0.9,1.5-1.8,2.2-2.8
			c0.7-0.9,1-0.7,1.5,0.2c1.2,2.1,2.1,2.4,4.1,1.8c0.4-0.1,0.7-0.3,1-0.6c2-2.1,3.3-2.1,5.3,0.2c-3,2.1-6.4,2.7-10,1.8
			c-0.7-0.2-1.4,0-2.2,0.2c-4.1,1.4-8.2,2.1-12.5,0.5c-1.5-0.5-3.1,0.7-4.8,0.2c-1.2-0.3-2.6-0.1-3.8-0.5c-2.3-0.7-4.4-0.3-6.6,0.4
			c-2.7,0.9-5.3,1.8-8,2.8c-0.8,0.3-1.7,0.5-2.5,0.2c-2.5-0.9-4.9-0.3-7.2,0.6c-3.4,1.3-6.9,2.9-10.6,2.4c-2.9-0.4-5.5-0.6-7.8,1.5
			c-0.3,0.3-0.9,0.2-1.3,0.2c-2.2,0.1-4.4,0.1-6.4,1.4c-1.2,0.8-3,0.3-4.4-0.1c-1.3-0.4-2.6-1-3.9-1.2
			C271.8,367.3,270.3,365.8,270,363.2z"/>
		<path class="st3" d="M150.4,385.3c2.7-0.5,5.3-1.6,7.8-2.7c7.8-3.4,16-4.9,24.2-6.2c4-0.6,8-1.3,11.9-1.9c1.7-0.2,3.4-0.3,5,0
			c1.6,0.3,1.7,0.7,0.6,1.9c-1.9,2-4,3.8-6.3,5.3c-4.7,3-9.1,6.4-14.3,8.6c-4.4,1.8-8.9,3.2-13.7,2.4c-0.7-0.1-1.5-0.1-2.1,0.3
			c-0.5-0.9-1.3-1.2-2.3-1.4c-2.6-0.6-5.1-1.7-7.5-2.9C152.4,387.9,151.3,386.6,150.4,385.3z"/>
		<path class="st3" d="M122.7,338.2c2.1,5.3,3,5.8,8.1,6.4c5.6,0.6,11.3,0.8,17,1.1c4.1,0.2,8.1,1.1,12.2,1.9c-2,0.6-4,1.2-6,1.7
			c-5.1,1.3-10.1,2.8-15.2,3.5c-3.4,0.5-6.8,0.9-10.2,0.5c-0.3,0-0.7-0.2-0.9,0.1c-0.2,0.3-0.1,0.7,0,1c0.2,0.4,0.6,0.4,1,0.4
			c4.1-0.7,8.2-0.7,12.3-0.5c4.8,0.2,9.5,0.4,14.2,1.3c0.7,0.1,1.5,0.2,1.6,1c0.1,0.8-0.9,0.9-1.5,1.1c-3.2,1.1-6.6,1.3-9.8,2.4
			c-4.8,1.7-9.7,3.1-14.3,5.4c-2.2-1.4-4.1-3.1-5.2-5.6c-0.4-0.9-0.6-1.6,0-2.5c0.4-0.6,0.7-1.4,1-2.1c0.4-0.9,0.3-1.7-0.5-2.4
			c-1.1-1-1.8-2.2-2.4-3.4c-0.5-1.2-1-2.5,0.7-3.3c0.8-0.4,0.8-0.8,0.3-1.4c-0.7-0.9-1.5-1.9-2.1-2.9
			C122.3,340.6,121.6,339.4,122.7,338.2z"/>
		<path class="st3" d="M131.8,366.3c4.9-2,10.1-2.3,15.2-3.2c0.3-0.1,0.7-0.2,1-0.2c4.8,0.1,9.7-0.7,14.5-0.3
			c3.7,0.3,7.4,0.5,10.9,1.9c0.5,0.2,1,0.4,1.2,0.9c0.2,0.7-0.5,0.8-0.9,1.1c-2.4,2-5.5,2.2-8.3,3.1c-5.8,2-11.8,2.4-17.8,3.2
			c-4.4,0.6-8.9,1.3-13.3,1.7c-0.4-0.4-0.7-0.9-1.1-1.2c-1.5-1.4-2-3-1.3-5C132.1,367.6,132.1,366.9,131.8,366.3z"/>
		<path class="st3" d="M167.5,395.8c2.3,0.1,4.5,0.2,6.9,0.1c4.4-0.2,8.3-2,12.4-2.9c3.2-0.7,5.6-2.8,8.3-4.4
			c8.1-4.8,16-10,23.9-15.1c0.3-0.2,0.6-0.3,0.9-0.4c1.6,0.1,3.1-0.7,4.6-1c-0.5,1.1-1.5,1.8-2.4,2.5c-2.2,2-4.1,4.1-5.6,6.7
			c-2.7,4.6-7.2,7.2-10.9,10.8c-0.7,0.7-1.6,1.3-2.3,2c-5.2,5-11.5,5.4-18.1,4.5c-0.4-0.1-0.9-0.1-1.1-0.3c-1.6-1.9-3.6-1-5.5-0.8
			C174.8,397.6,171.1,397.3,167.5,395.8z"/>
		<path class="st3" d="M153.7,310.5c6.5-3.5,13.4-6.3,19.8-10.2c-1.3,2.6-3,4.7-4.8,6.8c-2.6,3.1-4.5,6.6-6.1,10.2
			c-0.3,0.7-0.8,1.6,0,2.3c0.8,0.7,1.6,0,2.3-0.4c5.3-3.2,9.8-7.5,14.9-11c0.4-0.3,0.9-0.5,1.3-0.8c0.5-0.3,1-0.5,1.6,0
			c0.5,0.4,0.2,0.9,0.1,1.4c-0.2,4.8-2.8,8.7-5.4,12.4c-1.3,1.9-2.2,3.8-1.9,6.1c-5-0.6-9.6-2.2-12.9-6.3c-0.2-0.3-0.5-0.5-0.6-0.8
			c-0.7-2.5-2.6-3.9-4.8-5C155.2,314.3,154.1,312.6,153.7,310.5z"/>
		<path class="st3" d="M135.8,375.5c7.8-0.9,15.6-2,23.4-2.7c7.9-0.6,15.5-2.3,23-4.8c1.5-0.5,3.1-0.7,4.6-0.6
			c0.9,0.1,1.9,0.4,2.1,1.4c0.1,0.9-0.8,1.2-1.5,1.6c-5,2.3-10.4,3.5-15.7,5c-5.2,1.4-10,3.8-14.9,5.8c-1.8,0.7-3.5,1.6-5.2,2.4
			c-0.8,0.3-1.3,0.8-1.5,1.7c-1.2-1-2.6-1.6-4-2.3c-2-1.1-3.9-2.3-4.4-4.7c-0.1-0.7-0.7-0.6-1.2-0.8
			C138.8,376.9,137.2,376.4,135.8,375.5z"/>
		<path class="st3" d="M312.3,308.5c-1.3-1.9-2.8-3.6-4.7-4.8c10.3-2.9,20.5-6,30.8-8.8c6.9-1.9,14-1.9,21.1-1.3
			c8,0.7,16.1,1.1,24.1,1.6c4.3,0.3,8.5,0.3,12.7,1.3c-9.6,0.3-19.3-0.2-28.9-0.5c-7.7-0.2-15.4-1.2-23,0.6
			c-3.7,0.9-7.3,2.4-10.8,3.8C326.5,303,319.4,305.8,312.3,308.5z"/>
		<path class="st3" d="M176.7,328.2c0.1-0.5,0.5-0.8,0.9-0.9c3.6-1.4,5.6-4.6,8.1-7.2c1.5-1.6,2.9-3.2,5.2-3.7
			c1.2-0.3,2.3-1.1,3.5-1.6c1.4-0.5,1.8-0.2,1.5,1.2c-0.6,2.2-1.2,4.6-2.5,6.4c-3.6,5.1-6.4,10.7-9.8,16
			C181.2,335.2,179.1,331.6,176.7,328.2z"/>
		<path class="st1" d="M172.9,190.8c1.6,1.6,3.7,2.4,5.5,3.9c-0.8,0.5-1.2,0-1.6-0.3c-15.6-9.8-31.2-19.6-46.7-29.4
			c-7.1-4.4-14.1-8.9-21.1-13.3c-1.2-0.8-2.3-0.9-3.5-0.2c-1.3-0.9-0.8-1.4,0.4-1.7c2.3-0.6,4.3,0.2,6.4,1.1
			c9.3,4.2,17.4,10.3,25.7,16.1c10.2,7.2,20.2,14.6,30.6,21.4C170,189.1,171.5,189.9,172.9,190.8z"/>
		<path class="st1" d="M116.9,203.8c5.4,0.6,10.8,1.1,16.2,1.7c-1.6,0.3-3.2,0.1-4.8,0c-5.3-0.3-10.6-0.5-15.9-0.7
			c-11.9-0.5-23.8-0.9-35.8-1.5c-3-0.2-5.8,0.1-8.7,0.5c-1.5,0.2-2.7,0.7-3.1,2.4c-2,0.2-3.1-1.3-4.1-2.5c-0.9-1,0.3-2.5,2.1-2.9
			c3.2-0.8,6.5-0.9,9.7-0.6c10.2,0.8,20.3,1.6,30.5,2.5C107.7,203,112.3,203.4,116.9,203.8z"/>
		<path class="st1" d="M144.7,185.7c5,3,10.7,4,16.2,5.2c0.7,0.2,1.5,0.3,2.6,0.6c-1.1,0.5-1.7,0.1-2.3,0.1
			c-6.9-0.6-13.4-2.7-19.5-6.1c-10.1-5.7-20.8-10-31.3-14.8c-8.1-3.8-16.3-7.4-24.5-11.1c-1.6-0.7-3.2-1.2-4.9-1.1
			c-0.3-0.5-1.6-0.1-1.2-1.2c0.3-0.8,1.1-1.1,2-0.8c2.1,0.6,4.1,0.9,6.1,1.8c18.4,8.7,36.9,17.2,54.9,26.7c0.4,0.2,0.7,0.8,1.3,0.3
			c0,0,0-0.1,0-0.1c-0.1,0.1-0.2,0.2-0.1,0.4C144.4,185.7,144.5,185.8,144.7,185.7z"/>
		<path class="st3" d="M139,294.5c2.8,0.2,4.7-1.8,6.9-2.9c3.7-1.8,7.2-4,10.8-5.9c1.8-1,3.6-2.1,5.2-3.4c0.2-0.2,0.4-0.4,0.7-0.5
			c0.4-0.2,1-0.3,1.3,0.1c0.4,0.5,0,0.8-0.4,1.1c-1.3,1.1-2.5,2.2-3.8,3.3c-4.3,3.9-8.9,7.4-12.4,12.1c-0.5,0.7-0.7,1.5-1.2,2.2
			c-1.8-1.6-4.2-2.5-6-4.3C139.5,295.8,139,295.3,139,294.5z"/>
		<path class="st1" d="M131.5,194.2c1.6,0.3,3.2,0.6,5.2,1c-3.3,0.4-5.9-0.4-8.6-1c-17.9-4-35.8-8.1-53.7-12.1
			c-1.6-0.4-3.3-0.8-4.9,0.1c-0.8-1.1-0.3-1.6,0.9-1.8c1.4-0.3,2.8,0.1,4.2,0.3c13.9,1.4,27.1,5.8,40.5,9.5
			C120.4,191.6,125.9,193.1,131.5,194.2z"/>
		<path class="st3" d="M259.5,368.3c0.1,0,0.2,0,0.3,0c1.5,0.5,2.9,1.4,4.5,0.3c0.2,0,0.4,0,0.6,0.1c0.1,0.7,0.6,1,1.1,1.3
			c0.5,0.3,1.1,0.6,1.2,1c0.2,0.9,1.2,1.7,0.4,2.6c-0.7,0.8-1.7,0.8-2.6,0.5c-1.3-0.3-2.6-0.5-3.6,0.7c-0.2,0.2-0.6,0.4-0.9,0.3
			c-3.6-0.4-6.8,1.3-10.1,2.1c-0.2-0.2-0.6-0.3-0.4-0.8c0.7-1.3,1.1-2.7,2.2-3.8C254.1,370.6,256.8,369.4,259.5,368.3z"/>
		<path class="st1" d="M109.7,216.6c3.7-0.1,7.4-0.8,11.1-1.1c2.1-0.1,4.1-0.7,6.6-0.4c-18,2.6-35.6,5.1-53.2,7.7
			c-1.1,0.2-2.1,0.3-3.2,0.5c-2.7,0.5-3.3,0.8-2.2,3.4c-1.5,0.2-2.5-0.5-2.7-1.9c-0.2-1.4,0.8-1.9,2-2.2c5.4-1.6,11.1-1.9,16.6-2.9
			c7.7-1.3,15.5-1.9,23.3-2.8C108.6,216.9,109.1,216.7,109.7,216.6z"/>
		<path class="st0" d="M218.1,224.2c-2.5-1.4-4.6-3.4-6.6-5.4c-4.6-4.4-9.4-8.4-13.8-13c0.1-0.3,0.4-0.6,0.4-0.9
			c0.3-1.3,1-1.4,2.1-0.9c1.9,0.9,3.6,2.2,4.9,3.8c4.1,4.8,8,9.7,12,14.6C217.6,222.9,217.9,223.5,218.1,224.2z"/>
		<path class="st3" d="M146.7,302c4.2-1.7,8.1-4.1,12-6.5c1.4-0.9,2.9-1.7,4.5-2.3c-1.4,1.6-2.8,3.2-4.3,4.7
			c-2.1,2.2-4.5,4.2-5.6,7.3c-0.6,1.6-1,3.1-0.9,4.7c-0.3-1.2-1.1-1.8-2-2.5C148.5,306.1,146.9,304.5,146.7,302z"/>
		<path class="st0" d="M259.5,368.3c-2.7,1.1-5.3,2.3-7.4,4.5c-1,1.1-1.4,2.5-2.2,3.8c-0.3,0.4,0.2,0.6,0.4,0.8
			c-0.7,0.4-1.4,0.8-2,1.2c-1.1-1-1.3-2.2-0.8-3.6c0.8-2.3,2.4-3.8,4.3-5.3c1.1-0.4,2.1-1,3.1-1.5
			C256.5,367.4,257.9,367.2,259.5,368.3z"/>
		<path class="st3" d="M267.5,304.4c-0.6,0.4-1.1,0.9-1.7,1.3c-2.2,1.5-3.3,3.7-3.4,6.3c-0.1,0-0.2,0.1-0.3,0.1c0,0,0,0,0,0
			c-0.3-2.2-1.5-3.9-2.8-5.6c-0.6-0.7-1.1-1.5-1.6-2.3C261,305.8,264.3,304.4,267.5,304.4z"/>
		<path class="st1" d="M123.3,168.2c4,1.4,8.5,1.3,12.4,3.4c-3.1,0-6.2-0.4-9.3-0.7c-0.9-0.1-1.5-0.7-2.1-1.2
			c0.1-0.3,0.1-0.5-0.3-0.4c0,0,0,0,0,0c0-0.5-0.2-0.6-0.6-0.4c0,0,0,0,0,0C123.3,168.7,123.3,168.5,123.3,168.2z"/>
		<path class="st0" d="M123.3,168.2c0,0.2,0,0.5,0,0.7c-0.4,0.1-0.6-0.3-0.9-0.5c0.1-0.1,0.2-0.2,0.4-0.3
			C123,168.2,123.2,168.2,123.3,168.2L123.3,168.2z"/>
		<path class="st0" d="M123.3,168.9c0.4-0.2,0.6-0.1,0.6,0.4C123.6,169.4,123.4,169.3,123.3,168.9z"/>
		<path class="st0" d="M124,169.3c0.4-0.1,0.4,0.1,0.3,0.4C124.2,169.5,124.1,169.4,124,169.3z"/>
		<path class="st1" d="M123.4,168.3c-0.2-0.1-0.3-0.1-0.5-0.2C123,168.2,123.2,168.2,123.4,168.3z"/>
		<path class="st4" d="M176.5,191.9c0.1,0.1,0.3,0.2,0.4,0.4C176.7,192.2,176.5,192.2,176.5,191.9z"/>
		<path class="st1" d="M292.4,329.8c1.7-3.2,2.9-6.8,7.1-7.7c1-0.2,2-0.4,3-0.1c1.4,0.4,2.8,0.7,4.3,0.3c0.6-0.1,1.2,0.2,1.5,0.8
			c0.6,1,1.2,1.9,1.7,2.9c-2.1-0.4-3.7,0.4-5,2c-1.4,1.6-3,3.1-5,4c-0.3,0.1-0.6,0.4-0.9,0.4c-0.6,0-1.3-0.1-1.6-0.7
			c-0.3-0.7,0.3-1,0.8-1.3c1.4-0.7,2.5-1.7,3.5-2.9c0.4-0.4,0.9-0.8,0.6-1.5c-0.2-0.7-0.9-0.8-1.5-0.8c-0.8,0-1.6,0.1-2.2,0.6
			c-1.5,1.1-3,2.2-4.4,3.4C293.7,329.6,293.2,330.2,292.4,329.8z"/>
		<path class="st1" d="M292.6,308.4c4.2-1.6,7.5,0,10.2,3.3c-0.7-0.1-1,0.5-1.5,0.9c-2.2,1.6-5,1.1-5.6-1.5
			C295.3,309.1,294.3,308.3,292.6,308.4z"/>
		<path class="st1" d="M282.8,337.5c-1.1,2.4-3.3,3.9-5,5.8c-1.7,1.8-3.9,2.6-6,3.5c-2.3,1-4.6,2-7,2.9c-0.5,0.2-0.9,0.5-1.6,0.1
			c2.3-1,3.6-3,5.6-4.3c0.1,0.1,0.1,0.1,0.2,0.2c-0.3,0.5-0.6,1-1.2,1.9c2.5-0.8,4.7-1.7,6.7-2.9
			C277.7,342.8,280.2,340.1,282.8,337.5C282.8,337.5,282.8,337.5,282.8,337.5z"/>
		<path class="st1" d="M259.4,348.7c-1.3,1.3-3,2-4.4,3c-2,1.3-3.1,3.2-4.2,5.4c0.1-2.7,1.3-4.4,3.4-5.5
			C256,350.7,257.4,349.2,259.4,348.7C259.4,348.7,259.4,348.7,259.4,348.7z"/>
		<path class="st1" d="M264.7,329.1c-3.1,2.4-6.5,4.3-10.4,4.9C257.9,332.8,261.2,330.8,264.7,329.1z"/>
		<path class="st1" d="M277.4,333.1c0.2,0.6-0.3,0.8-0.6,1.1c-1.5,1.7-3,3.4-3.7,5.6c-0.2,0.5-0.4,1.1-1.3,1.1
			C272.9,337.7,274.2,334.8,277.4,333.1L277.4,333.1z"/>
		<path class="st1" d="M282.1,323.6c-2.1,2.6-3.7,5.5-6.4,7.5l0,0C277.5,328.4,279.1,325.4,282.1,323.6L282.1,323.6z"/>
		<path class="st1" d="M270.7,316c-3,1.7-6.2,2.5-9.7,2.3C264.3,317.9,267.5,317,270.7,316z"/>
		<path class="st1" d="M276,320.9c-0.7,1-1.8,1.1-2.8,1.3c-2.3,0.4-4.5,0.6-6.8,0.2C269.6,322.2,272.8,321.7,276,320.9L276,320.9z"
			/>
		<path class="st1" d="M274,326c-2.4,1.5-5.3,1.7-8,2.5C268.6,327.5,271.2,326.5,274,326L274,326z"/>
		<path class="st0" d="M264.2,368.6c-1.6,1-3,0.2-4.5-0.3C262.1,367.3,263.2,367.3,264.2,368.6z"/>
		<path class="st1" d="M288.9,325.6c-0.5,2.1-2.1,3.3-3.9,4.2C285.9,328.2,287.6,327.1,288.9,325.6L288.9,325.6z"/>
		<path class="st1" d="M262.8,346.3c-0.3,0.5-0.7,0.8-1.5,1C261.8,346.6,262.1,346.2,262.8,346.3L262.8,346.3z"/>
		<path class="st1" d="M260.4,348c-0.2,0.4-0.6,0.6-1,0.7c0,0,0,0,0,0C259.5,348,259.9,347.9,260.4,348L260.4,348z"/>
		<path class="st1" d="M260.5,348c-0.1-0.4,0.2-0.5,0.5-0.6c0,0,0.1,0.1,0.1,0.2C260.9,347.9,260.7,348,260.5,348
			C260.4,348,260.5,348,260.5,348z"/>
		<path class="st1" d="M274,326c0.1-0.1,0.1-0.2,0.2-0.2c0,0,0.1,0.1,0.1,0.1C274.2,325.9,274.1,326,274,326
			C274,326,274,326,274,326z"/>
		<path class="st0" d="M279.1,348.3c-0.1,0.3-0.4,0.3-0.7,0.4C278.5,348.4,278.7,348.2,279.1,348.3z"/>
		<path class="st1" d="M276,320.9c0.1-0.1,0.1-0.1,0.2-0.2c0,0-0.1,0.1-0.1,0.1C276.1,320.9,276,320.9,276,320.9
			C276,320.9,276,320.9,276,320.9z"/>
		<path class="st1" d="M283.1,337.1c0,0.2-0.1,0.4-0.3,0.3c0,0,0,0,0,0C282.9,337.4,283,337.3,283.1,337.1L283.1,337.1z"/>
		<path class="st1" d="M269.3,345.3c0-0.1,0.1-0.1,0.1-0.2c0,0,0,0.1,0,0.1C269.3,345.2,269.3,345.3,269.3,345.3L269.3,345.3z"/>
		<path class="st1" d="M269.2,345.3c-0.1,0.1-0.2,0.2-0.3,0.4c-0.1-0.1-0.1-0.1-0.2-0.2C268.9,345.4,269.1,345.4,269.2,345.3
			C269.3,345.3,269.2,345.3,269.2,345.3z"/>
		<path class="st1" d="M262.8,346.3c0-0.1,0-0.2,0.1-0.3C263.2,346.3,262.8,346.2,262.8,346.3C262.8,346.3,262.8,346.3,262.8,346.3z
			"/>
		<path class="st1" d="M283.1,337.2c0,0,0-0.1,0.1-0.1c0,0,0.1,0,0.1,0C283.2,337.1,283.2,337.1,283.1,337.2
			C283.1,337.1,283.1,337.2,283.1,337.2z"/>
		<path class="st1" d="M277.4,333.1c0.1-0.1,0.2-0.2,0.3-0.3l0,0C277.7,333,277.6,333.1,277.4,333.1
			C277.4,333.1,277.4,333.1,277.4,333.1z"/>
		<path class="st1" d="M277.7,332.8c0.1-0.1,0.1-0.2,0.2-0.2C278,332.8,277.9,332.8,277.7,332.8
			C277.7,332.7,277.7,332.8,277.7,332.8z"/>
		<path class="st1" d="M274.6,331.7c0,0.1,0,0.2,0,0.2c-0.1,0-0.1,0-0.2,0C274.5,331.9,274.6,331.8,274.6,331.7L274.6,331.7z"/>
		<path class="st1" d="M262.1,312.1c0.1,0,0.2-0.1,0.3-0.1c-0.1,0.1-0.1,0.2-0.2,0.3C262.2,312.3,262.2,312.2,262.1,312.1z"/>
		<path class="st1" d="M274.7,331.8c0.1-0.1,0.1-0.1,0.2-0.2c0,0.1,0,0.1,0.1,0.2C274.8,331.7,274.7,331.7,274.7,331.8
			C274.6,331.7,274.7,331.8,274.7,331.8z"/>
		<path class="st1" d="M275.7,331.1c-0.1,0.1-0.1,0.2-0.2,0.2c0-0.1-0.1-0.1-0.1-0.2C275.5,331.1,275.6,331.1,275.7,331.1
			C275.7,331.1,275.7,331.1,275.7,331.1z"/>
		<path class="st1" d="M265.5,328.9c0,0-0.1,0.1-0.1,0.1c0,0-0.1-0.1-0.1-0.1c0,0,0.1-0.1,0.1-0.1
			C265.4,328.8,265.4,328.8,265.5,328.9z"/>
		<path class="st1" d="M288.9,325.7c0-0.1,0.1-0.2,0.1-0.3C289.2,325.6,289.1,325.7,288.9,325.7
			C288.9,325.6,288.9,325.7,288.9,325.7z"/>
		<polygon class="st1" points="282.1,323.6 282.2,323.6 282.1,323.6 		"/>
		<path class="st0" d="M149.4,279.3c-0.1,0-0.1,0.1-0.2,0.1C149.3,279.4,149.4,279.3,149.4,279.3
			C149.4,279.3,149.4,279.3,149.4,279.3z"/>
	</g>
	<g>
		<g>
			<polygon class="st5" points="404.6,410.5 404.6,393.5 407.8,393.5 407.8,390.7 398.2,390.7 398.2,393.5 401.5,393.5 401.5,410.5 
							"/>
			<path class="st5" d="M424.2,396.8v-1.6c0-3.1-1.4-4.6-4.6-4.6h-4.7v19.8h3.1v-8.1h1.1c1.4,0,2,0.7,2,2.5v3.1
				c0,1.6,0.1,1.9,0.3,2.4h3.2c-0.3-0.7-0.3-1.4-0.3-2.4V405c0-2.1-0.5-3.5-2.1-4.2v-0.1C423.5,400.1,424.2,398.8,424.2,396.8z
				 M421,397.5c0,1.6-0.7,2.1-1.9,2.1H418v-6.1h1.5c1.1,0,1.6,0.6,1.6,2V397.5z"/>
			<polygon class="st5" points="431.9,410.5 440.4,410.5 440.4,407.6 435,407.6 435,401.8 439.3,401.8 439.3,399 435,399 435,393.5 
				440.4,393.5 440.4,390.7 431.9,390.7 			"/>
			<polygon class="st5" points="375.4,393.5 375.4,390.7 367,390.7 367,410.5 375.4,410.5 375.4,407.6 370.1,407.6 370.1,401.8 
				374.3,401.8 374.3,399 370.1,399 370.1,393.5 			"/>
			<polygon class="st5" points="339,410.5 339,393.5 342.2,393.5 342.2,390.7 332.6,390.7 332.6,393.5 335.8,393.5 335.8,410.5 			
				"/>
			<polygon class="st5" points="349.2,390.7 349.2,410.5 352.3,410.5 352.3,402 355.9,402 355.9,410.5 359,410.5 359,390.7 
				355.9,390.7 355.9,399.2 352.3,399.2 352.3,390.7 			"/>
			<path class="st5" d="M389.4,406.9l0.5,3.6h3.1l-3.2-19.8h-4.6l-3.2,19.8h2.9l0.5-3.6H389.4z M387.5,394.2L387.5,394.2l1.5,10h-3
				L387.5,394.2z"/>
		</g>
		<path class="st6" d="M244.9,428.1c1.3,0.5,2.6,0.7,3.9,0.7c0.5,0,1,0,1.4-0.1c4.7-0.7,9.1-2.6,13.1-5.8
			c9.3-7.6,14.3-17.2,14.7-28.8c1.1-31.4-20.1-48.1-45.9-48.1c-5.6,0-11.5,0.8-17.4,2.4c-16.7,4.6-29.7,15.2-38.5,32
			c-6.6,12.5-9.8,27-9.5,43.2c0.2,11.6,2.3,21.5,6.6,30.1c4.2,8.6,10.7,14.8,18.3,17.4c2.7,0.9,5.4,1.4,8.1,1.4
			c3.9,0,7.9-0.9,11.7-2.8c7-3.4,12.6-9.7,17.1-19.1c5.5-11.5,8.1-25,8.1-41.4c0-6.6-0.3-12.4-1-17.6c-0.8-5.4-1.7-10.6-4.2-15.2
			c-0.8-1.5-2.8-5.1-6.2-5.1c-0.1,0-0.3,0-0.4,0c-5.7,0.5-10.4,3-14,7.4c-1.3,1.5-1.8,3.3-1.7,5.4c0.2,3.7,1.1,7.1,2,10
			c3.6,11.5,5.1,23.7,4.6,37.1c-0.2,6.3-1.1,11.2-2.8,15.3c-2.6,6.2-6.4,10.3-10.6,11.4c-0.8,0.2-1.7,0.3-2.5,0.3
			c-3,0-6.2-1.3-9.3-3.8c-4.6-3.6-7.8-9.1-9.7-16.7c-3-11.8-2.6-24.4,1.2-38.6c6.1-22.4,21.9-36.2,40.3-36.2c2.3,0,4.6,0.2,6.9,0.6
			c15.7,2.9,26.4,18.6,25.4,37.3c-0.3,5.7-5,15.1-11.4,16.3c-0.7,0.1-3,0.8-2.6,4.5C240.9,425.7,243.1,427.4,244.9,428.1z"/>
		<path class="st6" d="M426.9,471.4c15.3-2.1,19.7-19,19.8-19.2c0.3-1.2,0.8-3-0.9-3.6c-0.2-0.1-0.4-0.1-0.6-0.1
			c-1.1,0-1.7,1.3-2.1,2.2c-0.1,0.2-6.5,11.4-15,11.4c-1,0-2-0.1-3-0.5c-3.5-1.1-6-4.4-7-8.6c-0.9-3.9-0.8-8,0.3-13.1
			c0.6-2.9,1.5-5.9,3.9-8.2c0.9-0.9,2-1.4,2.9-1.4c0.2,0,0.3,0,0.5,0c1.1,0.2,2,1,2.7,2.3c1.5,2.8,1.6,5.9,1.7,9
			c0,1.2-0.2,1.9-0.7,2.4c-0.4,0.3-1,0.5-1.8,0.5c-0.2,0-0.4,0-0.7,0c-1.9-0.2-3.6-0.3-5.1-0.6c-0.3,0-0.6-0.1-0.8-0.1
			c-1.4,0-2.4,0.7-2.9,2.1c-0.8,2,0.7,2.8,1.8,3.4c3.5,1.9,7.5,2.9,11.8,2.9c0.2,0,0.5,0,0.7,0c3.3-0.1,5.8-1.6,7.4-4.5
			c3.2-5.6,1.4-15.6-3.6-19.8c-3.1-2.6-7.2-4-11.4-4c-3.8,0-7.6,1.1-10.7,3.3c-6.2,4.3-9.9,10.2-11.3,18.1c-0.7,3.8-0.5,6.1-0.4,7.4
			c0,0.4,0.1,0.8,0,0.9l-0.2,0.2c-1.6,2.1-3,4.1-5.5,5c-0.5,0.2-0.8,0.3-1.2,0.3c-0.2,0-0.4,0-0.6-0.1c-0.4-0.2-0.7-0.7-0.9-1.5
			c-0.4-1.6-0.5-3.4-0.3-5.4c0.4-4.2,0.3-8.4,0.2-12.2c-0.1-3.8-0.7-7-1.9-9.8c-1.3-3.1-3.5-5.3-6.3-6.1c-0.9-0.3-1.8-0.4-2.7-0.4
			c-2,0-4.1,0.6-6,1.9c-2.3,1.5-5.6,4.8-7.5,8c-0.9-5.2-3.9-8.7-8.1-9.6c-0.8-0.2-1.5-0.2-2.3-0.2c-3,0-5.7,1.2-8.4,3.7
			c-1.2,1.1-2.2,2.5-3.2,3.9c-0.2,0.3-0.5,0.7-0.7,1c0-0.3,0-0.6,0-0.8c0.1-1.4,0.1-2.7,0.2-4c0.2-2.3-0.5-4.1-1.8-5.3
			c-0.9-0.7-2-1.1-3.3-1.1c-0.7,0-1.4,0.1-2.2,0.3c-5.2,1.5-8,5.1-8.2,10.5c-0.2,4.4-0.2,8.8-0.3,13.1c0,2-0.1,4.1-0.1,6.1
			c0,0.1,0,0.3,0,0.4c0,0.6,0,1.1-0.3,1.5c-1.4,2-3,4.1-5.2,5.6c-0.8,0.5-1.5,0.8-2.2,0.8c-0.3,0-0.6-0.1-0.8-0.2
			c-0.8-0.3-1.5-1.2-1.8-2.5c-0.7-3-0.8-6.1-0.8-8.7c0-17.6,0.7-36.3,2.3-60.6c0-0.6,0.1-1.2,0.1-1.8c0.2-2.7,0.4-5.4,0-8.2
			c-0.4-2.8-2.3-4.5-4.8-4.5c-0.3,0-0.6,0-0.9,0.1c-2.2,0.3-4.1,0.8-5.8,1.6c-2.8,1.3-4.5,3.6-5,6.9c-0.2,1.7-0.4,3.7-0.4,6l0,4.2
			c-0.2,14-0.5,46.9-0.2,56c0.1,1.9,0.2,3.8-1,5.4c-0.3,0.4-0.5,0.7-0.8,1.1c-1.3,1.8-2.6,3.5-4.5,4.6c-0.4,0.2-0.8,0.3-1.1,0.3
			c-0.3,0-0.5-0.1-0.7-0.2c-1.4-0.8-1.9-4.1-2-5.9c-0.2-4.7,0-9.4,0.2-14c0.1-2.2,0.2-4.5,0.2-6.8c0.1-3.3-0.5-5.2-1.7-6.2
			c-0.6-0.5-1.4-0.7-2.4-0.7c-1.1,0-2.4,0.3-4.1,0.8c-1.1,0.3-2,0.6-3,0.6c-0.9,0-1.8-0.3-2.7-1c-0.9-0.7-2.2-1-3.1-1.1
			c-1-0.2-2-0.2-3-0.2c-5.4,0-10.3,2.5-14.5,7.3c-5.1,5.9-7.4,13.2-6.8,21.6c0.5,6.5,3.3,11.5,8.2,15c3.3,2.4,6.8,3.5,10.3,3.5
			c3.6,0,7.1-1.3,10.3-3.9c0.3-0.3,0.5-0.3,0.5-0.3c0,0,0,0,0,0c0.1,0,0.2,0.3,0.3,0.4l0.1,0.2c1.5,2.2,3.5,3.3,6,3.3
			c0.5,0,1.1-0.1,1.7-0.2c3.7-0.7,6.9-2.5,10.2-5.9c1.7-1.7,2.9-3.8,4.2-5.9c0.1-0.1,0.2-0.3,0.3-0.4c0.5,2.8,1,5.4,2.4,7.7
			c1.7,3,4.1,4.4,7.3,4.4c0,0,0.1,0,0.1,0c3.4,0,6.5-1.2,10.1-3.8c1.7-1.3,3.1-2.9,4.6-4.6c0.2-0.3,0.5-0.5,0.7-0.8
			c0.3,2.5,0.7,4.4,1.3,6.2c1,2.7,2.5,3.3,3.7,3.3c0.2,0,0.4,0,0.6,0c3.3,0,5.4-0.6,6.7-1.9c1.2-1.2,1.8-3,1.8-5.7
			c0-5.4,0.3-10.1,0.9-14.4c0.5-3.5,1.2-7.2,3.2-10.6c0.9-1.5,1.9-2.2,3.3-2.2c0.1,0,0.2,0,0.3,0c2.9,0.2,2.6,12.3,2.5,18.1
			c0,1.2-0.1,2.3-0.1,3.1c0,0.6,0,1.3,0,1.9c0,2.5-0.1,5.1,0.3,7.6c0.2,1,0.6,2.5,2.2,3.3c0.9,0.5,2.1,0.7,3.5,0.7
			c2.3,0,4.9-0.7,6.2-1.8c1.1-0.9,1.7-2.2,1.9-3.9c0.2-2.3,0.3-4.6,0.3-6.9c0-1.3,0-2.6,0.1-3.9c0.2-4.2,0.5-8.7,2-13.1
			c0.6-1.7,1.3-3.4,2.8-4.6c0.4-0.2,0.8-0.3,1.2-0.3c0.3,0,0.6,0.1,0.9,0.3c2.4,1.6,2.1,10.1,1.9,14.6c0,1.1-0.1,2.1-0.1,2.7
			c0,3.7,0.4,6.7,1.3,9.5c1.5,4.7,4.4,7.1,8.5,7.1c0.9,0,1.9-0.1,3-0.4c7.4-1.8,11-7.3,13.2-10.8l0,0.1c0.2,0.4,0.5,0.8,0.7,1.1
			c4.1,6.5,11.6,10.4,18.9,10.4C425.2,471.6,426,471.5,426.9,471.4z M279.5,462.1c-0.5,0.4-1.1,0.6-1.8,0.6c-0.5,0-1-0.1-1.6-0.3
			c-2.4-0.7-4-2.5-5.2-5.5c-1.7-4.4-2.2-9.3-1-15.4c2-10.1,6-11,7.4-11c0.3,0,0.4,0,0.5,0c0.7,0.2,1.4,0.8,1.8,1.7
			c0.6,1.3,0.9,2.7,0.9,4.2c0,2,0.4,20.6,0.4,22.3C280.8,460.3,280.3,461.4,279.5,462.1z"/>
	</g>
</g>
</svg>
