<?xml version="1.0" encoding="UTF-8" standalone="no"?>
<!-- Created with Inkscape (http://www.inkscape.org/) -->

<svg
   width="500mm"
   height="500mm"
   viewBox="0 0 499.99999 500"
   version="1.1"
   id="svg1"
   xml:space="preserve"
   sodipodi:docname="unicorn_solid.svg"
   inkscape:export-filename="unicorn_lines.svg"
   inkscape:export-xdpi="200"
   inkscape:export-ydpi="200"
   inkscape:version="1.4.2 (f4327f4, 2025-05-13)"
   xmlns:inkscape="http://www.inkscape.org/namespaces/inkscape"
   xmlns:sodipodi="http://sodipodi.sourceforge.net/DTD/sodipodi-0.dtd"
   xmlns="http://www.w3.org/2000/svg"
   xmlns:svg="http://www.w3.org/2000/svg"><sodipodi:namedview
     id="namedview1"
     pagecolor="#ffffff"
     bordercolor="#000000"
     borderopacity="0.25"
     inkscape:showpageshadow="2"
     inkscape:pageopacity="0.0"
     inkscape:pagecheckerboard="0"
     inkscape:deskcolor="#d1d1d1"
     inkscape:document-units="mm"
     inkscape:export-bgcolor="#ffffffff"
     inkscape:zoom="0.47786467"
     inkscape:cx="633.02441"
     inkscape:cy="1028.5339"
     inkscape:window-width="2560"
     inkscape:window-height="1369"
     inkscape:window-x="-8"
     inkscape:window-y="1432"
     inkscape:window-maximized="1"
     inkscape:current-layer="svg1" /><defs
     id="defs1"><clipPath
       clipPathUnits="userSpaceOnUse"
       id="clipPath2"><path
         d="M 0,612 H 792 V 0 H 0 Z"
         transform="translate(-617.03942,-53.324499)"
         id="path2" /></clipPath></defs><g
     id="layer2"
     transform="matrix(2.3378003,0,0,2.3378003,-135.28277,-8.352315)"
     style="display:none;fill:#000000"><path
       id="path904"
       style="fill:#000000;stroke-width:29.88;stroke-linecap:square"
       d="m 64.416223,6.1665487 c -0.135456,0.00536 -0.287488,0.1056982 -0.47594,0.3570841 L 83.946297,48.856449 c -2.01789,1.919817 -4.13235,4.076481 -4.134114,7.094141 -0.0019,2.655006 2.378017,6.498944 -1.937867,7.464144 0.659342,1.116893 2.302056,0.102456 3.049943,-0.498678 l 1.349789,-1.459859 c -0.193323,3.976865 -1.10271,7.260068 -2.722315,10.852051 -1.558925,3.457575 -3.911654,6.61682 -5.473051,9.938928 -1.841851,3.91795 -0.0049,3.464372 0.75396,6.59598 0.554918,2.288468 0.03111,4.592819 3.407544,4.909261 1.106664,0.103717 2.194343,-0.426896 2.687174,-0.38809 0.244475,0.01905 0.780253,0.483413 1.282609,0.576192 1.829152,0.33867 5.605153,-0.794101 6.230628,-2.704744 0.3048,-0.930275 0.08045,-1.599042 0.24908,-2.444296 0.432506,-2.164646 6.53558,-6.7532 8.583455,-7.806241 2.793648,-1.436159 6.061798,-1.656462 8.605678,-3.623552 3.66959,8.581319 1.67322,17.903936 0.6103,26.791134 -0.17286,1.44462 -0.0175,3.56781 -0.25735,4.88083 -0.11395,0.62442 -1.46393,2.88167 -1.81953,3.80701 -2.34033,6.08894 -2.78193,12.93338 1.09192,18.46915 l -13.013671,4.59197 c -6.569075,1.09538 -12.649891,3.73049 -11.936223,11.56674 0.171098,1.87995 1.173704,2.47833 1.653129,3.9734 1.620309,5.05425 -0.467892,11.26839 0.372071,16.26619 0.253296,1.50636 1.602837,2.79856 3.116605,3.02152 0.579967,0.0854 0.982395,-0.12053 1.3193,-0.0791 0.944737,0.11712 4.707684,4.80705 5.892663,5.80894 2.701219,2.28283 3.671506,2.04929 6.667293,3.11609 0.920393,0.32773 2.080583,1.26928 3.179133,1.71308 1.50883,0.60924 4.04626,1.75428 5.16351,0.14314 1.18286,-1.70498 1.10043,-7.36495 0.70848,-9.44387 -0.68614,-3.63925 -1.9858,-3.89474 -5.26169,-4.77387 -0.28787,-0.0773 -0.98212,-0.0164 -1.02939,-0.0641 -0.0593,-0.0596 0.0319,-0.74485 -0.0574,-1.03766 -0.3958,-1.29716 -2.12629,-1.56851 -3.11195,-2.27583 -3.194402,-2.29341 -3.491984,-9.53796 -1.094507,-12.56409 3.714047,-4.68842 10.004727,-1.41984 14.686447,-0.79013 4.3314,0.58279 8.11854,0.24504 12.26333,-1.1188 1.39453,-0.45861 5.07142,-2.4884 6.04614,-2.53214 2.3682,-0.10725 8.2098,2.17538 10.92337,2.78639 9.69786,2.1844 18.51505,1.18199 27.58849,-2.77089 2.6095,5.13891 7.37924,8.90317 11.13421,13.20953 1.76,2.01859 4.49083,4.8033 4.25658,7.67808 -0.3503,4.29895 -6.34532,10.89285 -9.38909,13.86324 -2.45427,2.39501 -10.53046,8.65363 -11.26494,11.48716 -0.22754,0.87771 0.14427,1.38006 0.0227,1.9699 -0.31327,1.51941 -3.36068,5.04703 -2.79518,6.68745 0.15134,0.43815 0.7744,0.46923 1.14411,0.57154 2.8568,0.78916 8.80638,0.61427 11.53935,-0.54002 3.56129,-1.50389 5.28522,-8.20736 0.2465,-8.9302 0.84031,-2.94958 2.03882,0.0686 3.16983,0.86868 0.97762,0.69181 1.90532,0.72454 2.94194,0.11472 -2e-4,2.5e-4 -3.2e-4,7.7e-4 -5.2e-4,10e-4 0.0124,-0.005 0.0731,-0.0411 0.10077,-0.0579 0.61777,-0.37575 1.11588,-1.12254 1.5782,-1.78748 h 5.2e-4 v -0.001 c 0.22063,-0.31732 0.43598,-0.61976 0.64699,-0.84697 1.49023,-2.57857 3.4193,-10.38987 4.39266,-11.50938 0.53234,-0.61136 2.32045,-1.7883 3.08457,-2.29702 2.74143,-1.82562 9.68462,-5.06648 11.19415,-7.64036 1.73709,-2.96192 -0.77065,-5.44654 -2.17506,-7.78298 -0.11253,-0.18662 -0.488,-0.42856 -0.11369,-0.62012 3.12208,1.8803 7.65488,2.50327 8.61549,6.54999 1.69263,7.13069 -2.82383,15.26054 -4.4452,21.83949 -0.74154,3.00919 0.92547,4.46878 1.26555,7.27759 0.40499,3.34751 0.60434,4.42751 1.71101,7.58559 0.43321,1.23648 1.33138,5.28463 2.85926,5.19503 1.89054,-0.11113 8.87146,-5.96749 9.5622,-7.83157 0.63359,-1.7099 0.38256,-4.74097 -1.36581,-5.73298 -0.44803,-0.25435 -2.35446,-0.97421 -2.96829,-1.19011 -1.29893,-0.4572 -2.15361,-0.68686 -3.37034,0.19121 0.0757,0.0715 0.15153,0.12802 0.22686,0.17156 -0.10363,0.0494 -0.20205,0.0959 -0.29197,0.13333 -1.47796,-2.96869 3.47768,-0.46415 4.17132,-2.80035 0.35807,-1.20544 -1.03366,-4.86276 -1.16737,-6.56032 -0.70979,-8.99195 4.56192,-17.163 7.26984,-25.25996 1.10914,-3.31576 1.22306,-5.19289 -1.96887,-7.20266 -4.11127,-2.58939 -8.30194,-2.84761 -9.7007,-8.66562 -0.4258,-1.77165 1.34605,-4.54618 1.95389,-6.33088 2.45568,-7.20796 2.70231,-14.29539 -0.062,-21.47724 -0.26318,-0.68298 -1.79289,-3.22217 -1.54771,-3.60598 0.55103,-0.8636 4.61871,-3.03434 5.75572,-3.31091 11.1827,-2.71886 10.5759,9.84931 13.20798,16.40675 6.53732,16.28845 31.03949,13.38018 37.00497,-1.64745 1.72543,-4.34693 2.05994,-14.7057 -4.60437,-14.39809 -0.73801,0.0339 -2.20833,0.59927 -0.97255,0.74673 1.24319,0.14887 1.5492,-0.2246 2.58072,0.84749 2.8402,2.95099 -0.18451,8.35974 -3.26285,9.96735 -5.87692,3.06952 -14.31833,-2.2106 -15.57527,-8.36693 5.7725,3.5172 12.77432,0.37065 13.41778,-6.51381 0.0716,-0.76765 0.29053,-2.20777 -0.4563,-2.53938 -0.6029,5.5252 -7.60319,6.93772 -9.90224,1.46296 -2.95839,-7.044986 -1.62708,-12.608852 -9.24285,-17.666624 -12.09851,-8.034867 -25.90568,2.090808 -30.95676,13.424504 -0.3115,0.6992 -1.83048,5.21714 -2.11305,5.22139 -5.04331,-4.53743 -11.97612,-7.240558 -18.82883,-6.84403 -7.07637,0.40957 -14.13652,3.6303 -21.26898,3.92276 -11.43141,0.46849 -19.8993,-6.125426 -23.60735,-16.648082 4.11974,3.733093 7.58855,6.44115 13.50357,5.315438 6.77545,-1.28905 11.3145,-7.382832 10.71408,-14.254944 -0.2159,-2.474384 -1.8411,-5.863584 -4.6545,-5.619812 4.30565,3.152068 1.48476,10.541773 -2.52491,12.645739 -6.27415,3.292123 -10.95371,-2.240222 -11.6582,-8.11785 3.45475,2.620433 9.74909,0.390149 9.77873,-4.15892 -0.80328,0.171098 -1.03581,1.04735 -1.7322,1.567347 -2.5534,1.906762 -5.63103,0.198735 -6.9236,-2.327507 -0.6156,-1.203325 -0.52398,-2.451497 -0.88522,-3.459737 -0.11712,-0.327025 -0.016,-0.361226 -0.72657,-1.407149 l 1.62522,1.918746 c 1.38487,1.447254 3.23804,3.162595 5.14234,3.128022 0,0 3.2377,-0.109604 3.44157,-2.262339 -1.59017,1.106501 -3.07586,0.939342 -4.70347,0.145408 -1.99778,-1.005769 -4.22202,-4.413834 -4.62977,-7.801759 -0.18016,-0.513895 0.1365,-1.238557 -1.61181,-5.403937 0.68368,0.02574 1.10311,0.590907 1.75751,0.80822 3.90074,1.296149 6.0627,0.918635 7.94848,-1.934905 1.87607,-2.562225 -0.0174,-7.725673 -3.45521,-7.181335 -1.13912,0.180269 -2.62267,1.893458 -1.36219,2.67839 -0.41487,-2.526245 3.14754,-2.874656 3.80441,-0.747758 0.81527,2.640189 -1.50618,4.007701 -3.86591,3.624585 -5.09482,-0.827969 -8.0078,-13.033243 -12.65142,-15.358753 l 1.87482,-0.68833 c 6.04696,-2.493433 7.86301,-13.197935 0.32556,-14.721582 -0.13511,0.652286 0.16852,0.420767 0.48214,0.606681 2.58304,1.532115 3.3517,3.65839 1.82418,6.47144 -3.62444,6.67526 -11.59505,0.0077 -16.86202,-0.469222 -1.09009,-0.09842 -2.78873,-0.08459 -3.87987,0.02584 -0.93486,0.09455 -4.32056,1.271579 -4.63382,1.168921 -0.17322,-0.05715 -1.73949,-2.04575 -2.59674,-2.557983 -1.24813,-0.745067 -2.99813,-1.383247 -4.41524,-0.84491 2.05458,-2.289879 0.39934,-1.461993 -0.83044,-0.217041 -2.69557,2.728031 -3.71156,6.608953 -5.77742,9.759611 -0.29457,0.04233 -0.31554,0.08859 -0.50075,-0.148828 -0.38417,-0.493183 -0.72689,-1.886091 -1.07332,-2.551782 -0.45543,-0.875594 -3.024823,-5.828214 -3.920173,-5.616195 -0.795515,0.564092 -1.170893,4.764501 -1.718758,4.892208 -1.97767,-1.119717 -4.365432,-5.55833 -4.028178,-0.36897 0.15734,2.428169 0.997741,5.023413 1.216464,7.465694 -1.295048,-0.373591 -2.751014,0.376398 -3.907772,0.978235 C 88.97203,40.819986 87.358608,39.701697 86.471724,38.29482 82.625035,32.191764 78.637041,26.253606 74.588212,20.333643 71.959312,16.490482 68.221853,9.9624058 65.149512,6.7778809 64.873318,6.4915027 64.674827,6.1563357 64.416223,6.1665487 Z m 24.46584,145.0863013 1.159103,2.62827 c 0.208843,1.56986 0.409011,3.11878 0.302824,4.70875 -0.427213,-0.004 -0.346998,-0.70262 -0.505396,-1.03353 -0.523169,-1.0929 -0.836095,-2.81069 -0.95498,-4.22919 -0.05785,-0.68675 0.02424,-1.38825 -0.0016,-2.0743 z"
       sodipodi:nodetypes="ccccccccccsccccccccccccccsccsccscccccccccccscscccccccccccccccscccccccsccccccccccccccccccccccccscccccccccccccccccccccccccccccccccccccccccccccccccccccsccc" /></g><g
     id="layer1"
     style="display:inline;fill:#808080"
     transform="matrix(2.3378003,0,0,2.3378003,-135.07673,-8.2492948)"><path
       id="path1"
       clip-path="url(#clipPath2)"
       style="display:inline;fill:#000000;fill-opacity:1;fill-rule:nonzero;stroke:none"
       transform="matrix(0.35277777,0,0,-0.35277777,217.67779,197.08831)"
       d="m -434.44225,541.19554 c -0.38397,-0.0152 -0.81493,-0.29962 -1.34912,-1.01221 l 56.70997,-119.99854 c -5.72,-5.442 -11.71376,-11.55537 -11.71876,-20.10937 -0.005,-7.526 6.74084,-18.4222 -5.49316,-21.1582 1.869,-3.166 6.52551,-0.29043 8.64551,1.41357 l 3.82617,4.13818 c -0.548,-11.273 -3.1258,-20.57972 -7.7168,-30.76172 -4.419,-9.801 -11.08816,-18.75634 -15.51416,-28.17334 -5.221,-11.106 -0.0138,-9.82026 2.13721,-18.69726 1.573,-6.487 0.0882,-13.01902 9.65918,-13.91602 3.137,-0.294 6.22019,1.2101 7.61719,1.1001 0.693,-0.054 2.21174,-1.3703 3.63574,-1.6333 5.185,-0.96 15.88862,2.25099 17.66162,7.66699 0.864,2.637 0.22806,4.53271 0.70606,6.92871 1.226,6.136 18.52605,19.14293 24.33105,22.12793 7.919,4.071 17.18305,4.69549 24.39405,10.27149 10.402,-24.325 4.74298,-50.75136 1.72998,-75.94336 -0.49,-4.095 -0.0495,-10.11345 -0.7295,-13.83545 -0.323,-1.77 -4.14971,-8.1685 -5.15771,-10.7915 -6.634,-17.26 -7.88579,-36.66152 3.09521,-52.35352 l -36.88916,-13.0166 c -18.621,-3.105 -35.85796,-10.5746 -33.83496,-32.7876 0.485,-5.329 3.32704,-7.02518 4.68604,-11.26318 4.593,-14.327 -1.32632,-31.94189 1.05468,-46.10889 0.718,-4.27 4.54348,-7.932941 8.83448,-8.564941 1.644,-0.242 2.78474,0.342121 3.73974,0.224121 2.678,-0.332 13.34462,-13.626309 16.70362,-16.466309 7.657,-6.471 10.40741,-5.809008 18.89941,-8.833008 2.609,-0.929 5.89772,-3.597957 9.01172,-4.855957 4.277,-1.727 11.46972,-4.972761 14.63672,-0.405761 3.353,4.833 3.1193,20.877019 2.0083,26.770019 -1.945,10.316 -5.62904,11.040227 -14.91504,13.532227 -0.816,0.219 -2.78397,0.04664 -2.91797,0.18164 -0.168,0.169 0.0904,2.111407 -0.1626,2.941407 -1.122,3.677 -6.02728,4.446172 -8.82128,6.451172 -9.055,6.501 -9.89854,27.03675 -3.10254,35.61475 10.528,13.29 28.35986,4.02474 41.63086,2.23974 12.278,-1.652 23.01321,-0.69461 34.76221,3.17139 3.953,1.3 14.37567,7.05373 17.13867,7.17773 6.713,0.304 23.27187,-6.16643 30.96387,-7.89843 27.49,-6.192 52.48361,-3.35051 78.20361,7.85449 7.397,-14.567 20.91753,-25.23734 31.56153,-37.44434 4.988997,-5.721998 12.729915,-13.615647 12.065915,-21.764647 -0.993,-12.186 -17.986745,-30.877363 -26.614745,-39.297363 -6.957,-6.789 -29.85013,-24.530012 -31.93213,-32.562012 -0.645,-2.4879999 0.40845,-3.9119842 0.0644,-5.5839842 -0.888,-4.307 -9.52634,-14.306543 -7.92334,-18.9565428 0.429,-1.242 2.19517,-1.330117 3.24317,-1.620117 8.098,-2.237 24.96296,-1.741239 32.70996,1.530761 10.095,4.2630003 14.98173,23.2649652 0.69873,25.313965 2.382,8.361 5.77935,-0.194402 8.98535,-2.4624022 2.77326,-1.9624775 5.40416,-2.0533684 8.34521,-0.3208008 -0.0791,-0.055442 -0.71325,-1.2556546 -0.69433,-1.3710937 v -0.00146 -0.00146 l 0.001,-0.00146 v -0.00146 h 10e-4 v -0.00146 c 1.278,-0.174 2.02302,-0.029891 2.77002,1.0371094 -0.01,0.588 -1.88615,0.4307734 -2.07715,0.3427734 2.351,1.3869999 4.67587,5.5659759 6.588867,7.6259759 1.383,-0.163 -2.821647,-5.400636 -0.01465,-3.452636 6.02,15.46 4.420399,25.295449 17.358399,37.460449 0.715,0.672 2.783488,0.610641 1.375488,2.056641 -2.09,-1.114 -3.741152,-2.680832 -5.556152,-4.152832 -1.634,-1.325 -1.384914,-0.06062 -0.711914,0.713378 1.509,1.733 6.577652,5.069231 8.743652,6.511231 7.771,5.175 27.452447,14.361715 31.731447,21.657715 4.924,8.396 -2.184528,15.439011 -6.165528,22.062011 -0.319,0.529001 -1.383265,1.214811 -0.322265,1.757811 8.85,-5.329998 21.698875,-7.095893 24.421875,-18.566893 4.798,-20.213 -8.004586,-43.258226 -12.600586,-61.907226 -2.102,-8.53 2.623403,-12.6673944 3.587403,-20.62939444 1.148,-9.48899996 1.713097,-12.55044156 4.850097,-21.50244156 1.228,-3.505 3.773981,-14.980074 8.104981,-14.726074 5.359,0.315 25.1474699,16.915707 27.1054699,22.199707 1.796,4.847 1.0844179,13.43897653 -3.87158214,16.2509765 -1.26999996,0.721 -6.67406286,2.7615352 -8.41406286,3.3735352 -3.6819999,1.296 -6.1047109,1.9470078 -9.5537109,-0.5419922 2.739,-2.584 5.332395,1.8011133 9.0043945,-0.3588867 L -11.556489,4.0490517 -9.470551,1.6291299 c -5.257,0.237 -12.554973,-2.49377348 -13.146973,5.2822265 -0.489,6.4249996 7.904129,6.1961326 8.682129,9.9111326 0.219,1.042 -2.38693,4.483864 -3.00293,6.109864 -6.305,16.634 11.2933252,53.163058 16.13232515,70.935058 2.12100005,7.792999 5.64128115,17.144149 -2.63671885,22.327149 -8.5090003,5.327 -20.9278483,6.37339 -25.5688483,17.42139 -5.234,12.46 3.297379,21.4321 7.088379,32.7041 9.969,29.649 2.147558,62.60911 -23.377442,81.39111 -3.42,2.517 -7.761001,5.66228 -12.000001,6.36328 l 9.919922,-6.36328 c 37.8830004,-27.072 33.34418,-78.38914 7.40918,-112.22314 1.347,-1.216 6.277188,6.40271 7.617188,6.92871 0.322,-10.12 4.983715,-16.0093 13.407715,-20.9253 4.272,-2.493 16.4750558,-6.3157 18.33105585,-10.0957 2.02399995,-4.121 0.27411325,-9.94045 -0.73388675,-14.210448 -4.901,-20.767 -22.8889191,-54.624644 -16.9409191,-74.910644 0.418,-1.426 2.713786,-4.89234 2.529786,-5.67334 -0.332,-1.41 -7.479958,-2.94777 -8.230958,-7.7387697 -0.83,-5.294 2.396962,-9.58091016 7.584962,-10.3579102 -4.046,-3.795 -10.250501,-7.0171914 -15.937501,-6.5961914 -0.285,-1.818 0.317559,-1.4196445 1.747559,-1.4106445 2.965,0.017 4.627301,1.8116719 7.258301,1.7636719 -1.178,-1.203 -8.762422,-4.9002151 -9.732422,-4.2202151 -2.037,2.7470002 -1.01384,6.069383 -1.36084,9.067383 -0.29,2.50600005 -1.2795,6.0498086 -1.3125,8.4038086 -0.069,4.9800004 1.766906,11.7260154 2.003906,16.9160154 -0.989,-0.072 -2.072754,-3.390453 -2.072754,-3.814453 V 7.1706338 l -2.572266,5.4008792 c -0.547,1.764 -0.984609,3.359 -0.849609,5.25 0.401,5.611 6.551008,18.373836 8.458008,24.881836 3.484,11.886 9.554043,36.955144 1.894043,47.348144 -4.544,6.166 -17.657888,10.331257 -24.733888,14.093257 -20.3,10.792 -38.325982,23.4536 -47.479981,45.4336 -5.283,12.687 -9.02893,31.29196 -3.85693,44.33496 0.291,0.735 0.19777,2.0673 1.19677,1.9043 l 0.0132,-5.19141 1.37988,-7.28906 v 15.25927 c -2.585,0.626 -3.99322,-3.34346 -4.69922,-5.35546 -4.149,-11.83 -1.63346,-24.51928 1.22754,-36.25928 -12.502,4.551 -25.98121,-4.8353 -37.76221,-9.0293 -16.529,-5.885 -34.33802,-9.42873 -51.99902,-8.30273 -6.677,0.426 -12.93501,2.48146 -19.50001,3.37646 -8.137,1.11 -16.44148,1.3487 -24.52148,2.8667 l 8.67041,7.61133 c 8.294,9.954 13.93234,22.26884 14.19434,35.38184 -2.11,-0.895 -1.19839,-3.78804 -1.56739,-5.70704 -2.915,-15.12 -10.95791,-30.69959 -25.46191,-37.28759 12.936,10.712 17.03352,27.08932 20.58252,42.86132 1.203,5.344 3.04512,12.63625 3.59912,17.90625 0.081,0.765 0.62302,2.49943 -0.60498,2.33643 -6.236,-24.17 -8.81899,-61.56681 -38.79199,-67.65381 -14.172,-2.879 -28.84061,1.45508 -43.01661,2.45508 l 2.43018,-1.37695 c 14.101,-1.619 28.53588,-5.54033 42.62988,-2.09033 -0.181,-1.208 -1.40995,-1.17771 -2.23095,-1.57471 -10.224,-4.94 -24.24494,-6.24765 -35.46094,-5.26465 -14.169,1.24 -30.46309,11.25839 -43.43409,0.27539 -9.864,-8.353 -9.27363,-29.88288 -1.74463,-39.254883 2.235,-2.782 11.73162,-6.333109 6.30762,-10.412109 -3.911,-2.941 -9.22222,5.964961 -10.42822,9.084961 -0.559,1.446 -2.43604,7.559161 -2.43604,8.660161 v 12.83056 l -1.30078,-5.28808 c -0.618,-8.498 2.2296,-20.552571 9.2666,-25.955571 0.854,-0.656 4.57764,-0.963023 1.47364,-2.124023 -2.207,-0.825 -4.48111,-0.344938 -6.66211,-0.960938 l 8.64258,-2.488769 c 2.05,-0.19 9.17145,6.166848 10.83545,3.818848 3.094,-4.363 -6.21758,-23.677383 -10.78858,-26.692383 -2.849,-1.88 -8.35555,4.774726 -10.43555,6.969726 -2.494,2.631 -13.227,14.843102 -13.875,17.329102 -0.526,2.014 -0.45302,4.548672 -0.35302,6.638672 0.553,11.599 2.43889,24.908016 -0.28711,36.416016 -2.458,10.376 -8.88982,12.302 -4.38282,25.125 5.533,15.742 14.82895,13.42603 28.27295,16.10303 7.918,1.576 15.9869,4.56488 23.3379,7.85888 10.739,4.812 21.84416,15.07889 33.51416,5.33789 9.11,-7.603 -4.5061,-12.60401 -10.7461,-14.93701 -15.899,-5.943 -33.08187,-7.44847 -49.92187,-8.35547 -3.606,-0.194 -4.279,2.04319 -5.896,-2.02881 5.904,1.227 4.66589,-5.76937 4.85889,-9.71337 1.069,0.042 1.39395,3.14452 1.37695,3.81152 -0.057,2.255 -1.44021,4.30447 -1.38721,6.58447 19.16,1.712 39.11722,2.54832 56.82422,10.77832 5.449,2.533 12.41142,6.22883 7.64942,13.15283 -3.369,4.897 -11.53402,5.49466 -16.64502,9.70166 -13.234,10.894 -17.84246,29.80001 -9.81446,45.20801 9.808,18.822 32.12022,26.61283 52.11622,28.31983 -16.007,1.314 -32.42919,-5.15798 -44.36719,-15.60498 2.106,4.798 4.90983,9.30819 7.04883,14.09619 19.358,43.323 19.55017,101.29593 -17.44483,135.37793 -2.323,2.141 -14.2425,12.02799 -16.3125,12.81299 -1.222,0.463 -1.18446,-0.61524 -1.02246,-1.36524 54.663,-32.948 56.92291,-105.29637 28.08691,-156.77637 -3.181,-5.678 -7.6134,-10.95454 -10.4414,-16.60254 -0.847,-1.692 -2.40262,-4.21217 -1.70362,-5.90917 -3.368,1.056 1.2816,-3.16491 -2.0874,-2.10791 0.86,-1.819 -0.3888,-3.40362 -0.6958,-5.18262 -1,-0.165 -0.96448,1.22013 -1.16748,1.93213 -10.329,36.299 8.25081,74.14191 -1.24219,111.81591 -0.4,1.587 -3.11057,8.04455 -3.01757,8.56055 0.254,1.398 2.90129,2.26649 3.67529,3.25049 0.196,0.248 2.60554,3.9458 2.72754,4.1748 0.746,1.396 0.90814,3.25302 1.11914,4.81202 1.087,1.103 4.37641,-9.97578 4.64941,-10.94678 10.767,-38.329 -1.70406,-63.24692 -7.93506,-99.16992 -0.98,-5.645 -1.49904,-11.10723 -0.87304,-16.80323 l 2.40381,16.65821 c 8.015,31.78 16.66182,65.03764 8.34082,97.78564 -0.953,3.748 -4.72252,11.42281 -4.99952,14.29981 -0.946,9.835 1.79656,14.24695 -2.85644,25.00195 -1.11,2.564 -7.92753,13.59826 -10.18653,14.09326 -0.848,0.186 -1.20907,-0.53818 -1.70507,-1.03418 9.972,-11.165 16.92454,-27.31974 9.95654,-41.88574 -5.107,-10.676 -16.8745,-17.53072 -28.6875,-14.63672 l 1.37988,1.37256 c -4.822,-0.76 -8.22761,1.15841 -12.47461,2.77441 1.398,-2.754 4.81253,-3.1639 7.29053,-4.1499 0.814,-0.323 1.30278,0.52772 1.02978,-1.38428 -9.397,-2.287 -18.32642,-7.49036 -27.73242,-9.02636 -0.451,-1.706 1.03967,-1.73984 2.30567,-1.90284 5.491,2.797 11.71731,5.84493 17.79931,6.75293 -4.514,-3.912 -8.96214,-7.95363 -12.47314,-12.82763 -0.149,-0.479 0.72032,-0.50238 1.02832,-0.33838 0.578,0.307 6.60613,7.55876 8.30713,9.03076 4.552,3.942 10.42369,7.89864 16.63769,8.32764 0.747,0.052 2.6279,0.44655 2.4419,-0.71045 -3.195,0.898 -3.04479,-0.92465 -4.77979,-1.78565 -8.155,-4.049 -23.62012,-13.96511 -27.70312,-22.24511 -1.439,-2.918 -0.3102,-5.934 -1.8252,-9.271 -2.341,-5.158 -11.92426,-7.54045 -16.98926,-6.23145 l 6.12305,7.39454 c 1.895,3.149 6.63464,9.18568 5.70264,12.95068 -0.123,0.591 -1.36504,0.91351 -1.79004,0.87451 -5.621,-0.514 -7.94948,-18.52678 -18.68848,-17.80078 -4.969,0.336 -4.25367,4.44552 -7.28467,6.97852 0.838,-10.225 10.76609,-10.79617 16.91309,-4.09717 3.444,3.753 4.24914,9.63794 8.72314,12.41894 -2.736,-9.688 -9.64668,-19.82967 -21.09668,-17.99267 -6.566,1.054 -5.60947,8.59636 -6.95947,13.15136 -1.258,4.244 -5.31958,8.25699 -3.49658,13.18799 6.68,13.234 15.62605,25.41237 20.47705,39.50537 1.306,0.141 0.57403,-1.4064 0.35303,-2.0874 -3.403,-10.506 -10.30737,-19.97937 -13.52637,-30.50537 1.042,0.161 1.2917,1.30943 1.7417,2.06543 5.888,9.883 15.76625,30.20819 16.88525,41.36719 0.687,6.845 -1.47009,14.6566 0.87891,20.6206 3.777,9.593 12.64884,17.53446 18.61084,25.77246 l 4.48975,-5.92529 c 3.159,-3.239 7.54688,-5.28401 11.98388,-6.04101 1.664,-0.284 5.5949,0.13742 6.2959,-0.28858 0.24,-0.146 1.04734,-2.35455 0.79834,-2.66455 -0.227,-0.283 -1.76582,1.32163 -2.06982,0.34863 4.235,-4.192 6.25901,-10.12151 9.41601,-14.85351 0.495,-0.744 3.51641,-5.16175 4.44141,-4.21875 l -11.77295,21.16113 c -0.685,1.748 4.7406,0.98279 5.8916,1.02979 0.841,0.035 2.57753,-0.52446 2.41553,0.68554 -1.663,-0.041 -3.31023,0.19167 -4.53223,1.38867 2.555,4.841 -5.30747,5.46905 -8.56347,8.74805 -1.287,1.296 -3.80785,5.12888 -4.19385,6.90088 -0.133,0.612 -0.58301,3.84497 0.64599,3.77197 -0.632,-3.1 8.08134,-10.47581 8.94434,-6.52881 0.48,2.191 -3.92442,14.636 -4.10742,18.646 -0.094,2.048 2.13117,17.04489 2.80517,17.71289 1.055,1.045 2.76145,-2.81803 3.12745,-3.45703 2.875,-5.022 5.57247,-10.8831 4.33447,-16.8501 -0.846,-4.078 -5.8159,-7.56857 -4.6919,-12.28857 3.132,-0.811 4.85524,4.38235 6.24024,5.23535 0.815,0.501 16.22732,-3.64231 18.54932,-4.36231 39.606,-12.278 63.51489,-37.74021 77.81689,-76.11621 11.191,-30.029 18.15829,-67.64082 50.44629,-82.69482 40.7,-18.975 76.15063,13.09163 115.91163,2.22363 18.322,-5.008 29.424451,-14.87626 40.085451,-29.94726 2.401,-3.395 5.889972,-7.75986 6.021972,-12.00586 -9.465,14.957 -24.232079,27.38133 -41.080079,33.11133 -37.801,12.858 -65.947164,-11.80662 -102.410164,-8.82862 -9.589,0.783 -17.30765,4.45034 -25.24365,9.42334 -0.59,0.37 -1.507,1.73349 -2.146,0.62549 4.766,-4.082 10.7853,-7.12405 16.8003,-8.85205 43.534,-12.503 78.271663,27.05382 124.826663,0.73682 30.586,-17.29 42.2465712,-46.37627 33.559571,-80.46827 -2.623,-10.295 -12.022324,-25.45023 -8.632324,-35.38623 2.746,-8.047 12.018418,-8.57541 19.0034184,-11.50341 13.407,-5.62 20.3076766,-8.93508 14.6176763,-24.58008 -5.32,-14.630002 -13.256696,-29.604776 -18.8876957,-44.217776 -4.752,-12.334 -8.018247,-22.181488 -4.302247,-35.500488 0.199,-0.715 0.164551,-2.100988 1.164551,-1.937988 -0.202,6.326 -2.142558,12.314238 -1.372558,18.719238 l 1.372558,-7.621582 c 0.509,6.13 0.146883,11.126637 1.754883,17.327637 0.205,0.789 -0.04693,2.253937 1.018067,2.085937 -0.678,-6.38 -1.84725,-12.626168 -1.40625,-19.097168 0.269,-3.944 3.6726129,-14.467679 2.4536129,-16.971679 -1.1239999,-2.312 -6.1600389,-2.6047 -8.1650389,-3.6167 -4.06,-2.0499996 -4.577106,-7.2586441 0.191894,-8.1606441 -6.673,10.8100001 8.8707778,2.5060469 10.9467778,9.4980471 1.015,3.417 -2.9300821,13.784191 -3.3090818,18.596191 -2.012,25.489 12.9314223,48.651027 20.607422,71.603025 3.144,9.399 3.466945,14.71999 -5.5810546,20.41699 -11.654,7.34 -23.5330474,8.07197 -27.4980474,24.56397 -1.207,5.022 3.815574,12.8868 5.538574,17.9458 6.961,20.432 7.6602187,40.52237 -0.175781,60.88037 -0.746,1.936 -5.082208,9.13368 -4.387208,10.22168 1.562,2.448 13.0924308,8.60125 16.3154308,9.38525 31.6990002,7.707 29.9789432,-27.91932 37.4399432,-46.50732 18.531,-46.172 87.986004,-37.92808 104.896004,4.66992 4.891,12.322 5.83924,41.68548 -13.05176,40.81348 -2.092,-0.096 -6.25984,-1.6987 -2.75684,-2.1167 3.524,-0.422 4.39143,0.63666 7.31543,-2.40234 8.051,-8.365 -0.52302,-23.69691 -9.24902,-28.25391 -16.659,-8.701 -40.587395,6.26629 -44.150395,23.71729 16.363,-9.97 36.210665,-1.05065 38.034665,18.46435 0.203,2.176 0.82355,6.25824 -1.29345,7.19824 -1.709,-15.662 -21.552339,-19.66597 -28.069339,-4.14697 -8.386,19.97 -4.612197,35.74161 -26.200197,50.07861 -34.295,22.776 -73.433468,-5.92671 -87.751468,-38.05371 -0.883,-1.982 -5.188746,-14.78878 -5.989746,-14.80078 -14.296,12.862 -33.948049,20.52439 -53.373049,19.40039 -20.059001,-1.161 -40.072041,-10.29063 -60.290041,-11.11963 -32.404,-1.328 -56.40746,17.36341 -66.91846,47.19141 11.678,-10.582 21.51083,-18.25838 38.27783,-15.06738 19.206,3.654 32.07261,20.92771 30.37061,40.40771 -0.612,7.014 -5.21885,16.62118 -13.19385,15.93018 12.205,-8.935 4.20878,-29.88219 -7.15722,-35.84619 -17.785,-9.332 -31.04988,6.35023 -33.04688,23.01123 9.793,-7.428 27.63524,-1.10594 27.71924,11.78906 -2.277,-0.485 -2.93616,-2.96887 -4.91016,-4.44287 -7.238,-5.405 -15.96198,-0.56335 -19.62598,6.59765 -1.745,3.411 -1.48527,6.94913 -2.50927,9.80713 -0.332,0.927 -3.09257,1.24477 -2.05957,3.98877 l 4.60693,-5.43896 c 4.341,-2.975 9.06001,-5.10777 14.45801,-5.00977 l 5.88428,1.43701 h -10.05176 c -0.267,0 -4.33054,1.63157 -4.97754,1.95557 -4.295,2.148 -8.62192,7.28804 -9.91992,11.91504 5.183,-6.248 11.12673,-10.97755 19.07373,-13.16455 2.064,0.001 0.63729,0.80189 -0.17871,1.21289 -5.663,2.851 -12.517,5.59499 -14.042,12.64599 4.155,-4.483 10.75829,-11.31695 17.61329,-10.37695 0.832,0.114 3.64172,0.99685 3.86572,2.04785 -3.984,-1.123 -4.90828,-1.70587 -8.98828,-0.31787 -12.647,4.304 -14.71369,21.56917 -19.42969,32.22217 1.938,-0.073 3.12693,-1.67502 4.98193,-2.29102 8.662,-2.879 18.83614,0.78939 21.36914,9.92139 l 1.01514,-2.75391 c 5.318,7.263 0.0975,20.21683 -9.64746,18.67383 -3.229,-0.511 -7.43433,-5.36728 -3.86133,-7.59228 -1.176,7.161 8.92218,8.14863 10.78418,2.11963 2.311,-7.484 -4.26949,-11.36042 -10.95849,-10.27442 -14.442,2.347 -22.69931,36.94462 -35.86231,43.53662 l 5.31445,1.95118 c 17.141,7.068 22.28885,37.41146 0.92285,41.73046 -0.383,-1.849 0.4777,-1.19272 1.3667,-1.71972 7.322,-4.343 9.5009,-10.37024 5.1709,-18.34424 -10.274,-18.922 -32.86785,-0.0219 -47.79785,1.33008 -3.09,0.279 -7.90505,0.23976 -10.99805,-0.0732 -2.65,-0.268 -12.24725,-3.60448 -13.13525,-3.31348 -0.491,0.162 -4.93084,5.79898 -7.36084,7.25098 -3.538,2.112 -8.49863,3.92102 -12.51563,2.39502 5.824,6.491 1.132,4.14423 -2.354,0.61523 -7.641,-7.733 -10.52096,-18.73404 -16.37696,-27.66504 -0.835,-0.12 -0.89443,-0.25112 -1.41943,0.42188 -1.089,1.398 -2.06048,5.34639 -3.04248,7.23339 -1.291,2.482 -8.57431,16.52093 -11.11231,15.91993 -2.255,-1.599 -3.31907,-13.50568 -4.87207,-13.86768 -5.606,3.174 -12.37445,15.7559 -11.41845,1.0459 0.446,-6.883 2.82824,-14.2396 3.44824,-21.1626 -3.671,1.059 -7.79815,-1.06695 -11.07715,-2.77295 -0.437,5.087 -5.0109,8.25663 -7.5249,12.24463 -10.904,17.3 -22.20855,34.13257 -33.68555,50.91357 -7.452,10.894 -18.04637,29.39879 -26.75537,38.42579 -0.78291,0.81178 -1.34557,1.76186 -2.07862,1.73291 z m 9.0337,-19.40186 c 3.498,-0.139 2.50257,-5.17084 5.53857,-6.23584 l -2.07275,4.1543 c 1.837,1.364 6.54304,-5.01578 3.12304,-6.92578 -3.454,2.513 -4.96486,5.09132 -6.58886,9.00732 z m 5.55175,-9.70459 c 2.633,-3.069 3.99867,-6.36344 8.30567,-7.62744 l -0.34424,2.77002 c 1.349,-1.224 2.63671,-2.59919 3.28271,-4.34619 2.51,-6.786 -1.7297,-3.00609 -4.3667,-0.89209 -0.77,0.617 -3.01005,2.33121 -3.43505,2.72021 -1.638,1.498 -3.31239,5.13149 -3.44239,7.37549 z m 4.85303,-11.09766 c 2.298,-1.064 5.90377,-5.28319 8.48877,-4.72119 0.593,0.129 1.22838,1.11107 1.56738,1.12207 1.302,0.045 3.82246,-6.17455 4.02246,-7.64355 0.076,-0.561 0.6605,-1.88148 -0.5625,-1.91748 -0.422,-0.012 -6.80273,3.12765 -7.28173,4.13965 l 2.07275,0.3457 c -1.271,1.076 -9.80013,6.8908 -8.30713,8.6748 z m 4.15869,-10.40185 c 1.882,-1.598 8.96645,-7.35804 11.10645,-5.91504 0.434,0.293 0.52222,1.43693 0.78222,1.60693 2.03,1.321 5.0616,-4.74188 5.3086,-6.62988 0.224,-1.711 -0.36343,-4.60916 -2.71143,-3.99316 -0.441,0.116 -7.46555,4.11211 -7.91455,4.51611 -1.133,1.018 -1.54013,2.5586 -2.41113,3.6416 -1.548,1.923 -3.99216,3.60944 -4.16016,6.77344 z m 7.15869,-13.07666 c 1.08811,0.0775 4.20587,-3.62986 5.0669,-4.16455 2.071,-1.286 6.24585,-0.98384 4.40185,-4.25684 4.361,-0.923 2.44002,2.22151 2.77002,5.54151 -1.049,0.199 -0.79991,-1.22849 -1.35791,-1.75049 -0.838,-0.786 -1.81957,-0.39695 -1.41357,0.70605 0.246,0.667 1.2658,0.35044 1.7168,1.04444 0.53,0.816 -0.13325,2.25761 1.05175,2.07861 2.686,-4.659 7.28302,-7.76643 5.56202,-14.06543 -1.089,-3.983 -10.13857,0.56636 -12.08057,2.33936 -2.916,2.663 -5.30827,8.55987 -5.94727,12.42187 0.0605,0.0652 0.13777,0.0989 0.22998,0.10547 z m 99.10987,-0.77344 c 0.15117,0.009 0.31106,10e-4 0.48193,-0.0278 -2.062,-3.451 -1.47297,-8.0968 -2.27197,-11.9458 -2.33,-11.224 -8.08228,-21.78548 -19.21728,-26.18848 0.689,4.737 1.28814,2.61435 3.84814,4.11035 1.552,0.907 6.13261,6.37153 7.12061,8.14453 3.878,6.961 4.55783,17.60608 7.90283,23.99708 0.47775,0.9135 1.07755,1.84697 2.13574,1.91015 z m 95.44922,-0.0249 c 1.83,-9.661 -2.75832,-20.78199 -11.63232,-25.45899 -7.99,-4.212 -8.41392,-0.38533 -16.08692,1.18067 l 13.16309,-10.74756 c 4.842,-6.31 9.62608,-12.94954 12.47608,-20.45654 -3.15,3.869 -6.33209,7.82547 -9.30909,11.83447 -4.815,6.487 -6.10754,9.91468 -13.22754,15.20068 -19.333,14.349 -45.43709,10.56768 -64.74609,-1.77832 -7.757,-4.96 -14.37454,-12.61958 -23.62354,-14.85058 -0.411,1.881 0.55902,1.18186 1.37402,1.71386 13.069,8.533 17.54924,21.012 32.11524,27.542 14.012,6.281 29.58894,6.08614 43.81494,0.57714 l 8.64844,-3.47314 c -6.214,0.619 -11.75342,4.10243 -17.87842,5.33643 -10.485,2.111 -22.98794,0.0424 -31.33594,-6.72364 10.274,4.754 20.55795,7.58357 31.91895,5.22657 13.204,-2.74 18.68652,-10.25481 33.60352,-4.54981 1.872,0.716 -0.49523,-2.50609 1.36377,-1.37109 2.947,1.8 7.8872,9.6183 8.5122,12.9873 z m -99.1333,-1.38428 -3.46582,-12.48047 c -1.162,-0.183 -0.75199,1.6819 -0.70899,2.4419 0.185,3.326 1.55481,7.85357 4.17481,10.03857 z m 10.80176,-2.7539 c 0.0962,-0.003 0.19608,-0.0129 0.29736,-0.0278 -5.048,-4.722 -3.09798,-11.68777 -5.20898,-17.32177 -3.245,-8.655 -13.47832,-17.77123 -21.82032,-21.51123 -0.069,1.004 0.11832,2.12295 0.65332,2.98095 0.841,1.346 7.6254,5.95576 9.7544,8.44776 6.142,7.188 8.37813,16.95202 10.39013,26.02002 1.332,0.426 0.004,-6.4247 2.06543,-4.1587 0.32841,0.36135 0.88741,5.67459 3.86866,5.57081 z m -42.6753,-0.022 c 10.04,-12.764 21.13257,-33.10543 4.85157,-45.77343 l 5.21484,8.99414 c 1.257,5.091 0.9235,8.18551 -0.9375,12.97851 -2.495,6.426 -7.65381,11.14002 -7.75781,18.24902 l -4.86768,-26.66162 c -0.633,-2.858 5.54107,-17.73462 4.87207,-18.41162 -1.632,-1.651 -5.3425,4.37707 -5.9165,5.51807 -7.67,15.235 2.01501,29.93993 4.54101,45.10693 z m 45.54786,-1.73144 c 1.51142,-0.0204 3.2602,-1.49147 5.05078,-5.19141 -3.592,-1.417 -6.87373,-3.86102 -9.69873,-6.24902 -0.55027,5.44286 1.55313,11.48229 4.64795,11.44043 z m 28.30517,-0.32227 c 14.062,-0.425 28.31856,-11.83005 39.99756,-10.24805 3.313,0.449 5.89226,2.02579 8.84326,3.27979 -8.052,-11.125 -22.43393,-1.30118 -32.73193,1.59082 -7.345,2.062 -13.96629,2.50254 -21.67529,1.87354 -3.353,-0.274 -10.45365,-2.8638 -12.55665,-2.7378 -0.904,0.054 -1.87859,0.74276 -1.66259,1.69776 0.544,2.41 16.88364,4.63194 19.78564,4.54394 z m -47.52539,-2.79931 c -0.174,-7.898 -4.03102,-17.40277 -11.77002,-20.11377 -0.541,0.543 4.333,6.08143 4.979,7.14843 2.474,4.083 3.77702,9.40934 6.79102,12.96534 z m -70.69483,-0.69727 c 1.167,-0.447 2.16308,-3.02075 2.45508,-4.11475 0.343,-1.283 1.0886,-5.24132 0.1626,-6.11132 -2.504,-2.351 -6.54884,0.89632 -8.86084,2.25732 0.994,0.92 2.54001,-0.46989 3.79101,-0.35889 3.57,0.318 2.24815,5.82564 2.45215,8.32764 z m 29.80811,-0.68994 c 1.04,-0.488 9.42766,-7.22424 8.30566,-8.32324 -6.17,3.473 -0.74336,-0.86867 -0.67236,-1.18067 0.186,-0.804 0.20858,-2.9769 -0.35742,-3.6709 -3.029,2.737 -3.69542,4.50009 -5.02442,8.18409 -0.398,1.105 0.37048,1.85904 -1.56152,1.51904 l 4.59375,-19.85596 -1.12353,-4.41211 c -2.078,9.111 -4.47016,18.29975 -4.16016,27.73975 z m 66.78369,-1.54834 c 0.55862,-0.0164 0.86217,-0.32835 1.14405,-1.21729 -4.828,-1.576 -8.82609,-5.08469 -13.16309,-7.63769 -0.22,1.271 0.87452,2.05948 1.72852,2.77148 0.96,0.8 8.60063,5.77473 9.34863,5.94873 0.38062,0.0888 0.68798,0.14222 0.94189,0.13477 z m -108.38086,-4.69776 c 3.285,-1.484 6.81446,-4.40449 10.39746,-5.22949 2.034,-0.469 3.59404,0.1986 5.54004,-0.3164 l 0.34717,5.54589 c 3.166,-3.528 7.46646,-9.04205 4.12646,-13.83105 -2.256,-3.235 -14.85917,-0.812 -15.55517,4.125 2.27,-1.77 4.89299,-3.47938 7.56299,-4.56738 1.006,-0.409 2.01401,-0.43433 1.43701,0.74267 -0.515,1.051 -8.582,4.16336 -10.771,6.56836 -1.6,1.759 -2.64396,4.6404 -3.08496,6.9624 z m 135.83204,-4.0708 c 14.33987,-0.65725 27.96079,-6.91037 36.77929,-20.19287 l -11.07421,6.59912 c -17.524,7.742 -35.04731,6.81778 -52.25831,-1.15722 -3.411,-1.58 -13.78597,-6.9143 -16.25097,-9.0293 -0.134,-0.115 0.49413,-1.0305 -0.10987,-1.5835 -0.861,-0.788 -5.66154,-4.75216 -5.56054,-2.11816 0.024,0.614 5.15725,3.16 5.53125,4.5 -2.695,-0.024 -5.16088,-3.62936 -7.44288,-4.04736 -2.376,-0.435 -4.63128,1.67259 -7.11328,1.28759 l 16.40772,12.35889 c 11.693,9.1005 26.75192,14.04006 41.0918,13.38281 z m -56.1211,-3.55517 c -0.051,-2.428 -2.08651,-4.08149 -4.14551,-4.85449 z m -56.15332,-3.47315 c 2.63,-6.906 -2.2312,-9.09638 -8.3042,-6.92138 l 5.51367,1.75195 z m 110.7876,-2.41992 c 11.97459,0.2266 24.87533,-3.37629 34.05908,-9.75879 10.05,-6.985 14.98646,-16.91561 22.93946,-25.59961 4.275,-4.667 9.29731,-9.46359 15.92431,-10.07959 0.191,-1.162 -1.70099,-0.77047 -2.41699,-0.68847 -10.553,1.212 -19.74989,17.71698 -26.33789,24.97998 -18.48,20.374 -34.94333,20.14192 -59.25733,10.02392 -4.961,-2.065 -17.66084,-9.82472 -21.44384,-10.34472 -0.897,-0.123 -5.53402,0.57513 -4.91602,2.03613 0.557,1.316 7.94579,5.51377 9.65479,6.98877 1.058,0.913 1.07275,2.4426 2.17675,3.3706 1.145,0.961 16.11152,6.9923 18.12452,7.5293 3.61375,0.9655 7.50163,1.46695 11.49316,1.54248 z m -108.01465,-1.04736 c 5.249,-6.419 4.99949,-16.39415 -5.54151,-14.55615 2.084,4.281 -3.93541,2.60128 -5.77441,2.98828 -3.871,0.814 -6.3298,5.75626 -6.6958,9.48926 0.608,0.627 11.54644,-7.39213 16.25244,-1.34913 0.999,1.283 0.52828,3.11474 1.75928,3.42774 z m 121.65088,-4.81934 c 7.40312,-0.35217 14.74291,-2.84779 21.86572,-8.69092 5.562,-4.564 7.65593,-9.21968 11.79493,-14.55468 2.245,-2.894 7.38794,-7.66325 9.04394,-10.40625 0.415,-0.688 0.57401,-3.44198 1.33301,-4.52198 l -11.05664,12.167 c -15.533,14.89 -32.24239,16.71055 -52.56739,10.91455 -3.851,-1.098 -15.47021,-6.76275 -17.82421,-6.84375 -1.995,-0.068 -4.47794,2.32809 -6.58594,2.49609 -0.349,1.616 0.21116,1.10895 0.88916,1.54395 14.679,9.427 36.25269,13.42496 53.01269,8.33496 7.3,-2.217 12.70218,-6.55697 19.57618,-9.18897 -3.453,2.58 -7.92002,5.39506 -11.77002,7.28906 -16.148,7.945 -30.28512,6.82083 -46.99512,1.21583 -4.349,-1.459 -14.43569,-6.97144 -17.82569,-7.14844 -1.376,-0.072 -1.11636,0.16639 -1.04736,1.40039 15.27556,7.1665 31.86987,16.76794 48.15674,15.99316 z m -107.08741,-2.11816 -7.61865,-4.15137 c -0.449,3.685 4.99865,4.17537 7.61865,4.15137 z m 30.18604,-2.04199 c 0.10168,0.002 0.20796,-0.0102 0.31934,-0.0381 l -2.76856,-4.15137 c 0.45563,0.99657 0.92408,4.16551 2.44922,4.18946 z m -39.20361,-0.7295 c 2.107,-4.821 -2.03317,-14.19186 -6.99317,-15.58886 -4.624,-1.301 -9.46847,3.23096 -8.93847,7.95996 4.619,-1.836 10.09435,-3.99506 13.86035,0.68994 -3.102,-0.697 -6.71754,-2.18372 -9.85254,-0.65772 -0.749,0.365 -0.73642,1.25356 -1.27442,1.64356 -0.799,0.578 -2.22052,-0.0843 -2.04052,1.0957 2.249,1 2.78104,-1.18961 3.29004,-1.32861 2.438,-0.664 7.8223,-1.0848 9.7163,0.8042 1.139,1.136 0.72543,4.61083 2.23243,5.38183 z m 69.67676,-0.68994 c 0.11584,0.003 0.2317,6.8e-4 0.3457,-0.007 l -4.8501,-2.75977 c 0.86156,1.42219 2.76673,2.71638 4.5044,2.76709 z m -57.19336,-2.08447 c -3.39,-7.201 1.07816,-15.00705 6.24316,-20.10205 -7.122,-0.159 -10.49349,8.63005 -10.27149,14.74805 z m -5.19288,-0.69287 c 0.339,-2.927 -0.66511,-5.56935 -0.28711,-8.61035 0.883,-7.116 6.3205,-12.46569 13.1045,-14.28369 0.059,-1.24 -3.11865,-0.77114 -3.76465,-0.64014 -9.672,1.951 -16.71574,15.46118 -9.05274,23.53418 z m 6.59034,-0.69434 1.91455,-8.82422 c 1.383,-3.287 3.3031,-5.91941 5.7041,-8.50341 -6.71,2.371 -9.85765,10.77963 -7.61865,17.32763 z m -11.10645,-2.07568 c 0.6,-8.302 -3.74264,-8.77282 -8.70264,-12.46582 -0.725,-0.54 -0.88112,-1.89077 -1.07812,-2.00977 -1.744,-1.051 -6.15901,4.11775 -5.45801,4.76075 10.473,-4.942 10.13477,3.45384 15.23877,9.71484 z m 36.93604,-1.41943 c -0.99146,0.007 -1.69628,-0.52979 -0.87891,-1.34473 0.627,-0.627 13.88678,-3.99949 16.30078,-4.85449 19.23,-6.804 29.85259,-12.19953 40.82959,-29.89453 11.653,-18.783 19.06668,-41.99661 22.59668,-63.74561 1.285,-0.11 0.68259,2.26176 0.60059,3.03076 -0.459,4.316 -2.17904,11.07253 -3.29004,15.43653 -5.069,19.915 -13.53323,39.24437 -25.74023,55.73437 0.595,0.545 3.52894,-1.88313 4.16894,-2.41113 29.547,-24.393 41.11827,-71.31638 45.05127,-107.85938 1.11601,0.0339 4.61264,-10.63237 6.24463,-12.13037 -0.71,-0.218 -2.7965,1.31884 -3.1875,1.73584 -0.942,1.003 -0.33519,1.72027 -0.49219,1.92627 -1.552,2.04 -2.42094,-0.12902 -2.56494,5.00098 -0.067,-0.648 -1.34715,-3.00151 -1.32715,-3.87451 0.006,-0.254 2.42883,-0.28632 1.31983,-1.67432 -0.16576,-0.16709 -2.78526,1.59035 -1.73438,-0.004 12.419,-5.529 17.82834,-17.54801 28.44434,-25.64501 44.006,-33.561 82.42029,9.0922 124.59229,-5.7378 15.096,-5.308 23.343681,-15.79589 33.096681,-27.56689 -0.009,0.343 0.08004,0.70783 0.01904,1.04883 -0.379,2.122 -11.937676,14.92489 -14.242676,16.96289 -43.911,38.807 -93.612015,-19.68899 -141.687015,15.68701 -33.756,24.84 -26.61874,50.64945 -37.28174,85.46045 -13.964,45.584 -44.30258,72.78556 -90.12158,84.62256 -0.24413,0.063 -0.48752,0.0949 -0.71631,0.0967 z m 99.63867,-135.90821 c -1.69867,-0.0515 -0.0595,-2.92622 -0.001,-3.43066 -0.0201,0.93758 0.1988,1.5963 0.001,3.43066 z m -20.76123,135.03369 c 1.87135,-0.0983 3.76345,-0.31293 5.6792,-0.65918 14.452,-2.612 23.03413,-12.40961 32.41113,-22.70361 l -18.25048,13.29053 c -12.822,7.569 -26.93062,10.00723 -41.34962,5.76123 -2.579,-0.76 -14.16592,-6.96984 -15.27392,-6.23584 -0.664,0.44 -0.81755,0.96537 -0.68555,1.73437 12.27363,4.54475 24.36979,9.50042 37.46924,8.8125 z m -5.69678,-4.31836 c 8.92408,-0.21037 17.72002,-3.02058 25.55127,-7.81933 6.046,-3.705 8.89011,-7.85597 12.55811,-13.79297 0.927,-1.5 2.26906,-3.23836 2.20606,-5.06836 -13.942,16.536 -31.41679,23.21888 -53.05079,21.52588 -4.079,-0.32 -7.45796,-1.81665 -11.23096,-2.63965 -0.7,-0.152 -2.43332,-0.70212 -2.25732,0.52588 3.648,0.92 6.7121,3.46201 10.2041,4.70801 5.26538,1.878 10.66509,2.68677 16.01953,2.56054 z m -126.49512,-5.00097 c 0.17153,-0.008 0.31947,-0.0655 0.43799,-0.18164 1.143,-1.119 -3.5639,-3.84526 -4.1499,-4.51026 -3.876,-4.404 -5.95453,-8.95285 -5.89453,-14.90185 -2.185,2.542 0.19528,8.89819 1.59228,11.57519 0.61858,1.18553 5.99009,8.10844 8.01416,8.01856 z m 117.47608,-1.06641 c 14.51508,0.80986 28.95165,-3.69579 40.3374,-13.32129 9.038,-7.64 15.16667,-17.5915 18.70167,-28.7915 -2.133,0.876 -2.45162,3.40054 -3.57862,5.08154 -17,25.345 -37.73403,32.64979 -67.47803,33.75879 -0.836,0.031 -2.57906,-0.52192 -2.41406,0.68408 4.746,1.45875 9.59328,2.31843 14.43164,2.58838 z m -115.99073,-1.89111 c 0.661,-0.098 0.43243,-1.5361 0.19043,-1.9541 -0.268,-0.463 -4.80047,-3.04546 -5.73047,-4.29346 -1.287,-1.728 -1.25604,-4.97452 -3.12304,-6.22852 -0.148,5.461 4.52208,9.58608 8.66308,12.47608 z m 8.66162,-1.38867 c -0.823,-1.667 -2.14189,-2.98079 -3.46289,-1.02979 z m 95.78907,-1.45459 c 1.52125,0.0572 2.88392,-0.57751 4.3916,-0.6167 9.654,-0.25 16.58185,-0.84433 25.83985,-3.96533 16.084,-5.423 32.57417,-19.01388 37.57617,-35.56788 l -5.25439,8.95166 c -12.466,15.231 -29.46974,27.50637 -49.82374,28.52637 -3.469,0.174 -10.85442,-1.08901 -13.10742,0.063 -0.509,0.26 -2.06973,1.65147 -1.82373,1.98047 0.785,0.43344 1.51019,0.6024 2.20166,0.62842 z m -105.49512,-2.70703 -5.53857,-6.23584 c 0.832,2.215 3.05157,5.86884 5.53857,6.23584 z m 120.50098,-1.87207 c 1.36008,0.007 2.68257,-0.0436 3.93457,-0.20215 11.016,-1.394 25.44051,-10.27212 33.29151,-18.01612 7.7,-7.593 12.84152,-16.85811 15.70752,-27.28711 0.184,-0.668 1.17272,-2.07354 0.21972,-2.56054 -7.586,23.284 -26.37039,40.27559 -50.79639,44.20459 -4.751,0.764 -12.37289,-0.47682 -14.71289,3.65918 3.85875,-0.3495 8.27573,0.18208 12.35596,0.20215 z m -121.19971,-1.58936 -3.46875,-10.39746 c -1.301,-0.161 -0.47821,1.36819 -0.36621,2.09619 0.435,2.833 1.41596,6.45327 3.83496,8.30127 z m 165.00147,-2.08154 c 6.515,-5.868 9.75649,-15.949 11.77149,-24.271 l -7.70362,17.59717 z m -50.61182,-1.39307 c 21.694,0.039 41.73948,-11.55569 52.81348,-30.03369 l 11.6499,-26.13721 c -5.615,3.933 -7.63949,10.6423 -11.22949,16.1543 -10.85,16.657 -20.04207,25.78692 -39.37207,32.04492 -1.975,0.639 -6.66516,1.02363 -7.63916,1.47363 -1.571,0.727 -4.80366,5.02305 -6.22266,6.49805 z M -383.55943,401.842 c 0.13032,0.005 0.27577,-0.007 0.43652,-0.0366 l -1.32422,-5.31738 c 0.24148,1.46785 -1.06715,5.27897 0.8877,5.354 z m 179.98389,-0.0366 c 3.237,0.157 1.443,-2.9199 0,-2.0669 l -0.001,0.001 h -0.001 v 10e-4 10e-4 l -0.001,0.001 c -0.0324,0.12206 0.73095,1.31801 0.004,2.06104 z m 3.70459,-1.89697 c 2.34136,-0.0696 6.10236,-0.88186 4.60986,-2.25586 -0.244,-0.225 -6.02444,0.97229 -6.23144,2.07129 0.21775,0.1485 0.84113,0.20775 1.62158,0.18457 z m 8.45947,-1.53077 c 1.336,0.0614 2.77684,-0.11951 3.77784,-0.041 -1.162,-2.098 -4.92379,-1.21556 -6.92579,-1.37256 0.581,1.049 1.81195,1.3522 3.14795,1.41357 z m -13.5498,-0.041 c 5.033,-1.312 9.87456,-3.72129 15.24756,-3.46729 0.161,-1.214 -1.5686,-0.64708 -2.4126,-0.68408 -4.424,-0.194 -9.84096,0.60037 -12.83496,4.15137 z M -348.87047,395.489 c -0.30048,-0.0265 -0.21358,-1.18068 -0.74121,-1.30078 -4.463,-1.025 -7.52239,1.31345 -12.37939,-2.76855 -4.958,-4.168 -3.89301,-9.91004 -3.10401,-15.56104 0.329,-2.35 3.2781,1.77302 3.6211,1.91602 4.48,1.863 10.92819,-0.57762 13.24219,6.81738 0.134,0.429 1.31533,8.66518 2.46533,4.30518 1.12,-4.246 -3.95896,-10.70382 -7.85596,-12.09082 -2.149,-0.765 -4.46416,-0.62291 -6.61816,-1.35791 -0.145,-1.176 2.43662,-0.77785 3.14062,-0.71485 5.687,0.509 11.50774,4.39005 12.63574,10.24805 0.335,1.739 -0.025,3.49189 0.31495,5.23389 0.045,0.228 2.61454,3.59426 0.20654,2.57226 -0.505,-0.214 -0.85738,-1.1343 -2.10938,-1.3623 -7.397,-1.345 -14.62076,3.11929 -16.90576,-8.05371 -0.339,-1.656 0.95367,-5.02134 -1.44433,-4.44434 -1.073,5.594 1.93375,12.79514 7.96875,13.86914 2.602,0.462 7.45192,0 10.39892,0 0.077,0 1.23356,0.5952 1.37256,0.7002 1.199,0.906 -3.68385,1.97618 -4.19385,1.99218 -0.005,1.6e-4 -0.01,4.2e-4 -0.0147,0 z m 98.85206,-3.39404 c 16.708,-3.796 30.79977,-17.37664 39.13477,-31.95264 0.411,-0.719 -0.16781,-1.78681 0.22119,-2.50781 1.842,-3.41 5.00384,-6.75033 5.69384,-10.61133 l -3.34423,3.92725 c -8.312,13.025 -15.28561,25.82546 -28.59961,34.50146 z m -3.47022,-1.38721 c 15.656,-3.171 30.90229,-17.92119 37.59229,-32.09619 0.477,-1.009 0.32794,-2.72527 0.68994,-3.15527 0.224,-0.267 1.34764,-0.005 1.68164,-0.30762 3.6,-3.264 4.25785,-17.65343 5.79785,-22.69043 l 1.37842,4.15723 V 325.1721 c 0,-0.467 1.72681,-7.62351 2.02881,-8.37451 2.424,-6.017 11.59972,-12.26205 17.53272,-14.37305 2.246,-0.799 3.39736,0.45841 3.67236,-2.57959 6.8,0.796 14.10072,1.80572 19.51172,6.49072 7.544,6.532 9.34388,13.61321 12.62988,22.38721 0.331,0.883 0.15438,2.12721 1.46338,2.34521 0.016,-15.59 -12.01606,-30.07571 -27.53906,-32.42871 -5.558,-0.843 -4.62694,0.83961 -7.60694,1.76661 -1.704,0.531 -3.65273,0.15937 -5.94873,0.98437 -1.899,0.682 -3.71928,3.05316 -5.34228,2.28516 1.932,-2.003 4.79165,-3.52218 7.61865,-3.82618 0.017,-1.402 -2.77698,-0.56793 -3.50098,-0.37793 -1.692,0.442 -7.12548,3.13708 -8.29248,4.22608 -0.599,0.56 -0.18406,1.59022 -0.64306,2.07422 -2.749,2.898 -5.68657,5.14556 -7.58057,9.08056 -2.739,5.69 -2.14339,13.4119 -5.62939,18.2959 2.38,-13.197 4.95681,-27.06429 18.36181,-33.30029 5.055,-2.351 8.28498,-2.11241 13.52198,-2.77441 0.164,-1.209 -1.5746,-0.64862 -2.4126,-0.68262 -17.19,-0.704 -25.43429,10.15701 -33.19629,23.66601 -2.046,3.561 -5.62582,10.11237 -7.00782,13.79737 -2.488,6.636 -2.36523,14.06606 -5.21923,20.78906 -1.22,0.179 -0.71028,-1.59418 -0.53028,-2.26318 0.702,-2.601 2.11837,-4.85175 2.54737,-7.86475 0.104,-0.73 0.58923,-2.52368 -0.61377,-2.34668 -0.644,5.282 -2.74231,10.12387 -4.84131,14.94287 l 2.05078,-0.0483 c -1.948,3.565 -6.55908,6.78828 -6.58008,10.75928 8.156,-6.979 13.50426,-16.5889 15.96826,-27.0249 1.167,-4.944 1.55559,-16.73209 5.85059,-19.80909 0.487,-0.35 1.22478,-0.73095 1.40478,0.019 l -1.38867,3.82178 -1.36963,-0.69874 c -2.607,14.268 -5.26054,29.96171 -15.58154,40.94971 -3.378,3.596 -8.7972,6.10577 -10.0752,11.75977 0.469,0.479 7.78998,-4.87608 8.64698,-5.55908 12.681,-10.106 21.3607,-24.82317 17.6997,-41.59717 1.217,0.164 0.71704,5.9567 2.06104,4.8457 -0.257,-0.891 0.47213,-1.05635 0.70313,-1.38135 -0.478,2.653 -0.29791,6.45525 -0.77491,9.28125 -3.147,18.644 -17.74263,29.85603 -32.49463,39.62403 -0.137,1.716 0.2195,0.84216 1.2085,0.51416 1.428,-0.474 3.27094,-1.55063 4.54394,-2.39063 1.697,-1.12 5.53479,-5.03067 6.38379,-5.40967 0.303,-0.135 1.13686,-0.17562 1.02686,0.33838 -1.083,0.987 -2.01415,2.16256 -3.09815,3.14356 -5.565,5.033 -12.51057,5.90249 -16.30957,12.45849 z m -97.7417,-0.6914 c 3.2032,0.0467 0.9254,-3.35493 1.33447,-5.37159 z m -3.03076,-0.41016 c 0.27642,-0.002 0.59409,-0.0879 0.94922,-0.28418 l 10e-4,-10e-4 c 5.7e-4,-4.9e-4 0.004,-0.002 0.004,-0.003 0.12692,-0.15641 -0.74377,-2.42447 0.68554,-3.45118 -3.48425,-0.39025 -3.57556,3.75044 -1.64062,3.73975 z m -5.97656,-3.75 c 1.406,-0.301 0.43556,-4.12481 1.47656,-4.75781 0.621,-0.378 1.87987,-0.003 2.67187,-0.10108 -0.173,-1.503 -3.23517,-0.68707 -3.82617,0.003 -1.029,1.2 -0.53626,3.42496 -0.32226,4.85596 z m 22.6333,-1.38428 c -1.01246,-0.0655 -0.29865,-1.42728 -0.11865,-2.08447 1.375,-5.014 2.53993,-5.289 0.48193,-10.875 -3.056,-8.295 -12.21237,-14.40706 -20.92237,-14.78906 l 6.82471,-1.25391 c 2.588,3.028 7.16777,4.5871 10.25977,7.7461 5.682,5.805 7.91666,13.89195 3.70166,21.25195 -0.0835,0.008 -0.15956,0.009 -0.22705,0.004 z m -32.35401,-5.55175 -2.96045,-15.40723 c -2.159,-7.163 -6.33177,-13.30712 -10.19677,-19.62012 l 1.36669,-0.33545 c 6.633,10.896 13.21653,21.9538 11.79053,35.3628 z m 17.33057,-24.271 c -2.639,-1.399 -3.15109,-5.02244 -4.16309,-7.62744 l -3.81298,2.08301 c -0.623,-2.605 -1.4919,-0.22758 -3.4629,-0.28858 -1.858,-0.058 -10.78363,-8.28023 -11.32763,-9.88623 -0.688,-2.026 1.30754,-1.52051 1.33154,-1.99951 0.11,-2.172 -3.42676,-7.43666 -1.42676,-10.72266 5.506,1.516 1.50029,1.64732 1.32129,3.07032 -0.083,0.663 0.25683,8.94218 0.40283,9.38818 0.52,1.587 5.95078,7.00294 7.57178,7.71094 2.545,1.111 4.26548,0.57744 6.79248,-0.24756 3.066,-1.001 4.06176,-2.97801 6.78076,-3.95801 -4.823,4.525 -2.08132,7.53454 -0.007,12.47754 z m 151.13819,-0.004 3.1582,-5.49902 4.46192,-4.89258 c -4.197,0.236 -6.93212,6.7706 -7.62012,10.3916 z m -160.32716,-0.54638 c -0.56038,-0.0251 -1.67122,-3.28547 -1.19384,-4.30078 l 0.67675,10e-4 0.69434,4.15283 c -0.0482,0.10468 -0.10843,0.14957 -0.17725,0.14649 z m 160.39308,-8.44043 c 0.91266,0.0888 8.04522,-6.00806 10.32275,-4.88819 -0.626,-1.555 -4.96458,0.11429 -6.01758,0.57129 -0.741,0.322 -5.42002,3.2376 -4.37402,4.2876 0.0161,0.0162 0.0394,0.0264 0.0688,0.0293 z m -6.30469,-0.0249 c 5.296,-3.86 5.03234,-10.70176 6.90234,-16.32276 9.252,-27.803 42.60834,-20.93795 47.09034,5.64405 0.393,2.335 -0.96434,5.93949 1.45166,7.20849 3.02,-9.609 -3.30579,-20.57752 -10.02979,-27.06152 -7.893,-7.614 -19.78709,-8.42597 -29.01709,-2.64697 -12.044,7.54 -13.38346,20.45271 -16.39746,33.17871 z m 5.54004,-3.47461 c 2.718,-0.96 5.20867,-2.8429 8.13867,-3.2959 2.585,-0.399 5.21176,-0.0639 7.80176,-0.17285 0.074,-1.008 -2.52822,-1.23993 -3.19922,-1.29493 -4.633,-0.382 -9.79321,1.01768 -12.74121,4.76368 z m -3.45996,-13.17188 c 2.569,-3.042 3.01737,-6.79935 5.38037,-10.21435 8.475,-12.245 27.06599,-15.619 38.31299,-5.417 1.685,1.529 2.50233,4.22703 4.81933,5.22803 l -8.66601,-12.479 c -1.728,-1.006 0.31044,2.74342 -1.37256,1.37842 -0.868,-0.703 -1.12797,-1.96199 -2.16797,-2.68799 -0.945,-0.659 -4.97133,-1.93998 -6.21533,-2.10498 -15.775,-2.087 -29.31982,10.79587 -30.09082,26.29687 z m -39.51416,-1.39014 v -3.46142 h 0.67968 v 3.46142 z M -400.62633,327.027 c -0.47322,-0.0274 -1.45378,-2.10528 -1.20703,-2.89453 1.332,0.339 1.56202,1.53348 1.37402,2.77148 -0.0419,0.0895 -0.0994,0.12697 -0.16699,0.12305 z m 156.15821,-3.5918 1.3711,-11.7832 v 5.19141 z m -152.48731,-1.95117 c -0.61068,-0.005 -1.26635,-0.30676 -1.94385,-0.99316 -3.618,-3.665 -0.49099,-14.62402 3.95801,-10.54102 3.2476,2.97928 1.28352,11.56314 -2.01416,11.53418 z m 0.94336,-2.74951 c 0.15153,0.002 0.28973,-0.0468 0.40723,-0.15381 0.357,-1.102 1.62782,-8.04002 -1.03418,-7.64502 -4.87303,0.72183 -1.16114,7.77451 0.62695,7.79883 z m 426.209489,-5.46826 c 13.331875,0.34625 26.441025,-4.52731 36.249025,-16.17481 2.725,-3.236 5.962825,-7.55592 6.569825,-11.79492 l -1.387208,2.76416 -1.369628,-1.37549 c -9.937,17.686 -32.145069,26.09453 -51.643069,20.79053 l 0.672363,1.40918 c -5.352,-0.773 -10.3852814,-2.72716 -15.3632814,-4.74316 l -11.3129887,-6.02198 c 10.6985,9.2335 24.2530871,14.80024 37.5849621,15.14649 z m 0.199219,-5.83447 c 3.633066,0.12536 7.235344,-0.18211 10.746094,-0.97998 11.529,-2.62 24.628876,-12.17549 29.671876,-23.02149 1.851,-3.982 1.281645,-8.40666 2.910645,-12.70166 2.86,1.205 0.301164,3.23215 -0.131836,5.07715 -0.518,2.21 -0.723371,4.50691 -1.255371,6.71191 l 2.783203,-1.90283 c 4.81,-15.119 6.383728,-41.05807 29.094731,-33.47607 -0.309,-1.077 -2.78916,-1.76712 -3.78516,-2.09912 -1.491,-0.498 -4.11566,-1.3737 -5.57666,-1.3667 -10.863,0.051 -18.239477,18.66914 -19.063477,27.74414 l -0.694336,-3.46436 c -0.572,-0.779 -6.456083,12.34614 -7.059083,13.39014 -22.656,39.203 -77.3828156,20.30746 -94.007816,-13.87354 l -4.981933,-12.6914 c -0.178,2.424 0.08148,4.77387 0.896484,7.06787 8.0535,22.67562 35.0211742,44.70842 60.452639,45.58594 z M 13.402985,306.09251 1.6769104,300.14817 -15.01645,288.07347 c 7.8250004,7.838 17.5634351,15.16504 28.419435,18.01904 z m 17.463868,-4.2627 c 15.408875,-0.10775 29.788068,-7.63534 38.330568,-25.56884 1.826,-3.832 3.013887,-9.79041 4.858887,-13.17041 0.181,-0.33 0.889039,-0.88802 1.040039,-0.68702 l 0.692871,2.07715 c 1.501,-11.397 11.102997,-26.49144 24.270992,-21.50244 -7.136995,-6.915 -17.402019,0.4233 -21.624019,7.1543 -6.165,9.831 -8.722044,21.75908 -16.519044,31.33008 -20.858,25.605 -57.7446786,14.66169 -77.242679,-6.61231 L -27.48813,256.16624 c 2.277,8.568 7.279774,20.62835 13.842774,26.71435 12.6640002,11.7455 29.103334,19.05697 44.512209,18.94922 z m -0.708984,-6.90673 c 15.0675,0.0868 27.514735,-7.17077 36.052735,-22.34327 7.225,-12.84 10.870525,-34.48818 29.686525,-33.76318 0.065,-1.018 -2.501289,-1.22892 -3.196289,-1.29492 -19.451,-1.844 -22.942927,20.13803 -30.648927,32.97803 -9.604,16.004 -21.404373,20.98566 -39.880373,18.15966 -0.704,-0.107 -8.702153,-1.01387 -6.681153,-2.67187 0.346,-0.284 7.006513,1.79219 8.749513,1.99219 14.523,1.663 25.561888,-2.23754 34.108888,-14.24854 10.184,-14.31 14.830771,-45.62102 39.613771,-36.62402 2.268001,0.823 4.004351,2.51321 6.256351,3.09521 -3.82,-5.73 -12.016442,-6.84821 -18.398442,-6.26221 -15.586,1.429 -22.721966,24.35206 -30.938966,34.93506 -13.63,17.553 -40.027404,20.41102 -58.3374043,8.66602 -10.6739997,-6.846 -15.4393487,-15.45784 -22.7563487,-25.08984 -0.488,-0.642 -1.398484,-2.18119 -1.271484,-0.11719 9.127,18.452 21.2050482,34.01419 41.748048,40.07519 5.557,1.63975 10.871056,2.48472 15.893556,2.51368 z M 19.325349,283.1472 c 13.360398,0.56783 26.778681,-4.85062 35.416993,-16.49268 14.342,-19.327 8.515993,-38.38172 29.041993,-54.86572 11.88,-9.541 28.735095,-11.55819 41.225095,-2.09619 0.342,-1.46 -0.77731,-1.57082 -1.57031,-2.23682 -10.608,-8.902 -25.170859,-9.77839 -37.505859,-3.92139 -30.143,14.313 -20.320556,61.29793 -52.643556,74.25293 -17.337,6.949 -25.9090137,1.0328 -40.4370137,-6.2622 -0.625,-0.314 -1.8233126,-1.45357 -2.3203126,-0.45557 8.0451875,7.57312 18.4015485,11.63599 28.7929703,12.07764 z m 0.120117,-3.99903 c 3.939609,-0.055 8.003067,-0.78946 12.174317,-2.33496 26.983,-9.999 24.744384,-42.15363 39.442384,-62.49463 13.363,-18.493 40.206213,-21.65431 56.720213,-5.32031 1.255,-1.351 -7.65438,-7.53662 -8.79638,-8.18262 -17.209,-9.735 -40.828935,-4.99256 -52.502935,11.00244 -9.047,12.395 -10.099446,28.74374 -17.856446,41.78174 -4.415,7.421 -9.703004,13.95926 -17.729004,17.63526 -10.416,4.771 -20.220314,3.1246 -30.82031403,-0.004 L -12.240571,264.82786 c 9.1620004,8.53275 19.8672086,14.48536 31.686037,14.32031 z m 3.430664,-6.97998 c 0.617875,0.011 1.23459,-0.0213 1.82959,-0.19629 13.74,-4.04 23.36104,-17.61948 28.04004,-30.89648 2.634,-7.477 2.212445,-13.61835 3.981445,-20.98535 6.126,-25.516 29.677366,-43.92717 56.172365,-33.99317 3.515,1.318 6.01277,3.44928 9.34277,4.86328 -4.661,-5.637 -11.48975,-9.37971 -18.67675,-10.78271 -25.359004,-4.951 -43.680928,13.84818 -48.919928,37.13818 -1.495,6.648 -1.557101,13.6727 -3.454101,20.1167 -1.312,-0.893 -0.930836,-1.6536 -0.881836,-2.8916 0.421,-10.791 4.068805,-24.95808 9.424805,-34.33008 16.27,-28.47 52.37708,-29.89225 70.43408,-2.26025 5.669,8.673 6.92576,17.19342 7.32276,27.35742 0.033,0.849 -0.51974,2.57446 0.69726,2.41846 -0.267,-3.693 0.367,-7.81283 0,-11.44483 -1.64,-16.214 -15.89545,-35.17315 -32.58545,-37.80615 l 0.69873,-1.37402 c -1.321,0.019 -2.54253,-0.66071 -3.85253,-0.72071 -10.510005,-0.485 -15.787049,-2.35599 -26.644049,2.45801 -28.534,12.653 -23.499368,48.18188 -37.151368,71.02588 -4.362,7.298 -11.692626,15.37601 -20.390626,16.70801 -0.186,1.187 1.656863,0.74688 2.359863,0.62988 12.053,-2.005 22.07806,-13.87247 25.56006,-25.06347 1.198,-3.851 1.209223,-8.05926 2.928223,-11.63526 0.718,22.937 -18.866662,41.93931 -41.9516622,40.57031 4.1710002,1.256 8.5025672,1.09644 12.8305672,1.04444 l -0.188965,-1.0503 2.613281,-0.33398 -1.379883,1.37256 c 0.6035,-0.004 1.223434,0.0505 1.841309,0.0615 z m -218.78614,-5.58691 c -0.0139,-0.002 -0.0245,-0.007 -0.0322,-0.0161 -0.425,-1.29 2.7005,-4.10696 3.4585,-3.45996 0.27319,0.2325 -2.99534,3.52506 -3.42627,3.47608 z m 209.73194,-0.59326 c 5.741313,-0.16318 10.90181,-3.36531 15.200685,-7.03418 17.548,-14.975 16.499215,-42.85797 25.970215,-62.43897 -14.628,19.943 -9.179298,51.4074 -33.029298,65.0874 l -10.636231,4.2627 c 0.843125,0.10825 1.674442,0.14636 2.494629,0.12305 z m -3.191894,-0.12012 c 1.118,-0.847 -0.0055,-1.25728 -1.0224612,-1.38428 -4.6303958,-0.58124 -9.14006253,-0.11669 -13.861817,-1.93066 l 5.8403323,2.31445 z m -3.9008793,-2.5415 c 1.7704922,0.0622 3.6265003,-0.0274 5.5781253,-0.28711 26.976,-3.591 26.793782,-40.11579 35.425782,-58.88379 6.688,-14.541 18.421467,-24.69068 33.751467,-29.34668 l 9.563965,-1.875 c -3.226,0.257 -6.893223,-0.356 -10.053223,0 -11.174,1.256 -24.13772,8.67948 -31.13672,17.39648 -14.556,18.129 -8.766212,51.41483 -29.991212,64.31983 -15.5610002,9.461 -32.271314,0.18345 -43.195314,-11.66455 -0.303,1.3 0.723418,1.64971 1.378418,2.42871 8.047375,9.57075 16.2852664,17.47698 28.6787117,17.91211 z m -1.0180665,-6.28418 c 10.8125438,0.19156 20.9010828,-6.76618 26.7465828,-21.00586 10.298,-25.085 5.156924,-49.65481 36.919924,-61.54981 l 11.964844,-3.63428 c -3.226,0.257 -6.891758,-0.355 -10.051758,0 -15.437,1.734 -31.147564,14.67054 -37.101564,28.76954 -5.683,13.457 -4.688853,32.96092 -15.922853,43.02392 -8.3459995,7.475 -19.00455919,7.50199 -29.122559,3.81299 7.1079998,6.146 15.6528054,6.68086 24.049805,2.90186 21.584,-9.714 18.644701,-45.29721 32.491701,-62.51221 0.435,-0.542 1.699906,-2.09576 2.378906,-1.42676 0.649,0.64 -2.363785,3.46516 -2.904785,4.36816 -2.028,3.387 -3.751817,7.71774 -5.236817,11.40674 -7.46,18.534 -7.615157,42.98881 -29.285157,51.15381 l 3.461426,0.3501 -0.688477,1.05322 c -3.6379997,-0.439 -7.067629,0.64087 -10.744629,0.31787 -3.63500003,-0.319 -7.1499028,-2.08991 -10.5249028,-3.33691 l -11.3159182,-7.05029 c 7.628687,8.73468 16.4764747,13.20891 24.8862312,13.35791 z m -38.0507822,-1.57764 h 0.678222 c 0.236,-0.498 -0.392336,-3.82583 -0.694336,-4.15283 -0.089,-0.096 -0.454222,0.0335 -0.678222,-10e-4 -0.032,1.416 0.639336,2.7413 0.694336,4.1543 z m 93.585941,-11.09326 c -0.263,-1.182 0.407621,-2.01851 0.786621,-3.02051 0.303,-0.802 1.073144,-3.07626 1.973144,-3.21826 -0.185,2.086 -0.765765,5.14577 -2.759765,6.23877 z m -377.132829,-2.77588 4.16016,-27.04395 c -1.056,0.386 -1.87418,2.4391 -2.43018,3.4541 -1.157,2.114 -3.9746,7.93071 -4.4956,9.72071 0.333,-1.968 0.53272,-4.18148 1.24072,-6.04248 1.21,-3.18 5.7688,-8.6713 6.2168,-10.4253 0.809,-3.168 -0.0576,-8.38504 0.36035,-12.12304 0.409,-3.657 1.97088,-9.19427 3.25488,-12.69727 0.623,-1.703 2.39188,-3.34088 1.75488,-4.48388 l -2.7788,2.76708 c -0.874,-2.245 4.32973,-4.70586 5.19873,-6.58886 -3.657,-3.241 -9.19891,3.78246 -11.37891,6.64746 -11.28,14.824 -11.66361,34.26567 -5.24561,51.26367 1.199,0.168 0.65855,-1.57667 0.68555,-2.40967 0.0638,-1.96688 0.23236,-3.18302 0.45996,-4.54541 -0.34649,3.64169 0.46174,10.92095 2.99707,12.50684 z m -2.99707,-12.50684 c 0.052,-0.54679 0.12923,-1.01113 0.23145,-1.3623 -0.0826,0.48768 -0.15957,0.93207 -0.23145,1.3623 z m 387.063004,10.42676 5.947266,-10.34033 c 11.814,-19.668 43.58483,-32.77442 56.44483,-7.00342 1.424,0.097 0.41888,-1.97452 0.15088,-2.58252 -0.725,-1.647 -2.72301,-4.42251 -3.95801,-5.74951 -20.641,-22.183 -54.898966,0.63678 -58.584966,25.67578 z m -10.398926,-14.56787 7.73584,-14.09619 c 15.942,-20.196 43.700152,-23.01915 62.723152,-5.07715 0.702,0.662 1.032,1.93732 1.979,2.52832 0.516,0.11 0.46691,-0.70939 0.33691,-1.02539 -1.264,-3.064 -5.90892,-8.13564 -8.79492,-9.93164 -13.732,-8.547 -31.257016,-8.63388 -45.041016,-0.25488 -1.078,0.656 -6.750227,5.38375 -7.157227,4.96875 -0.837,-0.852 3.751254,-4.28978 4.510254,-4.84278 15.992,-11.649 39.462959,-10.15004 53.709959,3.45996 -2.311,-5.882 -9.31898,-10.7452 -15.06298,-13.0122 -26.611005,-10.504 -52.605972,10.5742 -54.938972,37.2832 z m -366.720718,-10.40186 2.42725,-10.39306 c 2.271,-8.266 8.42347,-16.36722 15.58447,-20.82422 0.164,-0.884 -2.90205,-1.23079 -3.33105,-1.23779 -3.292,-0.05 -6.78577,6.08661 -9.13477,8.18261 0.17,-1.775 1.66574,-3.86661 2.78174,-5.18261 1.255,-1.482 4.49237,-2.75738 3.02637,-3.88038 -0.181,-0.138 -3.86824,-1.98675 -4.09424,-1.96875 -0.641,0.052 -4.52402,8.1139 -5.02002,9.4629 -3.005,8.17 -3.41075,17.2733 -2.23975,25.8413 z m 279.48048,-12.47461 c -0.0338,-0.002 -0.06975,-0.005 -0.106933,-0.0103 -0.246,-1.4 0.249398,-2.681 0.483398,-4.021 0.163,-0.936 -0.239839,-3.02918 0.889161,-2.90918 0.23,1.597 -0.308192,3.07401 -0.596192,4.60401 -0.164687,0.87865 0.37836,2.39187 -0.669434,2.33642 z m 1.958497,-9.02783 -2.680665,-21.93457 0.600586,-2.33203 c 1.036,8.053 2.500079,16.1046 2.080079,24.2666 z m -290.988297,-8.99267 c 2.2843,-0.011 2.34817,-1.06165 3.99317,-3.14502 l -4.15137,-1.02979 c 2.455,0.555 3.21763,-1.1884 4.84863,-2.0874 -0.225,0.748 -0.0908,1.88481 1.03125,1.38281 0.303,-0.136 3.61852,-2.44696 3.12452,-3.45996 -1.36,0.378 -2.84377,1.35315 -4.15577,2.07715 0.45,-1.496 3.5105,-2.57695 2.0625,-3.79395 -1.527,-1.284 -10.74713,-4.74903 -13.18213,-5.54003 -8.447,-2.743 -15.99953,-3.03064 -24.26953,-4.84864 -14.255,-3.135 -19.85088,-16.92786 -18.15088,-30.38086 l -2.60449,-6.75732 c -0.102,2.245 0.60124,4.30624 0.71924,6.55224 0.043,0.811 0.48376,3.84475 -0.71924,3.84375 -1.649,-11.357 -2.21859,-23.64321 0.0454,-34.97021 0.096,-0.484 0.5888,-2.363688 1.3418,-1.42969 -1.809,3.347 0.10658,6.63644 0.0176,9.66944 -0.109,3.757 -1.16607,8.56198 -1.39307,12.43798 l 2.05371,5.27637 c 0.203,-7.531 0.98678,-16.09232 3.44678,-23.25732 1.201,-3.499 4.55741,-6.799729 3.14941,-10.719729 -2.539,2.246 -4.16064,5.281496 -5.53564,8.333499 l -1.73877,5.53125 c -0.361,-2.611 0.2209,-4.54246 1.0459,-6.91846 1.95,-5.62 7.43909,-8.020125 5.87109,-14.578125 l -4.16016,5.542969 c -0.843,0.196 -0.84261,-0.318997 -0.68261,-1.020997 0.637,-2.805 4.25993,-4.825972 4.71093,-6.396972 0.751,-2.622 -0.23167,-4.222789 1.50733,-7.508789 1.501,-2.838 8.56621,-9.360196 8.88721,-11.200196 0.257,-1.477 -1.96457,-3.393093 -2.97657,-4.371093 -5.225,5.644 -10.50178,11.194414 -15.92578,16.649414 -4.01,4.032 -8.10471,5.954761 -7.30371,13.155761 -1.218,0.035 -0.78248,-3.096988 -0.68848,-3.812988 0.753,-5.75 3.60945,-7.328699 7.62745,-10.741699 -9.854,-0.831 -11.25549,6.049141 -11.12549,14.244141 0.198,12.446004 2.95691,25.486994 -0.30909,37.770994 -1.284,4.831 -4.8382,8.47551 -5.1372,13.62451 -0.597,10.275 6.05047,21.40569 15.68847,25.05469 6.329,2.397 14.17987,3.37435 20.83887,5.50635 8.109,2.597 23.66727,10.54832 31.07227,11.25732 0.428,0.0409 0.80014,0.0602 1.12646,0.0586 z m -1.96435,-1.98194 c -0.78715,-0.0262 -1.43163,-0.21507 -1.66113,-0.8042 1.37,0.383 4.92804,-0.89277 5.54004,0.67823 -0.85625,-0.23938 -2.567,0.16964 -3.87891,0.12597 z m -4.20557,-1.46338 c -1.27491,-0.0379 -3.77584,-1.06098 -3.00146,-1.42236 0.952,-0.316 4.34596,0.96102 3.45996,1.37402 -0.119,0.0396 -0.27637,0.0538 -0.4585,0.0483 z m 222.30323,-0.73974 c 0.412,-14.783 8.300289,-29.82314 17.342289,-41.24414 5.172,-6.532 13.799716,-12.09623 15.657716,-19.80323 l 3.728027,-4.14111 c -2.635,11.156 -14.04588,18.52069 -20.77588,27.40869 -5.439,7.182 -9.475941,15.67153 -12.689941,24.06153 z m -217.68604,-0.003 -17.00537,-4.82227 -12.10401,-4.87353 3.3252,0.479 z m 36.04541,-3.46436 c -1.272,-0.084 -0.45957,-2.17149 -1.03857,-3.45849 -0.694,-1.542 -3.15413,-1.85629 -3.80713,-3.46729 3.573,0.343 5.3377,3.55678 4.8457,6.92578 z m 26.28955,-6.16699 c -0.34625,-0.0172 -0.67345,-0.11512 -0.62695,-0.41162 2.982,-3.906 3.0531,-8.32581 0.8291,-12.63281 -2.672,-5.177 -2.69962,-1.80153 -4.05762,-1.01953 -1.367,0.788 -3.52826,0.84212 -5.09326,0.80712 l 4.84717,-2.42871 c 0.246,-1.073 -0.9225,-1.44707 -1.5835,-1.87207 -3.794,-2.436 -14.77784,-4.07975 -19.56884,-4.69775 -11.947,-1.541 -44.97937,-0.36603 -53.27637,-4.95703 -6.191,-3.426 -13.71222,-19.40099 -18.47022,-2.68799 -1.825,-1.031 0.0534,-5.15579 1.00635,-6.27979 6.128,-7.222 12.22095,3.68241 16.37695,6.58741 8.568,5.988 39.4452,4.5538 51.5962,5.9458 9.865,1.129 31.6533,3.01189 30.8833,16.96289 -0.049,0.886 -1.81763,6.32937 -2.11963,6.60937 -0.0402,0.0291 -0.40184,0.0917 -0.74268,0.0747 z m -94.22314,-1.46631 c -4.887,-1.835 -14.09308,-4.15885 -17.99708,-7.29785 -2.752,-2.214 -7.75446,-10.85879 -10.77246,-12.11279 l -1.02832,1.38135 c 0.76548,-1.70507 -1.32414,-2.23676 -1.38281,-2.39795 v -0.001 c -10e-5,-6.2e-4 4e-5,-0.004 0,-0.004 v -0.001 -0.001 -0.001 -10e-4 c 0.119,-0.28 0.64348,-0.42959 0.68848,-0.70459 0.313,-1.895 -0.1185,-2.83255 2.0625,-0.68555 4.302,4.237 7.5912,10.67628 12.5332,14.50928 z m 61.69775,0 c -11.815,-3.611 -23.97282,-6.66788 -36.36182,-7.65088 -3.579,-0.285 -7.49184,0.29951 -11.11084,0.0205 -0.935,-0.072 -4.19618,-0.33756 -4.51318,-1.37256 15.728,0.081 34.50492,1.32271 49.19092,7.30371 0.826,0.336 2.77992,0.71522 2.79492,1.69922 z m 177.38673,-11.41992 c 2.13574,0.0212 4.11217,-0.3332 5.83154,-1.20264 1.703,-0.86 3.01081,-3.49534 3.25781,-5.40234 -6.445,2.614 -14.03858,0.60202 -20.47558,-1.35498 -20.412,-6.204 -35.32142,-15.56354 -58.17042,-16.70654 -21.18,-1.06 -40.38862,7.15181 -60.68262,11.13281 -0.135,1.063 1.59963,1.14518 2.28663,1.13818 13.429,-0.155 27.86245,-4.47914 41.04345,-5.99414 19.767,-2.27 39.59002,1.71052 58.06202,8.47852 7.34012,2.68937 19.59226,9.81926 28.84717,9.91113 z m 1.44726,-7.39453 c 3.23075,0.14437 6.3879,-0.25231 8.5459,-1.94531 0.874,-0.686 6.141427,-11.17327 7.961427,-13.71827 7.135,-9.981 16.085197,-16.8466 25.825197,-24.0996 0.904,-7.318 10.222809,-18.141509 7.653809,-25.041509 -1.355,-3.64 -3.226911,-4.323507 -6.982911,-3.770507 1.284,-2.505 5.269118,-1.283758 7.620118,-0.676758 l -2.07129,1.026855 c 8.694,7.198 -3.318957,18.873579 -4.855957,27.392579 0.575,0.479 6.302219,-2.65848 6.949219,-3.79248 2.222,-6.996001 7.088395,-12.738857 9.004395,-19.776857 1.583,0.23 -0.08007,3.436114 -0.37207,4.141114 -1.92,4.64 -5.126836,9.585281 -7.256836,14.238283 1.185,0.971 3.32341,-0.46649 4.17041,-1.37549 1.072,-1.149 7.200258,-11.104989 7.989258,-12.812989 4.313,-9.346 -1.548301,-14.173363 -8.758301,-19.047363 -11.546,-7.804 -28.924177,-13.714633 -35.805177,-26.598633 -3.382,-6.332 -3.821946,-15.313472 -6.793946,-22.334472 -1.921995,-4.542 -5.237895,-11.012743 -10.691895,-11.510743 -6.065,-0.5539995 -9.367,14.198434 -15.271,2.169434 0.333,-1.52 10.61716,-3.9765546 8.66016,-8.0185546 -2.616,3.715 -11.17391,1.8503242 -10.73291,7.8823246 0.407,5.568 6.07845,8.622945 10.73145,5.293945 1.959,-1.401 2.78733,-5.183848 5.19433,-3.818848 l -2.77002,3.115723 c 4.05,0.225 4.38716,-4.660164 8.28516,-0.993164 2.582,2.43 5.349217,17.043875 7.324217,21.796875 4.208,10.124 12.78854,19.202316 21.47754,25.674316 6.376,4.75 18.037392,9.754352 23.150392,14.985352 0.977,1 2.299496,2.908469 2.708496,4.230469 0.191,0.617 0.650613,2.477296 -0.546387,2.279296 -0.359,-2.09 -1.310586,-4.324289 -2.850586,-5.821289 -4.767,-4.636 -17.220149,-10.117129 -23.452149,-14.682129 -10.208,-7.476 -23.605423,-20.245371 -26.878423,-32.755371 -0.944,-3.609 -0.91251,-11.346629 -3.97851,-13.369629 -4.022,-2.653 -11.39702,6.636372 -17.39502,-0.619628 -1.086,-1.314 -2.28387,-3.588692 -2.35987,-5.283692 -0.085,-1.914 1.85483,-4.1123358 0.67383,-4.8193358 -0.435,-0.26 -8.76119,-1.0645195 -10.07519,-1.0825195 -2.822,-0.037 -6.75475,2.4547109 -5.88575,-1.3212891 2.05,1.404 3.77699,-0.1042265 5.85499,-0.032227 7.444,0.256 19.88635,5.2182504 17.71435,-7.59375 3.301,1.337 -0.68253,6.7589765 10e-4,7.6259765 2.183,-0.873 4.17588,-2.3606953 4.00488,-5.01269527 -0.068,-1.057 -3.11515,-10.65844483 -4.70215,-8.85644533 l -0.68848,2.7670899 c -0.60622,-1.1281172 0.79113,-3.9260509 0.68702,-4.1308594 l -0.001,-0.0015 -10e-4,-0.0015 c -0.162,-0.209 -4.10824,-1.305516 -4.84424,-2.103516 1.254,4.1389997 4.52222,17.0463434 -2.42578,17.4023434 -4.599,0.235 -10.29996,-1.8041289 -15.62696,-0.4321289 -3.982,1.025 -7.02004,2.8460586 -5.74804,7.1850595 1.843,6.286 25.29058,25.012757 31.35058,31.051756 10.1,10.063001 28.070601,29.306243 26.412601,44.323243 -1.21,10.959 -27.720891,34.325808 -35.712891,44.028808 -2.942,3.571 -5.75329,7.3535 -7.96729,11.4375 0.154,0.721 13.10514,5.52146 13.76514,5.14746 7.268,-8.795 13.10709,-18.57555 19.64209,-27.89355 5.327002,-7.596 14.666819,-16.26828 15.736819,-25.863285 0.51,-4.567 -2.676223,-16.473172 -4.428223,-21.076172 -2.466,-6.483 -7.96484,-11.706156 -10.735836,-18.035156 1.920996,1.2 3.446863,3.483496 4.713863,5.333496 2.948,4.302 10.275633,15.804102 11.223633,20.329102 -0.485,-0.89 -1.794711,-2.490821 -2.428711,-3.465821 l -0.351562,1.041504 3.467285,10.743164 c 0.094,-2.743 -0.127012,-5.645847 -0.687012,-8.318847 3.463,6.345 0.662066,17.374773 -3.106934,23.592775 l -32.247072,44.36865 c 2.453,0.4695 5.75753,1.15494 8.98828,1.29932 z m 87.377936,-1.98779 3.884765,-9.62842 5.812501,-7.00781 c -8.066,1.903 -11.380266,8.65823 -9.697266,16.63623 z M -384.63609,147.3356 c -0.87846,-0.036 -0.55442,-0.66151 -0.5918,-1.81201 -0.126,-3.884 1.62887,-5.61715 5.56787,-5.18115 l -3.75,2.82861 c -0.839,1.381 -1.14776,2.59624 -0.40576,4.09424 -0.35006,0.0551 -0.61759,0.0786 -0.82031,0.0703 z m 169.97315,-0.0718 c -0.165,-0.969 1.16458,-0.9425 1.89258,-1.2085 10.913,-3.989 22.30494,-3.84895 33.79394,-3.62695 l 8.67334,2.06103 c -15.073,-2.753 -29.70286,-1.35558 -44.35986,2.77442 z m -150.42774,-17.33497 3.28564,-7.45166 c 0.592,-4.45 1.1594,-8.84065 0.8584,-13.34765 -1.211,0.012 -0.98362,1.99169 -1.43262,2.92969 -1.483,3.098 -2.37003,7.96728 -2.70703,11.98828 -0.164,1.947 0.0686,3.93634 -0.004,5.88134 z m 17.31592,-3.46435 c -5.261,-6.207 -5.31578,-16.34343 -8.32178,-23.91943 l 1.3916,0.34423 c -0.771,-7.795996 0.54828,-15.776375 1.38428,-23.588375 -4.409,3.885 -3.34482,10.645219 -3.46582,15.949219 l -1.43262,-7.274414 c 0.215,-3.366 1.47847,-6.499055 3.20947,-9.331055 l 5.85205,-4.888184 c -7.204,16.716 -4.65518,36.045009 1.38282,52.708009 z m -15.93018,-15.95508 c 0.916,-0.108 1.39417,-2.80423 1.57617,-3.61523 0.247,-1.106 0.70926,-2.12894 0.48926,-3.31494 -0.784,0.07 -1.58266,2.85775 -1.72266,3.46875 -0.268,1.176 -0.54677,2.23642 -0.34277,3.46142 z m 360.8789205,-4.12353 c -0.7514272,-0.0256 -0.096133,-1.42532 -0.7939453,-1.46338 -0.725,-0.04 -2.0432423,1.00702 -3.0732423,0.72802 -0.126,-1.175 1.5551173,-0.59408 1.9951173,-1.80908 0.312,-0.859 0.2070117,-2.3427 -0.062988,-3.2417 l -6.0893562,-5.345212 c 5.6890005,1.398 8.8726649,5.021262 8.3056649,11.093262 -0.1109063,0.0298 -0.2035162,0.0407 -0.2812501,0.0381 z M -329.73668,89.008524 h 0.67823 l 0.70166,-2.76416 -1.38282,-0.0029 z m 6.23584,-6.243164 c 5.494,-0.722 9.50139,-1.805695 11.79639,-7.262695 2.669,-6.348 2.69272,-21.70516 0.49072,-28.26416 -3.307,-9.853 -19.00958,2.633148 -24.76758,4.327148 4.333,4.534 8.35745,9.329672 10.73145,15.263672 1.037,2.591 3.24192,9.654992 3.16992,12.166992 -0.053,1.849 -1.4479,2.156043 -1.4209,3.769043 z m -11.78466,-2.772949 2.76562,-0.0044 c 0.84,-0.379 -2.38362,-1.754954 -2.76562,-1.376954 z m -14.21485,-15.960937 11.43897,-11.77295 c -3.444,-0.206 -12.85733,4.155754 -14.25733,6.947754 -0.685,1.366 1.86336,3.752196 2.81836,4.825196 z m 21.13623,-7.618653 -2.76562,-2.76709 c 1.488,-0.148 2.94162,1.38409 2.76562,2.76709 z M -96.823582,43.236552 c -1.464,-3.77 -3.127937,-7.370254 -4.335938,-11.260254 -1.393,-4.484 -1.37906,-10.422008 -4.66406,-13.708008 3.073,8.354 2.133,18.260262 8.999998,24.968262 z m -20.797848,-5.548828 c -1.211,-0.469 -11.62748,-9.202125 -11.08448,-9.703125 0.508,-0.468 5.51649,3.847746 6.25049,4.489746 0.633,0.553 5.49499,4.565379 4.83399,5.213379 z M -8.7835392,13.412333 c 0.064,-2.444 -2.9987738,-2.91209 -4.8427738,-2.76709 z m -91.5073308,-1.387207 -2.07275,-2.0742188 c 1.312,-0.229 2.30675,0.8092188 2.07275,2.0742188 z m -47.26611,-8.4199219 c 0.93101,-0.026627 4.44709,-1.2178125 6.00146,-1.3125 2.547,-0.156 14.74495,1.317664 15.31495,0.805664 2.956,-2.65599996 1.16798,-12.6602031 -1.27002,-15.1582031 -3.25,-3.33 -29.91159,-2.97677 -30.22559,0.13623 -0.122,1.204 9.12278,15.2950903 10.02978,15.5170903 0.0377,0.00925 0.0874,0.013494 0.14942,0.011719 z M -8.0804142,3.0016885 c 2.535,-0.226 6.2840784,-1.1444649 8.0800784473,-3.00146489189 C 2.5606642,-2.6477764 2.7205003,-7.4766084 2.0065003,-10.902608 c -1.32400004,-6.351 -11.4936882,-14.28277 -16.8046883,-17.86377 -1.912,-1.289 -8.462211,-6.041352 -10.491211,-4.860352 -0.572,0.333 -3.360778,7.679102 -3.446778,8.704102 -0.111,1.323 0.650371,2.499949 0.505371,3.897949 -0.2,1.927 -1.03705,4.054606 -1.35205,5.995606 l -0.676758,-6.23291 -1.393067,7.608398 c 2.179,0.462 4.785309,1.579156 6.716309,2.660156 2.899,1.6240003 15.7567313,11.18015261 17.1987313,11.18115261 2.801,0.001 6.6930002,-5.69698051 7.12500024,-8.10498051 0.497,-2.7750001 -2.68903134,-5.8022341 -1.58203134,-8.4902341 2.08800003,1.789 1.81116416,4.425711 1.74316416,6.9287107 L 0.921051,-11.552999 c 0.345,3.366 -0.83855479,6.6404218 -2.7685548,9.3574218 z" /></g></svg>
